<svg width="26" height="24" viewBox="0 0 26 24" fill="none" xmlns="http://www.w3.org/2000/svg">
<g opacity="0.4">
<path d="M19.8116 19.6219C21.3248 19.7437 22.847 19.5516 24.2802 19.058C24.3349 18.3934 24.1975 17.7271 23.884 17.1362C23.5705 16.5453 23.0936 16.0539 22.5085 15.7189C21.9235 15.384 21.2541 15.2191 20.578 15.2434C19.9018 15.2677 19.2464 15.4801 18.6876 15.8562M19.8104 19.6207L19.8116 19.6572C19.8116 19.922 19.7973 20.1834 19.7674 20.4412C17.5999 21.6667 15.1437 22.3097 12.6447 22.3058C10.0527 22.3058 7.61954 21.6277 5.52203 20.4412C5.49132 20.1687 5.47656 19.8948 5.47783 19.6207M19.8116 19.6207C19.807 18.2865 19.4171 16.9813 18.6876 15.8574C18.0401 14.8565 17.1469 14.0328 16.0906 13.4625C15.0343 12.8921 13.8492 12.5935 12.6447 12.5943C11.4405 12.5937 10.2556 12.8924 9.19952 13.4627C8.14348 14.0331 7.25045 14.8567 6.60304 15.8574C6.04427 15.4817 5.38901 15.2695 4.71303 15.2454C4.03704 15.2213 3.36794 15.3862 2.78308 15.7211C2.19823 16.0561 1.7215 16.5473 1.40803 17.138C1.09455 17.7287 0.957136 18.3948 1.01166 19.0592C2.44374 19.5556 3.96637 19.747 5.47903 19.6207C5.48332 18.2867 5.87276 16.9814 6.60184 15.8574M16.2282 5.53144C16.2282 6.46803 15.8506 7.36627 15.1786 8.02854C14.5066 8.69081 13.5951 9.06287 12.6447 9.06287C11.6943 9.06287 10.7829 8.69081 10.1108 8.02854C9.43882 7.36627 9.06128 6.46803 9.06128 5.53144C9.06128 4.59484 9.43882 3.69661 10.1108 3.03433C10.7829 2.37206 11.6943 2 12.6447 2C13.5951 2 14.5066 2.37206 15.1786 3.03433C15.8506 3.69661 16.2282 4.59484 16.2282 5.53144ZM23.3951 9.06287C23.3951 9.41069 23.3256 9.7551 23.1905 10.0764C23.0554 10.3978 22.8575 10.6898 22.6079 10.9357C22.3583 11.1816 22.0621 11.3767 21.736 11.5098C21.4099 11.6429 21.0604 11.7115 20.7075 11.7115C20.3545 11.7115 20.0051 11.6429 19.679 11.5098C19.3529 11.3767 19.0566 11.1816 18.8071 10.9357C18.5575 10.6898 18.3595 10.3978 18.2245 10.0764C18.0894 9.7551 18.0199 9.41069 18.0199 9.06287C18.0199 8.36043 18.3031 7.68675 18.8071 7.19005C19.3111 6.69334 19.9947 6.4143 20.7075 6.4143C21.4203 6.4143 22.1039 6.69334 22.6079 7.19005C23.1119 7.68675 23.3951 8.36043 23.3951 9.06287ZM7.26956 9.06287C7.26956 9.41069 7.20004 9.7551 7.06498 10.0764C6.92991 10.3978 6.73195 10.6898 6.48238 10.9357C6.23282 11.1816 5.93654 11.3767 5.61047 11.5098C5.28439 11.6429 4.93491 11.7115 4.58197 11.7115C4.22903 11.7115 3.87955 11.6429 3.55348 11.5098C3.2274 11.3767 2.93113 11.1816 2.68156 10.9357C2.432 10.6898 2.23403 10.3978 2.09897 10.0764C1.9639 9.7551 1.89439 9.41069 1.89439 9.06287C1.89439 8.36043 2.17754 7.68675 2.68156 7.19005C3.18558 6.69334 3.86918 6.4143 4.58197 6.4143C5.29476 6.4143 5.97836 6.69334 6.48238 7.19005C6.9864 7.68675 7.26956 8.36043 7.26956 9.06287Z" stroke="#26262E" stroke-width="2" stroke-linecap="round" stroke-linejoin="round"/>
</g>
</svg>
