<svg width="29" height="27" viewBox="0 0 29 27" fill="none" xmlns="http://www.w3.org/2000/svg">
<path fill-rule="evenodd" clip-rule="evenodd" d="M5.47004 16.8947L6.08956 10.5025C6.08956 10.5025 6.22912 9.60746 7.00666 9.56273C7.78485 9.51828 8.31197 10.0099 8.34906 11.846C8.38688 13.6816 8.28584 15.4741 8.1905 17.1258C8.09555 18.7766 7.76296 21.3186 7.09794 21.8455C6.43329 22.372 5.42166 22.0217 5.2493 21.3687C5.07643 20.7158 5.4606 16.8701 5.46994 16.895L5.47004 16.8947ZM16.4516 22.0313L20.9614 17.4588C20.9614 17.4588 21.5583 16.7777 21.0942 16.1522C20.6302 15.5267 19.9143 15.4369 18.4814 16.5854C17.0487 17.7331 15.7369 18.9593 14.5302 20.0912C13.3237 21.2221 11.5863 23.107 11.608 23.9551C11.6304 24.8029 12.5469 25.3545 13.1589 25.0685C13.7707 24.7825 16.4763 22.0227 16.4514 22.0316L16.4516 22.0313ZM21.4214 16.7871C21.4979 16.8027 21.5639 16.8301 21.6141 16.8744C21.9801 17.1984 22.4567 18.3307 22.4567 18.3307C22.4567 18.3307 22.5951 18.7419 21.9254 19.4917C21.2558 20.2412 19.8577 21.8053 19.8577 21.8053L20.9312 23.2824C20.9312 23.2824 21.5241 24.1016 20.9845 24.5944C20.4448 25.088 19.94 24.2083 19.94 24.2083L18.971 22.7233C18.971 22.7233 16.927 24.7093 16.0595 25.4785C15.1918 26.2479 14.2638 26.5082 13.9787 26.4568C13.6938 26.4052 13.3116 26.0936 13.0319 25.8403C12.8727 25.6957 12.7941 25.4966 12.7563 25.3129C12.9125 25.3172 13.0706 25.2874 13.2231 25.2161C13.6574 25.0129 14.5705 24.1138 14.9389 23.7615C15.32 23.3972 15.6965 23.0269 16.0684 22.6529C16.191 22.5303 16.3128 22.4068 16.4338 22.2827C16.4669 22.2481 16.501 22.2136 16.5337 22.1782C16.5442 22.1676 16.5535 22.1559 16.5613 22.1443L21.0778 17.5673C21.2736 17.35 21.3969 17.0701 21.4215 16.7875L21.4214 16.7871ZM21.947 19.6541C22.0476 19.8288 22.162 20.0835 22.1617 20.3358C22.162 20.5981 21.4693 21.5995 20.628 22.6502L20.0188 21.8112C20.6647 21.0966 21.3049 20.3734 21.9471 19.6539L21.947 19.6541ZM19.5821 23.89C19.3065 24.199 19.0378 24.4855 18.7926 24.7272C17.4596 26.0439 16.8762 26.3337 16.4541 26.341C16.2314 26.3447 15.8289 26.1898 15.4973 26.0426C15.7599 25.8781 15.9902 25.7053 16.14 25.5728C17.0867 24.734 18.0438 23.8143 18.949 22.9199L19.5821 23.89ZM20.578 24.8466C20.578 24.8466 20.2219 24.8641 19.6529 24.0151C19.6529 24.0151 19.2835 24.5066 19.0422 24.6386C19.0422 24.6386 19.907 25.4728 20.578 24.8466ZM21.3481 23.7558C21.3481 23.7558 21.325 23.3366 20.921 22.9222L23.6766 18.2239L23.8703 18.1705L23.7305 16.2962C23.7305 16.2962 23.546 16.1481 23.4249 15.7797C23.3029 15.4109 23.2414 14.6267 23.2414 14.6267C23.2414 14.6267 23.016 14.5727 22.8624 13.8369C22.0855 10.1247 20.373 8.02001 17.0779 6.39285C13.8044 4.86167 10.8746 5.00392 7.65052 6.72145C6.98717 7.07545 6.80136 6.9368 6.80136 6.9368C6.80136 6.9368 6.1602 7.3923 5.79934 7.53531C5.43847 7.67832 5.20599 7.63129 5.20599 7.63129L3.6777 8.7254L3.76153 8.90855L1.92128 14.035C1.34456 13.9904 1.00787 14.2416 1.00787 14.2416C1.02151 14.2212 2.45318 8.35015 2.45318 8.35015L2.77109 8.43739C4.58786 3.36112 7.7891 1.62942 9.64246 0.90268C12.7446 -0.312341 16.4457 0.0639598 19.3526 1.52373C22.3355 2.81838 24.9971 5.41899 26.0521 8.57831C26.6822 10.4669 27.405 14.0343 24.673 18.6821L24.9438 18.8702C24.9438 18.8702 21.3549 23.7324 21.3483 23.7559L21.3481 23.7558ZM17.3344 5.83887C19.7302 6.93429 22.0585 9.09241 23.0631 11.6015C23.7985 13.4369 24.0787 15.9897 24.0787 15.9897C24.0787 15.9897 24.1145 16.2105 23.9499 16.3072L24.0162 18.2089C24.0162 18.2089 26.2075 15.2311 25.9142 11.0887C25.6857 7.87027 23.4628 5.32354 20.9621 3.5886C20.2983 3.14017 19.6123 2.75155 18.9307 2.42748C18.2451 2.11203 17.5061 1.83411 16.7361 1.61188C13.8018 0.804603 10.4224 0.730788 7.80573 2.61843C4.43841 5.0485 3.55659 8.63887 3.55659 8.63887L5.05941 7.47111C5.02731 7.28248 5.22034 7.16867 5.22034 7.16867C5.22034 7.16867 7.35955 5.74773 9.23938 5.13537C11.8091 4.29828 14.958 4.7021 17.335 5.83917L17.3344 5.83887ZM6.31027 9.71844C6.24976 9.66991 6.18594 9.63664 6.11978 9.62645C5.63612 9.55309 4.46192 9.91322 4.46192 9.91322C4.46192 9.91322 4.05795 10.0707 3.91133 11.0652C3.76479 12.0594 3.46062 14.1351 3.46062 14.1351L1.63896 14.258C1.63896 14.258 0.630359 14.3281 0.59772 15.0581C0.564775 15.7886 1.56346 15.6122 1.56346 15.6122L3.32435 15.4041C3.32435 15.4041 3.11055 18.2463 3.07578 19.4049C3.04198 20.5643 3.4368 21.4435 3.65851 21.6291C3.88136 21.815 4.36495 21.9083 4.73859 21.9607C4.95164 21.9902 5.1549 21.923 5.32071 21.8345C5.21772 21.7175 5.13842 21.5767 5.09568 21.414C4.97327 20.9504 5.07787 19.6731 5.1119 19.1646C5.14728 18.6384 5.19035 18.1123 5.23868 17.5869C5.25479 17.4145 5.27153 17.2419 5.28941 17.0695C5.29396 17.0215 5.29945 16.9736 5.30462 16.9253C5.30637 16.9107 5.30957 16.8961 5.31332 16.8827L5.93177 10.4823C5.97322 10.1928 6.10885 9.91873 6.30998 9.71864L6.31027 9.71844ZM3.7728 11.1527C3.57445 11.1875 3.305 11.2627 3.11191 11.4248C2.91109 11.593 2.58541 12.7661 2.31813 14.0852L3.35256 14.0151C3.48732 13.0614 3.63229 12.1066 3.77287 11.1524L3.7728 11.1527ZM2.03729 15.683C1.97638 16.0924 1.92913 16.4824 1.90075 16.8255C1.74435 18.6927 1.89583 19.3262 2.16096 19.6549C2.3002 19.828 2.67815 20.0381 3.00308 20.198C2.96127 19.8911 2.94645 19.6036 2.9517 19.4035C2.98935 18.1396 3.08119 16.8151 3.18776 15.5472L2.03729 15.683ZM0.664563 15.5316C0.664563 15.5316 0.879607 15.8163 1.89573 15.7087C1.89573 15.7087 1.75591 16.3076 1.80859 16.5771C1.80859 16.5771 0.614036 16.448 0.664563 15.5316ZM25.5158 3.44052C25.5158 3.44052 25.0748 3.44727 24.9383 3.73907C24.8022 4.03002 24.8451 4.38127 24.8451 4.38127C24.8451 4.38127 25.7014 5.61051 25.985 5.74316C26.2686 5.87582 26.6289 6.09189 26.8523 6.55152C27.0761 7.01079 29.6434 9.7998 26.3883 17.7443C23.1335 25.689 19.926 25.4428 18.5426 25.2926L18.1915 25.6492C18.1915 25.6492 24.0593 27.2579 27.0291 17.9496C29.9992 8.64122 27.5153 6.05982 27.5153 6.05982C27.5153 6.05982 26.979 5.42942 27.0034 5.18026C27.0278 4.9311 26.4551 3.78775 25.5152 3.44135L25.5158 3.44052Z" fill="#FF8E0A"/>
</svg>
