<svg width="24" height="24" viewBox="0 0 24 24" fill="none" xmlns="http://www.w3.org/2000/svg">
<path d="M23.2925 11.5775L12.9398 1.22982C12.7916 1.08262 12.5912 1 12.3823 1C12.1735 1 11.9731 1.08262 11.8249 1.22982L1.47217 11.5775C1.32033 11.7288 1.20033 11.9089 1.11925 12.1073C1.03818 12.3057 0.997663 12.5183 1.0001 12.7326C1.01015 13.6164 1.74586 14.322 2.62972 14.322H3.69688V22.5002H21.0678V14.322H22.1575C22.5869 14.322 22.9912 14.1538 23.295 13.8499C23.4446 13.7008 23.5631 13.5235 23.6437 13.3283C23.7243 13.133 23.7654 12.9237 23.7645 12.7125C23.7645 12.2856 23.5963 11.8813 23.2925 11.5775ZM13.7885 22.5002H10.9762V15.57H13.7885V22.5002ZM19.2599 12.5141V20.6923H15.3955V14.9673C15.3955 14.4124 14.946 13.9629 14.3911 13.9629H10.3735C9.81862 13.9629 9.36916 14.4124 9.36916 14.9673V20.6923H5.50478V12.5141H3.09425L12.3848 3.23106L21.6729 12.5141H19.2599Z" fill="#26262E"/>
<path d="M19.2599 12.5141V20.6923H15.3955V14.9673C15.3955 14.4124 14.946 13.9629 14.3911 13.9629H10.3735C9.81862 13.9629 9.36916 14.4124 9.36916 14.9673V20.6923H5.50478V12.5141H3.09425L12.3848 3.23106L21.6729 12.5141H19.2599Z" fill="#26262E"/>
</svg>
