<?xml version="1.0" standalone="no"?>
<!DOCTYPE svg PUBLIC "-//W3C//DTD SVG 20010904//EN"
 "http://www.w3.org/TR/2001/REC-SVG-20010904/DTD/svg10.dtd">
<svg version="1.0" xmlns="http://www.w3.org/2000/svg"
 width="548.000000pt" height="512.000000pt" viewBox="0 0 548.000000 512.000000"
 preserveAspectRatio="xMidYMid meet">

<g transform="translate(0.000000,512.000000) scale(0.100000,-0.100000)"
fill="#000000" stroke="none">
<path d="M2635 5101 c-56 -26 -2565 -2539 -2594 -2598 -11 -23 -26 -74 -33
-113 -28 -165 59 -328 217 -406 58 -28 65 -29 238 -32 l177 -4 0 -974 0 -974
870 0 870 0 0 825 0 825 335 0 335 0 0 -825 0 -825 865 0 865 0 0 974 0 974
178 4 c177 3 178 3 243 35 80 39 150 111 187 191 23 49 27 70 27 152 -1 172
117 39 -1319 1479 -881 883 -1283 1279 -1311 1292 -51 24 -99 24 -150 0z"/>
</g>
</svg>
