<svg width="47" height="34" viewBox="0 0 47 34" fill="none" xmlns="http://www.w3.org/2000/svg">
<path d="M22.3688 4.50022C23.3114 4.71082 23.7147 5.45694 24.0354 6.26688C24.248 6.80379 24.7315 7.20938 25.3088 7.22508C25.8541 7.2399 26.3779 7.14917 26.6949 6.68004C26.8401 6.46899 26.9712 6.24911 27.0875 6.02184C27.4435 5.32637 27.0136 4.53329 26.2865 4.24756C25.3067 3.86258 24.3297 3.47328 23.3383 3.16001C23.0634 3.07235 22.7875 2.98839 22.5106 2.90726C22.2401 2.82802 21.9474 2.92256 21.7684 3.14033C21.3721 3.62265 21.7519 4.40448 22.3688 4.50022Z" fill="#FF8E0A"/>
<path d="M29.3119 11.8501C29.3065 11.8288 29.2981 11.8084 29.2894 11.7882C29.2861 11.7805 29.2831 11.7727 29.2804 11.7648C29.2027 11.546 29.1418 11.3125 29.0824 11.0871C29.0142 10.8 28.9277 10.5178 28.8232 10.2423C28.7772 10.1293 28.6218 10.1173 28.5592 10.222C28.2631 10.72 27.9356 11.2433 27.5582 11.8232C27.5135 11.8925 27.5339 11.9853 27.6033 12.0301C28.1167 12.356 28.6687 12.6153 29.2464 12.8038C30.5462 13.0622 31.8714 13.1708 33.1962 13.1272C34.0967 13.1152 34.9972 13.1524 35.8938 13.2386C35.9603 13.2462 36.0236 13.208 36.0478 13.1457L36.1417 12.9044C36.252 12.6221 36.3623 12.3391 36.4697 12.0578C36.5018 11.9743 36.4526 11.8811 36.3653 11.8613C36.014 11.7809 35.6036 11.6852 35.2084 11.5743C35.1541 11.5626 35.1076 11.5258 35.0841 11.4747C35.0814 11.4674 35.079 11.46 35.077 11.4525C35.0461 11.337 35.1141 11.22 35.1458 11.1048L35.1985 10.9132C35.6351 9.30884 36.0869 7.65015 36.0438 5.95212C36.0416 5.88002 35.9876 5.81956 35.9161 5.80995C35.7272 5.78491 35.5386 5.76269 35.3496 5.74292C35.2689 5.73519 35.197 5.79455 35.1886 5.87516C35.0017 7.42491 34.7251 8.96198 34.3603 10.4796C34.2477 10.9888 34.1358 11.5008 34.0294 12.013C34.0237 12.0884 33.9605 12.1465 33.8848 12.1463C33.8522 12.1479 33.8209 12.1609 33.7965 12.1827C33.7605 12.2132 33.714 12.2277 33.6672 12.2246C33.2751 12.2217 32.8791 12.2355 32.4944 12.2492C31.4788 12.3369 30.4558 12.2698 29.4603 12.0504C29.3905 12.0364 29.3371 11.9819 29.3234 11.9138C29.3191 11.8927 29.3173 11.871 29.3119 11.8501Z" fill="#FF8E0A"/>
<path d="M11.9615 9.39645C12.1906 9.69428 11.9267 9.60302 12.346 9.51414C13.3212 9.31077 14.0775 8.65483 14.9033 8.1339C14.9606 8.09836 15.0229 8.06846 15.0865 8.04579C15.2105 8.00154 15.3524 8.02909 15.4518 8.12396C15.4817 8.15109 15.5117 8.17809 15.5417 8.20497C15.8955 8.52134 16.4385 8.45599 16.733 8.08378C16.8638 7.91843 16.9953 7.75348 17.1273 7.58892C17.3675 7.28977 17.1927 6.8392 16.8141 6.77768C16.6274 6.74531 16.4474 6.71308 16.2726 6.68306C16.095 6.66985 15.9216 6.65919 15.7533 6.65109C15.4479 6.64083 15.1433 6.60422 14.8442 6.54139C14.6351 6.49414 14.4362 6.41126 14.2555 6.29574C14.1397 6.20758 14.0828 6.14912 14.0956 6.12304C14.1084 6.09695 14.1908 6.11098 14.3274 6.15671C14.5119 6.2066 14.6999 6.24181 14.89 6.26161C15.1344 6.28079 15.4263 6.2848 15.7632 6.28238C15.932 6.27889 16.1098 6.28262 16.2994 6.29116L16.3162 6.29151L16.3515 6.29682L16.3847 6.29997L16.4534 6.3109L16.593 6.3328C16.6851 6.34914 16.7796 6.36553 16.8767 6.3781C17.2043 6.43452 17.5195 6.49276 17.8102 6.54787C17.8968 6.56427 17.9852 6.53321 18.0415 6.46545C18.1635 6.31853 18.0756 6.09433 17.8861 6.07133C16.9972 5.96349 16.1043 5.89608 15.2092 5.86917C15.1091 5.87138 15.0175 5.82765 14.9559 5.75617C14.8776 5.6653 14.8331 5.54208 14.8225 5.42257C14.8187 5.39021 14.8148 5.35788 14.8107 5.32556C14.7173 4.58335 13.811 4.34259 13.2391 4.82477C12.5999 5.35685 11.6981 6.01003 11.2987 6.82234C11.252 6.91724 11.2693 7.02895 11.2671 7.13468C11.2743 7.21283 11.2772 7.29109 11.2759 7.36913C11.2665 7.92265 11.2767 8.51451 11.6158 8.95204C11.7307 9.1002 11.8462 9.24783 11.9615 9.39645Z" fill="#FF8E0A"/>
<path d="M18.7789 7.06222C18.6324 7.04999 18.4875 7.10265 18.3944 7.21637C18.1828 7.47478 17.9711 7.73342 17.7598 7.99274C17.2149 8.66158 17.3406 9.64372 18.0453 10.1413C18.1495 10.2148 18.2537 10.2882 18.3581 10.3616C18.7158 10.6132 19.1639 10.703 19.5869 10.5919C20.1307 10.4491 20.6711 10.2957 21.2225 10.1848C21.6116 10.1066 21.975 9.9127 22.2073 9.59077C22.2267 9.56382 22.246 9.53678 22.2652 9.50967C22.5531 9.10348 22.5821 8.57689 22.407 8.11085C22.3378 7.92671 22.2716 7.74144 22.2084 7.55513C21.9933 6.92057 21.4251 6.46289 20.7577 6.40352C20.2992 6.36274 19.8417 6.31152 19.3848 6.25639C19.2747 6.2431 19.1653 6.28679 19.0949 6.3725C18.9994 6.48864 18.904 6.60455 18.8085 6.71964C18.7904 6.74141 18.8011 6.77459 18.8285 6.78171C19.3244 6.91016 19.6261 7.01767 19.6155 7.07367C19.6048 7.12966 19.2875 7.12066 18.7789 7.06222Z" fill="#FF8E0A"/>
<path d="M9.08481 12.8729C9.43343 12.4921 9.77812 12.1079 10.1234 11.7249C10.5301 11.2737 10.5384 10.5621 10.1638 10.0841C9.84134 9.67267 9.26236 9.64029 8.86485 9.97967C8.53858 10.2582 8.23029 10.5578 7.94185 10.8767C7.84862 10.9833 7.75547 11.089 7.66234 11.1939C7.03028 11.9055 7.06209 13.3073 8.0103 13.3896C8.35147 13.4193 8.7046 13.2879 9.08481 12.8729Z" fill="#FF8E0A"/>
<path d="M16.134 4.52692C16.1019 4.13695 16.0372 3.7505 15.9408 3.37145C15.8636 3.06099 15.8058 2.74601 15.7669 2.42831C15.754 2.30362 15.6013 2.25061 15.5142 2.34079C15.3238 2.53742 15.1365 2.73658 14.9527 2.93616C14.9185 2.97267 14.9053 3.02404 14.9176 3.0725L14.9179 3.07387C15.1054 3.76822 15.2506 4.47358 15.3534 5.18587C15.3625 5.25711 15.4224 5.3117 15.4942 5.3132C16.6451 5.35173 17.8154 5.49608 18.8484 5.62349C18.8972 5.62935 18.9461 5.60995 18.978 5.57245C19.072 5.46234 19.1668 5.34944 19.2853 5.20857C19.3636 5.11539 19.3019 4.97285 19.1804 4.96615L18.6527 4.93706C17.9211 4.89607 17.1642 4.8535 16.4168 4.83186C16.3557 4.83413 16.2984 4.80607 16.2631 4.75814C16.2497 4.74004 16.2384 4.72041 16.2241 4.70304C16.213 4.68951 16.2002 4.67743 16.1883 4.66456C16.154 4.62729 16.1344 4.57818 16.134 4.52692Z" fill="#FF8E0A"/>
<path d="M29.4961 10.0852C29.4314 10.0953 29.3913 10.1599 29.4126 10.2219C29.5114 10.5094 29.5855 10.8053 29.6665 11.0994C29.7436 11.3795 29.9718 11.5921 30.2592 11.6347C30.9412 11.7357 31.6361 11.7191 32.3295 11.6924C33.0345 11.6651 33.6497 11.1761 33.8027 10.4874C34.0709 9.28123 34.2977 8.06631 34.4829 6.84463C34.5663 6.29479 34.1571 5.79682 33.6012 5.78243C33.0562 5.76832 32.6235 6.22555 32.5202 6.76088C32.2183 8.32654 31.116 9.82042 29.4961 10.0852ZM33.2999 8.90648C33.2999 8.90591 33.2999 8.90534 33.3 8.90478C33.4139 8.21218 33.4885 7.59482 33.6073 7.60226C33.7091 7.60896 33.8178 8.19977 33.6963 8.97159C33.563 9.71403 33.3433 10.2765 33.238 10.255C33.1327 10.2334 33.1709 9.62693 33.2997 8.90836C33.2998 8.90774 33.2998 8.90711 33.2999 8.90648Z" fill="#FF8E0A"/>
<path d="M14.7799 10.341C14.7326 10.3203 14.678 10.3279 14.6373 10.3596C13.2681 11.4286 12.0698 12.6927 10.7777 13.8543C10.4278 14.1688 10.4492 14.7299 10.8361 14.9975C11.1722 15.2298 11.6368 15.1311 11.85 14.7826C12.0491 14.4572 12.2516 14.1326 12.4603 13.8125C13.1957 12.6818 14.0129 11.6173 14.8318 10.554C14.8872 10.4821 14.863 10.3774 14.7799 10.341Z" fill="#FF8E0A"/>
<path d="M16.6263 11.678C16.0125 11.1835 15.1455 11.2689 14.6732 11.9C13.949 12.8675 13.266 13.8657 12.6262 14.8918C12.3125 15.4165 12.4635 16.0997 12.987 16.4154C13.8863 16.9577 14.8186 17.4367 15.7932 17.7709C16.6783 18.0744 17.5013 17.3504 17.4559 16.4158C17.4048 15.3648 17.3451 14.3144 17.3898 13.2647C17.4158 12.6516 17.1042 12.063 16.6263 11.678ZM16.0669 17.0524C15.5515 16.7486 15.018 16.4777 14.469 16.2403C14.0499 16.0716 13.7954 15.9711 13.809 15.9239C13.8192 15.8848 14.0895 15.9038 14.5358 16.0084C14.8023 16.0832 15.0645 16.172 15.3213 16.2745C15.6121 16.3904 15.9421 16.1765 15.93 15.8637C15.8656 15.0096 15.8899 14.1514 16.0026 13.3024C16.0368 13.1412 16.0658 12.9942 16.0927 12.8637C16.1282 12.738 16.1687 12.6292 16.1988 12.542C16.2616 12.3694 16.3112 12.2777 16.3373 12.2852C16.3634 12.2928 16.3682 12.3976 16.3501 12.5782C16.3412 12.6662 16.3295 12.7745 16.3149 12.9042C16.3002 13.0339 16.2948 13.1754 16.2841 13.3343C16.2554 14.1717 16.2714 15.0101 16.3313 15.8458C16.3475 16.2059 16.3521 16.5545 16.3522 16.8852L16.3522 16.8896C16.3534 17.0367 16.1929 17.1283 16.0669 17.0524Z" fill="#FF8E0A"/>
<path d="M10.8286 16.4573C10.8954 16.4973 10.9822 16.4771 11.0253 16.4123C11.09 16.3125 11.1545 16.2098 11.2169 16.1078C11.2577 16.0408 11.2394 15.9525 11.1745 15.9084C10.8099 15.6646 10.4489 15.4143 10.092 15.1675L9.42614 14.7102C9.36599 14.6734 9.33027 14.6066 9.3328 14.536C9.33628 14.4535 9.37919 14.3778 9.44772 14.3325C9.48072 14.3129 9.50495 14.2808 9.51471 14.2437C9.52667 14.2077 9.54904 14.1759 9.57893 14.1529C10.3275 13.5355 11.0385 12.8583 11.7255 12.2033C12.5858 11.3517 13.4947 10.5501 14.4469 9.80295C14.4723 9.78303 14.504 9.77288 14.5362 9.77425C14.5853 9.77635 14.6317 9.75173 14.6575 9.7099L14.66 9.70584C14.6734 9.68379 14.7143 9.67621 14.7352 9.69145C14.7539 9.70511 14.7716 9.72015 14.7882 9.73664L14.8208 9.7647C14.8325 9.77478 14.8451 9.78384 14.8583 9.79176C14.8695 9.79838 14.881 9.80422 14.893 9.80905C14.9352 9.82605 14.9771 9.84139 15.0185 9.85671C15.1151 9.88966 15.2088 9.93133 15.2978 9.98062C15.3623 10.0192 15.4463 10.0021 15.4918 9.94218C15.6032 9.79273 15.7169 9.64403 15.8476 9.47179L15.8873 9.4186C15.9346 9.35511 15.9235 9.26561 15.8621 9.21561C15.6586 9.05042 15.4588 8.87864 15.2625 8.70657L15.2607 8.70503C15.2114 8.662 15.1397 8.65667 15.0846 8.69195C14.9298 8.7906 14.7765 8.89244 14.6234 8.99429C13.7854 9.55049 12.9928 10.0756 12.0033 10.1635C11.8571 10.1741 11.7856 10.09 11.6606 9.92368C11.6276 9.88012 11.5942 9.83621 11.5593 9.79507C11.2309 9.40908 10.9392 9.00944 10.6729 8.63524C10.6256 8.56908 10.5336 8.55389 10.4675 8.60132L10.0653 8.89008C9.99065 8.94368 9.98222 9.0516 10.0477 9.11614C10.2632 9.33885 10.4645 9.57426 10.6516 9.82097C10.8842 10.1343 11.1442 10.4261 11.4288 10.6925C11.4849 10.744 11.5304 10.8133 11.5418 10.8886C11.5514 10.9522 11.5319 11.0191 11.484 11.0678C11.1415 11.4359 10.8063 11.8097 10.4707 12.1836C10.223 12.4602 9.9749 12.7371 9.72371 13.0112C9.66387 13.0763 9.60321 13.1471 9.5397 13.2203C9.30548 13.553 8.98554 13.8158 8.61439 13.9809C7.81514 14.209 7.17348 13.7504 6.49284 13.2646C6.32897 13.1477 6.16684 13.0315 6.00272 12.9265C5.94464 12.8892 5.86837 12.8974 5.81954 12.9462C5.7287 13.0371 5.63544 13.1265 5.54218 13.2159L5.4509 13.3036C5.37599 13.3756 5.39712 13.5004 5.49154 13.5437C7.32087 14.4186 9.10271 15.3912 10.8286 16.4573Z" fill="#FF8E0A"/>
<path d="M16.3238 1.75103C16.3093 1.76507 16.3055 1.78623 16.3103 1.80583C16.3198 1.84402 16.3229 1.88338 16.3197 1.92239C16.2943 2.28538 16.3435 2.64064 16.4143 2.99387C16.5623 3.73312 17.2248 4.29556 17.9776 4.33713C18.3722 4.35892 18.7666 4.38231 19.1614 4.40365C19.5305 4.42361 19.8871 4.26714 20.1255 3.98455C20.6823 3.32438 20.3622 2.31852 19.5147 2.1525C18.4748 1.94882 17.4228 1.80986 16.3647 1.73646C16.3496 1.73541 16.3347 1.74055 16.3238 1.75103Z" fill="#FF8E0A"/>
<path d="M38.207 30.0917C39.006 30.4916 39.9506 30.0619 40.1598 29.1933C40.4289 28.0763 40.6345 26.9313 40.9168 25.8387C41.0803 25.2032 40.7494 24.5353 40.1652 24.2365C39.394 23.8422 38.6279 23.441 37.7472 23.4522C37.7357 23.4525 37.7242 23.4522 37.7129 23.4515C37.6577 23.4476 37.6016 23.445 37.5463 23.448C37.2628 23.4653 36.9801 23.4878 36.6981 23.5149C36.1266 23.5699 35.9739 24.2386 36.5145 24.432C36.612 24.4622 36.6874 24.5337 36.7255 24.623C36.7676 24.7219 36.7936 24.8334 36.8029 24.9405C36.8742 26.0836 36.8875 27.2295 36.8427 28.3736C36.8197 28.9584 37.1105 29.5174 37.6271 29.7923C37.8191 29.8946 38.0124 29.9943 38.207 30.0917ZM37.4795 27.5224C37.4798 27.4938 37.4804 27.4651 37.4814 27.4365C37.5035 26.7742 37.7506 26.7847 37.7544 27.4474C37.7546 27.4752 37.7547 27.5034 37.7549 27.5321C37.7568 27.7257 37.7685 27.9192 37.7903 28.1118C37.8005 28.2118 37.8212 28.3103 37.8528 28.4058C37.8559 28.4158 37.8593 28.4256 37.8631 28.4354C37.8824 28.486 37.8982 28.5593 37.9513 28.5699C37.9631 28.5726 37.9654 28.5796 37.99 28.5942C38.1984 28.7082 38.4188 28.7989 38.6464 28.8655C38.8261 28.9245 39.0016 28.9948 39.1721 29.0761C39.2033 29.091 39.2426 29.0776 39.2547 29.0452C39.374 28.781 39.4513 28.5012 39.5398 28.2388C39.6116 27.9684 39.6909 27.7107 39.746 27.4561C39.8706 26.9538 39.9706 26.4935 40.0711 26.1098C40.2725 25.3372 40.4788 24.8844 40.5279 24.8995C40.5842 24.92 40.4783 25.3939 40.349 26.1681C40.2841 26.5574 40.2134 27.0205 40.1067 27.5375C40.062 27.7959 39.9888 28.0659 39.9189 28.3459C39.8382 28.6362 39.7408 28.9212 39.6268 29.1999C39.5856 29.2967 39.5472 29.3911 39.507 29.488C39.4583 29.6061 39.3098 29.6443 39.2102 29.5642L39.1995 29.5556C38.9882 29.4159 38.7583 29.3064 38.5169 29.2304C38.2578 29.1477 38.0099 29.0328 37.779 28.8889C37.7424 28.8631 37.7087 28.8336 37.6786 28.8007C37.6553 28.7763 37.6345 28.7495 37.6162 28.7207C37.5741 28.6551 37.5431 28.5828 37.5237 28.5072C37.4912 28.3878 37.472 28.2647 37.4669 28.1413C37.4583 27.9349 37.4623 27.728 37.4795 27.5224Z" fill="#FF8E0A"/>
<path d="M35.3161 28.5471C35.3074 28.6078 35.337 28.6677 35.3905 28.6977L35.392 28.6986C35.5543 28.7899 35.7152 28.8821 35.8764 28.9751C36.039 29.068 36.2422 28.9551 36.2492 28.768L36.265 28.3448C36.3327 27.2388 36.3275 26.1294 36.2499 25.0242C36.2448 24.9689 36.2088 24.9211 36.1572 24.9007C35.4685 24.6153 34.8403 24.2016 34.3057 23.6813C34.2678 23.6503 34.2453 23.6045 34.2446 23.5556C34.2404 23.5236 34.2302 23.4926 34.2246 23.4607C34.2209 23.4394 34.2204 23.4176 34.2232 23.3962C34.2289 23.3515 34.2522 23.3085 34.2907 23.2852C34.3118 23.2724 34.3359 23.2646 34.3611 23.2629C35.4363 23.0827 36.4163 22.9638 37.3579 22.8989C37.4265 22.8942 37.4825 22.8412 37.4918 22.7731C37.5681 22.3249 37.69 21.8855 37.8558 21.4621L37.956 21.1736C38.1155 20.6453 38.2176 20.1019 38.2603 19.5518C38.2853 19.3289 38.3089 19.1049 38.3444 18.8815C38.3535 18.8212 38.3247 18.7613 38.2719 18.731C37.7527 18.3975 37.2814 17.9955 36.8698 17.535C36.4367 17.0495 35.9368 16.6283 35.3855 16.284C35.3089 16.2407 35.2116 16.2743 35.1781 16.3557L34.859 17.1322C34.8396 17.1792 34.8456 17.2328 34.8749 17.2743C35.2856 17.7741 35.791 18.1877 36.3616 18.4914C36.6594 18.668 36.9463 18.8634 37.2194 19.0768C37.2451 19.0925 37.2741 19.1023 37.3 19.1175C37.3275 19.1337 37.3499 19.158 37.3638 19.1877C37.3843 19.231 37.3843 19.2816 37.3641 19.3251C37.2437 19.6746 37.1479 20.032 37.078 20.3953C36.8678 21.3673 36.6871 22.2065 35.5451 22.4312C34.751 22.5502 33.9399 22.4851 33.1745 22.2413C33.0977 22.2213 33.0189 22.2657 32.9963 22.3416L32.9458 22.5109C32.8855 22.7138 32.8241 22.9174 32.7673 23.1256C32.7248 23.2821 32.6823 23.4355 32.6399 23.5909L32.6161 23.6764C32.5985 23.7395 32.625 23.8067 32.6808 23.8409C33.4877 24.3367 34.3331 24.8987 35.2663 25.5591C35.3008 25.5827 35.3278 25.6163 35.3431 25.6556L35.3433 25.6563C35.3525 25.6795 35.3674 25.7002 35.3866 25.7162C35.4303 25.754 35.4536 25.8104 35.4496 25.8683C35.4462 26.0316 35.4463 26.1943 35.4453 26.3569C35.4611 27.0891 35.4181 27.8215 35.3161 28.5471Z" fill="#FF8E0A"/>
<path d="M34.8929 26.5696C34.8951 26.1981 34.7081 25.8525 34.4024 25.6413C34.2351 25.5256 34.0672 25.411 33.8987 25.2975C33.2294 24.8466 32.3274 25.1914 32.0333 25.9429C31.8316 26.458 31.9678 27.058 32.4668 27.2967C32.7205 27.4181 32.9898 27.5252 33.2632 27.6271C34.0218 27.9095 34.8882 27.379 34.8929 26.5696Z" fill="#FF8E0A"/>
<path d="M42.64 13.5317C43.3909 13.9754 44.3834 13.6304 44.6718 12.8073C44.871 12.2389 45.0448 11.6644 45.1448 11.0757C45.2349 10.5457 44.8561 10.0774 44.342 9.91978C43.462 9.64988 42.3815 10.3757 42.1878 11.2756C42.1405 11.4958 42.0855 11.7149 42.0259 11.9324C41.8572 12.5474 42.0909 13.2072 42.64 13.5317Z" fill="#FF8E0A"/>
<path d="M11.7726 18.1856C11.7114 18.2762 11.7379 18.4014 11.8334 18.4548C13.1487 19.1894 14.447 19.9609 15.7429 20.7195C15.9811 20.859 16.216 21.0081 16.4497 21.1622C16.9029 21.4612 17.4689 21.1392 17.3997 20.6007C17.3686 20.3582 17.2107 20.149 16.9811 20.0652C15.3233 19.4598 13.4751 19.1821 12.0457 18.1374C11.958 18.0733 11.8334 18.0956 11.7726 18.1856Z" fill="#FF8E0A"/>
<path d="M19.1865 20.1581C19.9665 20.445 20.7795 20.6314 21.6062 20.7127C21.6684 20.7197 21.7282 20.6867 21.7555 20.6304L21.8484 20.4388C21.9747 20.1783 21.8086 19.8705 21.5214 19.8332C21.0193 19.7805 20.5208 19.697 20.0287 19.5834L19.9744 19.5696C19.8421 19.5524 19.7153 19.5092 19.601 19.4427C19.5001 19.3839 19.4183 19.2961 19.3669 19.1912C19.1956 18.842 19.2115 18.3806 19.2279 17.9331C19.235 17.7266 19.2423 17.5314 19.2311 17.3475C19.2032 16.8725 19.1739 16.3983 19.1433 15.9244C19.0766 14.8945 19.0075 13.8299 18.9738 12.7818C18.9728 12.7471 18.9592 12.7137 18.9359 12.6879C18.8989 12.6506 18.8782 12.6003 18.8793 12.5476C18.8858 12.5027 18.9115 12.4632 18.9495 12.4387C19.5787 11.9372 20.4449 11.8759 21.2826 11.8162C21.5807 11.795 21.8886 11.7727 22.1702 11.7326C22.2141 11.7232 22.2559 11.7049 22.3 11.6963C22.3449 11.6876 22.3919 11.6922 22.4351 11.7104C22.4825 11.7359 22.5155 11.7827 22.5235 11.8362C22.7021 12.451 23.0328 13.0109 23.4845 13.4635C23.5874 13.5837 23.6898 13.7063 23.7905 13.8311C23.9965 14.1088 24.173 14.4072 24.317 14.7216C24.3704 14.8284 24.4246 14.936 24.4825 15.0455C24.4977 15.0725 24.5129 15.0967 24.5278 15.1213L24.5536 15.1642C24.6091 15.2569 24.7423 15.2599 24.802 15.1699C24.9684 14.9165 25.1372 14.6653 25.3087 14.4145C25.3854 14.3005 25.4641 14.187 25.555 14.0567C25.5983 13.9942 25.587 13.909 25.5291 13.8598C23.7526 12.3469 23.0803 10.9495 23.5339 9.70638C23.8082 8.94793 24.7467 8.65631 25.501 8.42233C25.6011 8.3914 25.6983 8.36077 25.7907 8.33073C27.4841 7.77898 28.5768 6.66933 28.8689 5.19755C28.8718 5.1825 28.8727 5.16704 28.8716 5.15174C28.8666 5.08146 28.8199 5.02105 28.7532 4.99839L28.7398 4.99385C28.5896 4.94432 28.439 4.89514 28.2885 4.84314C28.2069 4.81518 28.1183 4.86343 28.0983 4.94737C27.9116 5.88791 27.4481 6.75166 26.7687 7.42642C26.2401 7.88756 25.4165 7.80845 24.6875 7.73941C24.4879 7.72012 24.2961 7.70204 24.1166 7.69477C24.0435 7.69543 23.9789 7.65411 23.9475 7.59186C23.9297 7.55668 23.9214 7.51729 23.9054 7.48128C23.8307 7.30333 23.7674 7.11789 23.702 6.93136C23.5764 6.52396 23.405 6.13177 23.1907 5.76365C22.7161 5.01831 22.094 5.03233 21.4358 5.04558C21.2964 5.04828 21.1549 5.05269 21.0044 5.04708C20.7038 5.03832 20.4058 5.02505 20.1077 5.01142C20.0623 5.01047 20.0187 5.03021 19.9893 5.0648C19.9089 5.15939 19.8284 5.25537 19.7505 5.35072L19.6363 5.48729C19.5605 5.57804 19.6159 5.71671 19.7334 5.73018C20.4191 5.80815 21.2314 5.89229 22.055 5.92221C22.0718 5.92256 22.0882 5.92536 22.1038 5.93026C22.124 5.93624 22.1452 5.93778 22.1661 5.93478L22.1664 5.93473C22.2122 5.9241 22.261 5.9332 22.3 5.96002C22.339 5.98684 22.3647 6.02884 22.3714 6.07571C22.5589 6.88671 22.8165 7.67953 23.1415 8.44523L23.266 8.76348C23.2913 8.82801 23.3362 8.89428 23.3169 8.96084C23.3071 8.99507 23.2838 9.02339 23.2526 9.03925L23.2412 9.04593C23.2146 9.06157 23.1957 9.08762 23.1891 9.11779C23.1869 9.12746 23.1836 9.13681 23.1789 9.14556C23.0358 9.41587 22.8633 9.66948 22.6645 9.90145C22.5 10.1 22.3492 10.3098 22.2133 10.529C22.1913 10.5772 22.1492 10.6108 22.1008 10.623C22.0467 10.6368 21.989 10.6248 21.9332 10.6285C21.2836 10.7175 20.6423 10.8601 20.0157 11.0535C19.6416 11.1581 19.2553 11.2663 18.8722 11.3486C18.7972 11.3681 18.7176 11.3408 18.6709 11.2787C18.6427 11.2434 18.6092 11.2126 18.5717 11.1873L18.1256 10.8871C17.5669 10.4938 16.9897 10.087 16.4377 9.66591C16.4275 9.65817 16.4165 9.65162 16.4049 9.64638C16.3356 9.61523 16.254 9.635 16.2067 9.6944L16.1976 9.70576C16.0767 9.86063 15.9559 10.0099 15.8351 10.1634C15.7851 10.2276 15.7965 10.3202 15.8605 10.3705C16.022 10.4986 16.1785 10.6326 16.335 10.7669C16.7738 11.1823 17.2732 11.5273 17.816 11.7909C17.8483 11.8042 17.8769 11.8256 17.8991 11.8531C17.9171 11.8755 17.9415 11.8921 17.9688 11.9009C18.003 11.9104 18.0312 11.9335 18.0484 11.9648C18.0818 12.0261 18.0548 12.1015 18.048 12.171C17.9163 13.5058 17.9042 14.85 18.0113 16.1873C18.0485 16.9386 18.0875 17.7149 18.081 18.4747C18.0802 18.4993 18.0758 18.5234 18.0683 18.5468C18.0627 18.5622 18.0604 18.5786 18.0616 18.595L18.0617 18.5966C18.0681 18.6554 18.0494 18.7144 18.0096 18.7581C17.9729 18.7908 17.9232 18.8055 17.8747 18.7971C15.5416 18.5855 13.4809 17.4183 11.7729 16.3042C11.704 16.2594 11.6111 16.2802 11.5667 16.3494C11.2172 16.9053 10.9158 17.3551 10.619 17.7652C10.5667 17.8375 10.5898 17.9393 10.6683 17.9818L10.7916 18.0485C10.8467 18.0796 10.9024 18.1106 10.9599 18.141C11.0229 18.1741 11.1007 18.1573 11.1442 18.1009C11.2788 17.9259 11.3993 17.7405 11.5039 17.5459C11.5231 17.5126 11.5531 17.4872 11.5891 17.4739C11.6149 17.4632 11.6371 17.4453 11.653 17.4223L11.6535 17.4215C11.6951 17.3616 11.7593 17.3218 11.8312 17.3117C11.892 17.3042 11.9525 17.3255 11.9949 17.3696C13.0113 18.3105 14.3753 18.6992 15.6941 19.0757C16.3986 19.2588 17.0899 19.4893 17.763 19.767C17.8646 19.8127 17.9211 19.9235 17.8985 20.033L17.8985 20.0333C17.8968 20.0459 17.8966 20.0586 17.8977 20.0712C17.919 20.2744 17.9449 20.4766 17.9707 20.6792C18.0534 21.1971 18.0897 21.7214 18.079 22.2461C18.0786 22.2633 18.0758 22.2805 18.0706 22.2969C18.0534 22.3597 18.0792 22.4271 18.1344 22.4616C18.3175 22.5768 18.5025 22.6868 18.6905 22.7881C18.7849 22.8398 18.9011 22.7753 18.9081 22.6679C18.9434 22.1177 18.951 21.5568 18.9577 21.0162L18.9682 20.5148C18.9686 20.4967 18.9673 20.4786 18.9644 20.4608C18.962 20.446 18.9581 20.4315 18.9547 20.4169C18.9352 20.3335 18.9582 20.2449 19.0169 20.1815C19.063 20.1386 19.1307 20.1295 19.1865 20.1581Z" fill="#FF8E0A"/>
<path d="M31.1667 21.6388C31.0612 21.6089 30.9611 21.7005 30.9816 21.8082L30.9821 21.8106C31.0564 22.1569 31.1019 22.5092 31.1172 22.8633C31.1187 22.9165 31.1484 22.9651 31.1951 22.9904C31.4822 23.1433 31.7674 23.3007 32.0479 23.4633C32.1308 23.5115 32.2368 23.4685 32.2627 23.3762L32.4015 22.8815C32.4625 22.6628 32.5238 22.4435 32.5861 22.2252C32.6083 22.1476 32.5643 22.0663 32.487 22.0428C32.3078 21.9888 32.1301 21.9335 31.9544 21.8785C31.6855 21.7927 31.4236 21.7106 31.1667 21.6388Z" fill="#FF8E0A"/>
<path d="M5.32011 15.3521C5.11901 15.3243 4.88457 15.2836 4.62917 15.2568C4.56732 15.2509 4.50333 15.2471 4.43933 15.2429C4.41849 15.2416 4.39743 15.2411 4.37689 15.2412C4.29999 15.2413 4.22336 15.251 4.14727 15.2622C4.11277 15.2672 4.07863 15.2726 4.04711 15.2793C3.98751 15.2999 3.92876 15.3127 3.86562 15.3353C3.62261 15.4267 3.64208 15.7722 3.88891 15.8528C5.79489 16.4748 7.74914 16.9362 9.6628 17.5387C9.86826 17.6033 10.0933 17.5329 10.2186 17.3577C10.3841 17.1264 10.3147 16.8052 10.0718 16.6572C8.43709 15.6615 6.74893 14.7556 5.01594 13.9434C5.01392 13.9424 5.01203 13.9412 5.01024 13.9399C5.00095 13.9328 4.9882 13.9347 4.97956 13.9426C4.64761 14.2427 4.30865 14.5329 3.95622 14.8151C3.92332 14.8415 3.95015 14.8958 3.99097 14.8853C4.06972 14.8701 4.14092 14.8646 4.21251 14.8566C4.36986 14.85 4.52754 14.8611 4.6824 14.89C4.91986 14.9371 5.15455 14.9993 5.38438 15.0765C5.77097 15.2086 5.99921 15.3111 5.99073 15.3647C5.9826 15.4183 5.72012 15.4117 5.32011 15.3521Z" fill="#FF8E0A"/>
<path d="M28.6346 17.7613C28.6466 17.7143 28.6491 17.6643 28.6676 17.6194C28.678 17.5941 28.6936 17.5711 28.7137 17.552C28.752 17.5155 28.8028 17.4962 28.8549 17.498C29.9405 17.474 31.0231 17.3766 32.0957 17.2061C32.8506 17.1039 33.6294 16.9966 34.4022 16.9467C34.4571 16.9431 34.5054 16.9091 34.5273 16.8587C34.559 16.7859 34.5885 16.7127 34.6276 16.6173C34.6744 16.5086 34.7197 16.4 34.7651 16.2909L34.8574 16.0702C34.8656 16.0505 34.8715 16.0299 34.8749 16.0088L34.8773 15.9941C34.8803 15.9757 34.8804 15.9569 34.8775 15.9384L34.8742 15.9167C34.8627 15.8417 34.7979 15.7866 34.7221 15.7873C34.4773 15.7906 34.2335 15.809 33.9909 15.8425C31.0709 16.2497 28.6746 16.1956 26.4827 14.6079C26.3527 14.5134 26.2165 14.4115 26.0742 14.3017C26.0075 14.2502 25.911 14.2656 25.8634 14.3352C25.5788 14.7519 25.299 15.1691 25.0242 15.5871C24.9842 15.6479 24.9942 15.7291 25.0482 15.778C25.6994 16.3654 26.5424 16.4713 27.4346 16.5831C27.5886 16.6025 27.7444 16.6219 27.9039 16.6446C27.9731 16.654 28.0318 16.6929 28.0682 16.7474C28.122 16.8279 28.1329 16.9477 28.0688 17.0201C28.0512 17.04 28.0286 17.0558 28.0023 17.0654C27.9489 17.077 27.9062 17.1175 27.8922 17.1703C27.7191 17.894 27.6217 18.634 27.6008 19.3777C27.575 19.7935 27.5481 20.2237 27.4927 20.6439C27.491 20.6674 27.486 20.6903 27.4781 20.712C27.4493 20.7912 27.3726 20.8482 27.2887 20.8562C27.2606 20.8589 27.2321 20.8571 27.2041 20.8508C26.3052 20.7044 25.3964 20.5276 24.5169 20.357C23.8941 20.2361 23.2713 20.1148 22.6475 20.003C22.5825 19.9914 22.5178 20.0245 22.4891 20.084L22.2524 20.574C22.2071 20.6677 22.27 20.7776 22.3737 20.786C22.6803 20.8107 22.9876 20.8312 23.2946 20.8514C24.5349 20.8823 25.766 21.0652 26.9614 21.3969C26.9768 21.4022 26.9914 21.4088 27.0053 21.4167C27.0172 21.4236 27.029 21.4307 27.0414 21.4366C27.0585 21.4446 27.0767 21.4502 27.0944 21.4568C27.1381 21.4731 27.1755 21.5037 27.2003 21.5442C27.2297 21.593 27.2383 21.6515 27.2238 21.7067C27.0597 22.4566 26.9781 23.2226 26.9799 23.9903C26.9732 24.6089 26.9207 25.2262 26.8228 25.8372C26.8086 25.913 26.8554 25.9871 26.9299 26.0067C27.2364 26.0873 27.5457 26.1609 27.8577 26.2275L27.8715 26.2306C27.9546 26.2492 28.034 26.1871 28.0357 26.1019C28.0359 26.093 28.037 26.0842 28.0389 26.0756C28.3543 24.6444 28.4703 23.1766 28.3844 21.7137C28.3179 20.3909 28.4018 19.0649 28.6346 17.7613Z" fill="#FF8E0A"/>
<path d="M41.5105 8.73865C41.507 8.72741 41.5013 8.71606 41.4906 8.7112C41.3086 8.62884 41.1284 8.54727 40.951 8.46938C40.9441 8.46576 40.9358 8.46963 40.9345 8.47727C40.7171 9.73344 41.0027 11.804 39.8838 12.6085C39.4789 12.9004 39.0235 12.6593 38.594 12.5386C38.2124 12.4318 37.8279 12.3401 37.4428 12.2523C37.1951 12.1958 36.9437 12.3306 36.8524 12.5677C36.7319 12.8804 36.9356 13.2251 37.2645 13.2892C38.2791 13.487 39.2606 13.8317 40.1783 14.3135C41.0492 14.799 41.7611 15.5097 42.5575 16.094C42.9641 16.3924 43.5112 16.1581 43.6582 15.6757C43.766 15.3219 43.6231 14.9393 43.304 14.7522C42.5646 14.3187 41.8205 13.8926 41.0988 13.4302C40.9609 13.3451 40.8972 13.1775 40.9435 13.0218C41.3852 11.6636 41.9101 10.1665 41.5105 8.73865Z" fill="#FF8E0A"/>
<path d="M29.6215 9.31873C30.3261 9.04363 30.9254 8.5513 31.3334 7.91267C31.6303 7.44798 31.8148 6.92325 31.8759 6.38025C31.9147 6.03612 31.6207 5.76497 31.2744 5.763C30.9879 5.76137 30.7344 5.94415 30.6387 6.21427C30.2954 7.18363 29.8808 8.12629 29.3982 9.03412C29.3125 9.19529 29.4494 9.37965 29.6215 9.31873Z" fill="#FF8E0A"/>
<path d="M22.5204 2.31138C22.8465 2.40816 23.1735 2.50813 23.498 2.61436C24.374 2.90046 25.2613 3.24828 26.1188 3.58496C27.4718 4.15266 28.8631 4.62453 30.2821 4.99617C30.3586 5.01445 30.4361 4.96803 30.4573 4.89233C30.4785 4.81407 30.4973 4.73576 30.5158 4.65744L30.5496 4.519C30.5701 4.43556 30.5157 4.35224 30.4311 4.33734C30.4021 4.33217 30.3743 4.3221 30.3494 4.30647C29.2742 3.68416 28.1042 3.24327 26.8865 3.00168C25.5172 2.65149 24.224 2.32081 23.1361 1.45476C23.0721 1.40432 22.9791 1.41567 22.9286 1.47957C22.8272 1.60675 22.7244 1.73354 22.622 1.85964L22.4467 2.07846C22.3812 2.16018 22.4198 2.28221 22.5204 2.31138Z" fill="#FF8E0A"/>
<path d="M31.955 5.19949C34.1285 5.20781 36.3759 5.21732 38.4277 5.98835C38.5068 6.0182 38.5947 5.9752 38.6197 5.89442L38.8111 5.27564C38.839 5.18549 38.776 5.09276 38.6819 5.08538C37.7693 4.99598 36.8625 4.85435 35.9663 4.66094C34.3923 4.35247 32.7638 4.03163 31.1229 4.30677C31.0646 4.31663 31.0177 4.36089 31.004 4.41847C30.9574 4.61847 30.9113 4.81427 30.8599 5.0096C30.8353 5.1027 30.9044 5.19429 31.0006 5.19631C31.3175 5.19663 31.635 5.1998 31.955 5.19949Z" fill="#FF8E0A"/>
<path d="M43.0037 18.06C43.1166 17.6229 42.9106 17.1668 42.5392 16.9102C41.6112 16.269 40.8291 15.4327 39.807 14.9223C38.8846 14.4686 37.9055 14.145 36.897 13.959C36.5702 13.8988 36.2528 14.0867 36.1295 14.3953C35.9533 14.8362 36.2431 15.3249 36.6944 15.472C36.8518 15.5234 37.0068 15.5826 37.1587 15.6495C38.2346 16.1021 39.2511 16.6842 40.1868 17.3833C40.6457 17.7389 41.0757 18.1285 41.5052 18.5188C42.0236 18.99 42.8285 18.7382 43.0037 18.06Z" fill="#FF8E0A"/>
<path d="M37.4123 11.1134C37.3401 11.3061 37.4565 11.5192 37.6572 11.5648C38.0475 11.6516 39.4033 12.2826 39.6637 11.759C40.126 10.8353 40.0551 9.74545 40.1807 8.7192C40.2225 8.37827 40.0617 8.03822 39.7732 7.85179C39.3043 7.54871 38.6234 7.71641 38.4423 8.24466C38.113 9.20565 37.7686 10.1618 37.4123 11.1134Z" fill="#FF8E0A"/>
<path d="M19.8443 23.7554C18.8671 23.3878 17.947 22.8826 17.1114 22.2554C16.6885 21.9683 16.251 21.6714 15.8017 21.4083C15.4205 21.186 15.0393 20.9626 14.6582 20.7382C13.2853 19.9325 11.8659 19.0992 10.4424 18.3347C10.4096 18.3171 10.3712 18.3126 10.3352 18.3223C10.3172 18.3272 10.2986 18.3289 10.2801 18.3274C10.2312 18.3238 10.1835 18.3445 10.1529 18.3828C10.0497 18.512 9.94197 18.6394 9.83497 18.7668L9.80973 18.7965C9.75876 18.8564 9.76387 18.9458 9.82134 18.9995C12.5916 21.5919 16.0672 23.1545 19.3923 24.5326C19.4551 24.5585 19.5274 24.5381 19.5674 24.4833C19.6885 24.3175 19.8097 24.1493 19.9236 23.9792C19.9779 23.8975 19.9376 23.7859 19.8443 23.7554Z" fill="#FF8E0A"/>
<path d="M19.8098 23.1418C20.0376 23.2227 20.2868 23.1226 20.4078 22.9133C20.5679 22.6363 20.7217 22.3559 20.8711 22.0729C21.0846 21.6683 20.8185 21.1796 20.3705 21.0867C19.9421 20.9978 19.5214 21.3078 19.5111 21.7451C19.5044 22.034 19.4943 22.323 19.4766 22.6121C19.4624 22.8438 19.591 23.0642 19.8098 23.1418Z" fill="#FF8E0A"/>
<path d="M9.57925 18.1065C8.64954 17.8115 7.69536 17.5466 6.7728 17.2912C5.21682 16.8882 3.68241 16.4056 2.17561 15.8463C2.09356 15.8186 2.03414 15.7464 2.02265 15.66C2.01637 15.5756 2.05902 15.4953 2.13204 15.4529C3.99252 14.2264 5.66076 12.7287 7.0824 11.0094C7.68175 10.2789 8.35397 9.61203 9.08806 9.01884C9.25782 8.88853 9.43438 8.76715 9.6167 8.65502C9.99047 8.46328 10.3074 8.17654 10.5361 7.82331C10.556 7.78574 10.5588 7.74136 10.5439 7.70155C10.5356 7.67994 10.5315 7.65702 10.532 7.63384C10.5324 6.47649 11.4927 5.56513 12.3933 4.80012C13.123 4.18051 13.7897 3.49385 14.4345 2.82962C14.9161 2.33462 15.4145 1.82008 15.9342 1.33963C15.9476 1.32732 15.9596 1.31364 15.97 1.29881C15.9864 1.27553 15.9971 1.24865 16.012 1.22444C16.0453 1.17046 16.1095 1.14058 16.1746 1.15288C18.0725 1.26294 19.9527 1.57958 21.7826 2.09684C21.8379 2.11191 21.8974 2.0928 21.9342 2.04872C22.0588 1.89814 22.1835 1.74545 22.3058 1.59201C22.3816 1.49765 22.3176 1.35698 22.1967 1.35256C20.0932 1.32533 18.006 0.975184 16.008 0.314891C15.9496 0.294075 15.8841 0.312687 15.8449 0.360663C15.5487 0.723735 14.8228 1.4509 13.9833 2.29347C10.6846 5.60193 9.28288 7.15895 9.69428 7.6433C9.76408 7.72101 9.76688 7.83807 9.70111 7.91891C9.65366 7.99451 9.56225 8.02914 9.47733 8.00417L9.43858 7.99682C9.41472 7.99229 9.39016 7.99314 9.36668 7.9993C9.35738 8.00173 9.34775 8.00334 9.33817 8.00416C8.2113 8.10067 7.53829 8.87325 6.88733 9.62412L6.65955 9.88391C6.36156 10.2188 6.06014 10.5505 5.75871 10.8822C5.42862 11.245 5.09924 11.6077 4.77366 11.9743C3.56493 13.346 2.35258 14.6554 0.817681 15.6032C0.720395 15.6632 0.727459 15.8072 0.829113 15.8595C3.24779 17.1157 5.9887 18.5389 9.20508 18.6563C9.22641 18.6578 9.24698 18.6617 9.26751 18.6681L9.26963 18.6687C9.31704 18.681 9.36747 18.6688 9.40403 18.6362L9.43629 18.6004C9.48075 18.5507 9.5228 18.4992 9.56554 18.4478L9.64819 18.3501C9.71815 18.2674 9.68215 18.1402 9.57925 18.1065Z" fill="#FF8E0A"/>
<path d="M20.7637 24.0256C20.7422 24.0164 20.7228 24.0026 20.7068 23.9851C20.6797 23.9518 20.6393 23.932 20.5964 23.9311L20.5503 23.9302C20.4942 23.9232 20.439 23.9489 20.4082 23.9964C20.2993 24.1652 20.1854 24.335 20.0671 24.5008C20.0038 24.5887 20.0529 24.7126 20.1592 24.7332C21.1891 24.9769 22.1826 25.3543 23.1157 25.8552C23.6981 26.1366 24.3012 26.4272 24.9131 26.6515C26.6709 27.2994 28.5106 27.697 30.3786 27.8318C30.4328 27.8357 30.4848 27.8093 30.5138 27.7633C30.6188 27.5958 30.7169 27.4264 30.809 27.2579C30.8607 27.1634 30.7972 27.0462 30.6897 27.0397C27.5405 26.8363 24.4776 25.9095 20.7637 24.0256Z" fill="#FF8E0A"/>
<path d="M42.3758 20.4392C42.408 20.3268 42.3664 20.2052 42.2747 20.1327C41.7773 19.7397 41.2877 19.3198 40.7943 18.9013C40.4416 18.6022 39.9318 18.613 39.5198 18.8229C39.1536 19.0096 38.8743 19.3523 38.828 19.7608C38.7912 20.0848 38.7399 20.4071 38.6741 20.7267C38.6589 20.8005 38.6373 20.8728 38.6112 20.9436C38.6011 20.971 38.591 20.9984 38.581 21.0259C38.2586 21.9148 38.9202 22.8699 39.7739 23.2764C39.8004 23.289 39.8269 23.3017 39.8534 23.3145C40.6715 23.7102 41.5929 23.2734 41.833 22.3968C42.0119 21.7436 42.1929 21.0911 42.3758 20.4392Z" fill="#FF8E0A"/>
<path d="M36.9698 17.1066C37.4641 17.6572 38.0457 18.1214 38.6913 18.4812C38.6968 18.4842 38.7018 18.4881 38.7063 18.4925C38.7185 18.5048 38.735 18.5118 38.7523 18.5122L38.7863 18.5129C38.8004 18.5132 38.8145 18.5114 38.828 18.5075C39.1403 18.4061 39.4328 18.251 39.692 18.0488C39.7728 17.9922 39.7762 17.8729 39.698 17.8128C38.6466 16.9215 37.4105 16.2761 36.0796 15.924C35.9252 15.8902 35.8338 16.0905 35.9596 16.186C36.3164 16.4704 36.6539 16.7774 36.9698 17.1066Z" fill="#FF8E0A"/>
<path d="M28.0287 10.2999C28.0932 10.1931 28.0041 10.0592 27.8807 10.078C27.569 10.1139 27.2689 10.2162 26.9994 10.3775C26.8525 10.4565 26.7418 10.5869 26.6869 10.7414C26.6584 10.8216 26.6537 10.9085 26.6668 10.9926C26.7031 11.2252 26.8272 11.4367 27.0162 11.5812C27.0828 11.6453 27.1912 11.6328 27.2415 11.5554C27.509 11.14 27.7744 10.7226 28.0287 10.2999Z" fill="#FF8E0A"/>
<path d="M31.557 25.1707C31.7908 24.5118 31.4989 23.7879 30.8818 23.4594C30.8296 23.4316 30.7773 23.404 30.7249 23.3766C30.6073 23.3231 30.5394 23.2016 30.5506 23.0773C30.5545 23.0332 30.5586 22.9886 30.556 22.9444C30.5302 22.4259 30.4527 21.911 30.3246 21.408C30.3029 21.2884 30.3409 21.1655 30.4257 21.0788C30.477 21.0263 30.5416 20.9909 30.6112 20.9755C30.7026 20.9551 30.8005 20.9579 30.8917 20.9793C30.993 21.0033 31.0943 21.0289 31.1956 21.0556C32.0079 21.2703 32.8465 20.8355 33.1264 20.0432C33.1464 19.9864 33.1666 19.9296 33.1869 19.8729C33.5734 18.7931 32.7388 17.6852 31.6017 17.8344C31.1925 17.8881 30.7831 17.9387 30.3726 17.9782C29.6605 18.0467 29.0428 18.5513 28.9791 19.2638C28.817 21.0764 29.0367 22.9143 28.8488 24.7242C28.7646 25.5355 29.2737 26.3409 30.0859 26.4175C30.6558 26.4713 31.1904 26.1413 31.3958 25.607C31.4514 25.4623 31.5051 25.3168 31.557 25.1707Z" fill="#FF8E0A"/>
<path d="M36.1914 11.2372C36.4198 11.2914 36.6511 11.1649 36.7329 10.9449C37.1884 9.7203 37.6234 8.48918 38.0318 7.2484C38.1637 6.84768 37.9546 6.4122 37.5495 6.29458C37.0696 6.15524 36.6161 6.53812 36.5753 7.0362C36.475 8.26212 36.1744 9.4702 35.8529 10.66C35.7842 10.9142 35.9352 11.1765 36.1914 11.2372Z" fill="#FF8E0A"/>
<path d="M46.4224 9.34353C45.7159 9.05571 44.9939 8.80938 44.2589 8.606C42.3681 8.03792 40.2255 7.39432 39.3372 5.80971C39.2739 5.69693 39.1063 5.71494 39.0685 5.83858L39.0537 5.88704C39.015 6.01201 38.9766 6.13735 38.937 6.25984C38.9216 6.3071 38.9313 6.35934 38.9624 6.39811C39.7362 7.36652 40.9254 7.88121 41.9789 8.28737C42.3596 8.43344 42.7431 8.60942 43.1142 8.77988C43.8832 9.17547 44.7017 9.46492 45.5481 9.64183C45.5732 9.64475 45.5972 9.65388 45.6183 9.66797C45.6318 9.67706 45.6445 9.68747 45.6583 9.69626C45.6703 9.70392 45.683 9.71037 45.6953 9.71753C45.7573 9.75361 45.7967 9.8201 45.7971 9.89335C45.8384 11.2263 45.401 12.4205 44.9375 13.6848C44.845 13.9362 44.7525 14.1886 44.6642 14.4422C44.227 15.6923 43.8845 16.9943 43.5538 18.2554C43.3868 18.891 43.2201 19.5259 43.0434 20.1553C42.6001 21.7257 42.2401 23.0347 41.9101 24.2765C41.8988 24.3192 41.907 24.3648 41.9327 24.4007C41.9632 24.4484 41.9714 24.5062 41.9556 24.5607C41.9416 24.6271 41.9001 24.6849 41.8413 24.7188C41.8049 24.7382 41.7783 24.7719 41.7679 24.8118L41.67 25.1868C41.5985 25.4607 41.5265 25.7347 41.4567 26.0087C41.303 26.6116 41.169 27.2409 41.0396 27.8495C40.8242 28.9907 40.531 30.1159 40.1616 31.2171C40.1512 31.2501 40.1323 31.2796 40.1072 31.3029C40.0926 31.3165 40.0771 31.3291 40.0637 31.3438C40.0459 31.3636 40.0327 31.3872 40.016 31.4079C39.9987 31.4295 39.9758 31.446 39.9493 31.4555C39.9102 31.4697 39.8668 31.4667 39.8297 31.448C38.5056 30.895 37.2222 30.2469 35.9905 29.5096C35.497 29.2301 35.0026 28.9499 34.5009 28.6801C34.0685 28.462 33.6203 28.2765 33.1606 28.1249C32.5518 27.94 31.9709 27.6731 31.4332 27.3312C31.3613 27.2798 31.2603 27.3032 31.2186 27.3812C31.1734 27.4659 31.1233 27.5492 31.074 27.6318L31.0325 27.702C30.9936 27.7676 31.0101 27.8519 31.0708 27.8981C31.0903 27.9123 31.1072 27.93 31.121 27.9497C31.1276 27.9592 31.1346 27.9684 31.1429 27.9763L31.1772 28.0092C31.1782 28.0101 31.1796 28.0107 31.1809 28.0107C31.182 28.0107 31.1831 28.0111 31.184 28.0117C32.1185 28.6609 33.0949 29.2475 34.1066 29.7677C34.7883 30.1362 35.4932 30.5178 36.1606 30.9369C36.4059 31.0907 36.6515 31.2508 36.8989 31.4106C38.1864 32.2453 39.5177 33.1088 41.0481 33.3953C41.1345 33.4113 41.2157 33.3484 41.2222 33.2608C41.3456 31.949 41.5539 30.6466 41.8459 29.3619C41.9224 28.9869 41.9985 28.6136 42.07 28.2416C42.4794 26.1364 42.8922 24.0815 43.4457 22.0812C43.7469 20.9923 44.0831 19.8993 44.4082 18.8419C45.3302 15.8455 46.2831 12.7478 46.5083 9.49088L46.5084 9.48972C46.5128 9.42788 46.4786 9.36973 46.4224 9.34353Z" fill="#FF8E0A"/>
<path d="M27.9712 12.9576C27.5797 12.7579 27.0717 12.8268 26.8255 13.1909C26.6077 13.5131 26.6681 13.9547 26.9881 14.1756C27.5848 14.5877 28.227 14.9307 28.9025 15.1973C30.6035 15.7189 32.1055 15.5048 33.8357 15.2982C34.0723 15.2678 34.3098 15.2463 34.5479 15.2334C34.8546 15.2168 35.1316 15.0334 35.2476 14.749C35.4408 14.2754 35.1167 13.7499 34.6053 13.7428C34.56 13.7421 34.5146 13.7418 34.4691 13.7416C32.3562 13.7356 29.929 13.9037 27.9712 12.9576Z" fill="#FF8E0A"/>
<path d="M29.7631 5.45193C29.5719 5.40211 29.3775 5.52341 29.3243 5.71372C28.7791 7.66465 27.0946 8.43291 25.283 9.08638C23.2495 9.81856 23.8852 11.3328 25.1967 12.6791C25.5451 13.0367 26.1274 12.9574 26.4071 12.5438C26.6207 12.2279 26.5761 11.8162 26.3821 11.4879C25.9905 10.8255 25.9768 10.1277 26.9822 9.76846C27.1395 9.71929 27.299 9.67812 27.46 9.64502C27.979 9.5384 28.471 9.27053 28.7196 8.80272C29.2186 7.86406 29.6459 6.88844 29.9975 5.88443C30.0622 5.69976 29.9525 5.50127 29.7631 5.45193Z" fill="#FF8E0A"/>
<path d="M34.6646 21.8804C35.5264 21.929 36.2577 21.7493 36.4524 20.7837C36.4935 20.5795 36.5295 20.3747 36.5687 20.1709C36.6576 19.7086 36.5107 19.2236 36.1157 18.9674C35.4195 18.5159 34.3503 18.7885 34.0646 19.5675C33.9628 19.845 33.8635 20.1233 33.7668 20.4025C33.5296 21.0882 33.9407 21.8325 34.6646 21.8804Z" fill="#FF8E0A"/>
<path d="M21.0695 23.5481C22.2306 24.1524 23.4288 24.6808 24.6565 25.1305C25.5161 25.4454 26.4045 24.8831 26.4378 23.9682C26.4462 23.735 26.4535 23.5017 26.4643 23.2686C26.5011 22.478 26.0295 21.7058 25.2467 21.5894C24.5385 21.484 23.8218 21.4364 23.1051 21.3895C22.4726 21.348 21.8767 21.6915 21.5836 22.2536C21.3686 22.6658 21.1447 23.0727 20.9055 23.473C20.9007 23.481 20.902 23.4911 20.9074 23.4988C20.9116 23.5045 20.9181 23.5084 20.9252 23.5088C20.9755 23.5114 21.0247 23.5247 21.0695 23.5481Z" fill="#FF8E0A"/>
<path d="M20.7566 15.6001C20.8753 16.4017 20.9434 17.2104 20.9601 18.0204C20.9614 18.0827 21.0047 18.1379 21.0662 18.1483C21.2242 18.1814 21.3795 18.2138 21.5317 18.2454C22.1986 18.3839 22.8708 18.0586 23.2075 17.4665C23.3841 17.1562 23.5651 16.8489 23.7502 16.5442C24.045 16.059 24.0672 15.4502 23.7692 14.9669C23.4584 14.4629 23.1286 13.9707 22.7804 13.4915C22.73 13.4325 22.6813 13.3721 22.6343 13.3105C22.2199 12.7664 21.6012 12.3217 20.9193 12.3742C20.7472 12.3874 20.5758 12.4054 20.4093 12.4322C19.8482 12.5227 19.5446 13.0685 19.5725 13.6361C19.6262 14.7258 19.7079 15.8135 19.7719 16.9033C19.8003 17.4211 19.5492 18.926 20.1977 19.0418C20.7995 19.1493 21.3995 19.2571 22.0025 19.3664C22.1134 19.3866 22.2251 19.3308 22.2722 19.2283C22.3751 19.0257 22.2508 18.7816 22.027 18.7425C21.6947 18.6844 21.3469 18.6184 20.9903 18.5441C20.9003 18.5257 20.8132 18.5073 20.7257 18.4886C20.631 18.4701 20.5629 18.3869 20.5636 18.2905L20.5636 18.2874C20.5759 17.247 20.5102 16.3067 20.4843 15.6225C20.4394 15.292 20.7431 15.2668 20.7566 15.6001Z" fill="#FF8E0A"/>
<path d="M27.111 18.4561C27.1974 17.7431 26.6964 17.1071 25.9972 16.9431C25.925 16.9261 25.8535 16.9078 25.7828 16.8878C25.1691 16.7139 24.4014 16.8327 24.077 17.382C23.9194 17.6489 23.765 17.9179 23.6141 18.1895C23.497 18.4004 23.6219 18.662 23.8593 18.7049C24.5538 18.8052 24.5199 19.0831 23.825 18.9853C23.7071 18.9768 23.5835 18.9653 23.4536 18.951C23.3124 18.9353 23.1752 19.0067 23.1114 19.1337C23.0111 19.3334 23.1324 19.5725 23.3524 19.6119C24.0317 19.7334 24.7116 19.8542 25.3918 19.9722C26.2286 20.1174 26.9943 19.4879 27.089 18.644C27.096 18.5813 27.1034 18.5187 27.111 18.4561Z" fill="#FF8E0A"/>
</svg>
