<svg width="70" height="71" viewBox="0 0 70 71" fill="none" xmlns="http://www.w3.org/2000/svg">
<path d="M41.0682 23.7586C42.6043 21.589 40.9182 19.4353 39.3626 17.6396C37.2345 15.1832 32.8245 13.2954 29.5741 14.0926M39.5783 29.4314C39.8662 32.1118 41.6213 34.3154 43.0721 36.2576M45.6172 39.0155C46.1968 39.4622 46.8977 40.8512 47.407 41.3611M24.796 34.8005C22.677 32.9322 19.977 30.9157 20.5291 27.8101M55.7488 51.0853C56.1536 50.9218 57.2044 50.2179 57.2312 49.6757C57.2597 49.0989 56.1303 47.858 55.7166 47.656M31.5612 15.7029C33.4117 15.775 34.9823 16.4018 36.3807 17.6296M39.7745 27.5004C40.0004 27.0021 40.161 26.4904 40.4033 25.9941" stroke="#FDFEFF" stroke-width="0.722771" stroke-linecap="round"/>
<path d="M38.4623 13.8639C35.9833 12.4688 34.3399 11.5963 31.5465 11.578C28.7482 11.5598 26.2317 11.8278 23.8075 13.2357C21.559 14.5415 19.8526 15.9203 18.5803 18.1892C18.0841 19.0743 17.4329 20.1436 17.0706 21.0926C16.0009 23.8953 16.3115 25.061 16.4322 26.6575C16.5047 27.6159 16.9456 29.2511 17.2673 30.1546C17.6329 31.1832 18.084 32.1644 18.8381 33.0118C20.2624 34.6139 20.4059 34.7617 22.0842 36.0563C22.7343 36.5574 23.5342 37.1595 24.3079 37.4508C25.5281 37.9091 26.083 37.8626 26.6168 37.3954C27.6366 36.157 28.0688 36.4604 28.4007 34.8812C28.6414 33.7327 28.3885 33.3024 27.2736 32.7855C25.7059 32.0586 24.0442 30.2938 22.9884 28.3998C22.6837 27.8525 22.5659 27.1988 22.3803 26.5884C21.9508 25.1749 22.572 21.8952 24.1804 20.7413C25.4236 19.8494 27.6172 19.0856 28.9292 19.4774C29.2341 19.5684 29.5565 19.5912 29.8703 19.6521C30.8592 19.8415 32.8663 20.0382 33.443 20.8348C34.1933 21.8712 34.9879 22.566 35.3896 23.8176C35.9797 25.6548 35.704 29.3696 35.2417 31.2163C35.1044 31.7624 35.1263 32.823 35.2751 33.3243C35.5822 34.3608 35.399 34.8355 36.264 35.5877C38.0602 37.1502 38.0618 37.2764 39.8747 38.8201C40.267 39.1541 40.7394 39.4062 41.0813 39.783C42.9947 41.2287 43.0673 41.4354 45.0272 42.9867C45.6177 43.454 47.1776 45.1499 47.5571 44.6932C48.0429 44.1089 48.2415 44.2495 48.7217 43.6612C49.7251 42.4319 50.847 42.5861 50.0575 41.134C49.9036 40.8504 49.7262 40.581 49.5487 40.3108C47.9922 37.943 46.8142 36.5902 45.2447 34.2314C44.7097 33.4261 44.1361 32.6448 43.563 31.8658C42.6259 30.5939 41.2227 28.5705 41.8387 27.1799C42.0709 26.6559 41.9566 26.5683 42.2606 26.0885C43.0775 24.7985 43.9437 24.0764 44 22.5911C44.0429 21.4657 43.6962 19.6994 43.0909 18.7526C41.5799 16.3929 40.971 15.2772 38.4623 13.8639ZM42.7271 19.6938C43.5117 21.0978 43.1684 22.5774 42.6366 23.9707C42.3434 24.7411 41.894 25.4474 41.5397 26.195C41.1546 27.0091 40.9499 27.8641 40.9451 28.7889C40.9395 29.7233 41.169 30.538 41.6881 31.3317C43.5981 34.2532 45.6171 37.0903 47.8111 39.804C48.4108 40.5451 49.1941 41.2042 49.1841 42.4649C48.9115 42.7621 48.6618 43.0465 48.4012 43.3187C47.7157 44.038 47.2167 44.134 46.4309 43.5293C45.6168 42.9022 44.8335 42.2177 44.1199 41.4774C43.2656 40.5904 42.4052 39.7338 41.351 39.0853C40.9161 38.8175 40.5375 38.4554 40.1405 38.1264C39.3483 37.471 38.6118 36.7283 37.7607 36.1663C36.1452 35.0976 35.8021 33.5359 35.8733 31.8042C35.9492 29.9503 36.053 28.0955 36.2365 26.252C36.3295 25.3198 36.1536 24.4649 35.8508 23.6107C35.7221 23.2464 35.5491 22.8971 35.3804 22.5492C34.2263 20.1642 33.6858 19.7179 31.1417 19.0595C30.585 18.9152 30.0261 18.7697 29.4612 18.6747C28.3072 18.4807 27.1773 18.5277 26.1161 19.0685C25.7776 19.2411 25.4515 19.4558 25.0932 19.5703C22.0889 20.5301 21.6749 22.8388 21.5636 25.6732C21.4516 28.535 22.8954 30.8494 25.2382 32.5283C26.03 33.0963 26.7559 33.7075 27.4314 34.5065C27.3227 34.7468 27.2612 34.9919 27.1212 35.1769C25.7092 37.0551 25.3233 37.1038 23.1021 35.9434C21.055 34.8738 19.6746 33.0456 18.7078 30.9505C18.2509 29.9603 17.938 28.9048 17.5255 27.8928C17.0204 26.6541 17.0135 25.3551 17.1338 24.092C17.375 21.5425 18.3734 19.3034 20.0265 17.3593C21.8019 15.271 23.9929 13.7414 26.5799 12.9845C30.4381 11.8554 34.26 12.1149 37.7948 14.4058C38.709 14.9985 39.6701 15.5962 40.3942 16.3895C41.2959 17.3796 42.0721 18.5207 42.7271 19.6938Z" fill="#FDFEFF"/>
<path d="M56.0781 45.4699C55.1616 44.5712 55.8977 44.4688 54.5179 45.4968C54.3162 45.6472 53.7902 46.306 53.5754 46.6334C53.0686 47.4061 52.9739 47.4178 52.155 48.6028C51.6093 49.3916 51.5308 49.3962 52.0002 50.4802C52.6997 52.0935 52.6168 52.065 53.8857 53.1462C54.6004 53.7555 54.5423 54.8364 55.3655 54.3296C55.8154 53.99 56.1071 53.7337 56.5183 53.3518C57.2105 52.7078 57.9483 51.7992 58.5594 51.0784C60.5579 48.723 59.9902 49.8998 58.183 47.729C57.5271 46.9396 56.8135 46.1911 56.0781 45.4699ZM58.5633 49.9099C57.4588 50.9087 56.4048 51.8616 55.2843 52.8748C54.1027 51.9452 53.1926 50.9236 52.4095 49.6494C53.3012 48.4818 53.5443 46.8223 55.3792 46.1317C56.4514 47.4164 57.7079 48.4189 58.5633 49.9099Z" fill="#FDFEFF"/>
<path d="M55.1035 54.0047C55.3322 54.0931 58.3219 54.6442 58.5384 54.6544C59.0946 54.6807 59.1433 54.0781 59.3106 53.6453C59.5094 53.1309 59.8199 52.8467 60.2092 52.4482C60.6737 51.9728 60.9859 51.3849 61.4374 50.8997C61.5212 50.8096 62.151 50.2392 61.9863 50.1756C61.1219 49.8414 60.2655 49.9947 59.3984 49.6595M55.5206 45.1578C56.2881 44.8182 57.0488 45.0844 57.8478 45.1372C58.6491 45.1901 59.5546 45.2642 60.3069 45.5551C60.7756 45.7362 60.8415 46.3156 60.9082 46.7561C60.9824 47.2464 61.3614 47.6908 61.5303 48.1535C61.7513 48.7591 61.9071 49.5125 62.0376 50.0985M56.3888 53.436C57.4122 53.5988 58.3736 53.3866 59.392 53.4346M57.6627 51.8944C58.3393 52.1559 59.3161 52.1025 60.03 52.0346M58.8581 50.8067C59.6019 50.8103 60.5439 50.8772 61.2445 51.148M58.8163 48.6596C59.7746 48.8987 60.8629 48.8133 61.8387 48.8593M57.832 47.6979C58.4379 47.9119 59.1476 47.6017 59.7961 47.6284C60.1335 47.6423 60.4445 47.5637 60.7835 47.5797M56.5948 46.6385C57.4108 46.6074 58.192 46.5273 59.0031 46.4502C59.5484 46.3983 60.045 46.4606 60.5845 46.3404M47.2253 44.5665C47.3449 44.5963 47.7826 44.4982 47.9375 44.492C48.5244 44.4685 49.1039 44.2882 49.6994 44.2636C50.0063 44.2509 50.9131 44.1607 51.1442 43.9504M49.8958 41.918C50.4017 41.9439 51.379 41.8133 51.8935 42.0122M41.6161 28.2564C42.8068 28.7167 44.0889 28.373 45.3261 28.4313M43.8447 22.2407C44.8274 22.1353 45.7933 22.1772 46.712 22.0899M50.9622 44.1706C51.8064 44.1791 52.149 42.604 52.3962 41.9644C52.4914 41.7182 52.7519 41.304 52.654 41.047C52.4357 40.4739 52.0561 40.0285 51.7561 39.4999C51.5328 39.1064 51.3005 38.717 51.0842 38.3146C50.9602 38.084 50.7096 37.9046 50.5696 37.669C50.4134 37.406 50.3296 37.0109 50.112 36.7926C49.8296 36.5092 49.7742 35.7828 49.4881 35.5667C49.111 35.2817 48.8679 34.6404 48.6172 34.256C48.1939 33.607 47.8541 32.8992 47.5158 32.2051C47.3635 31.8928 47.1787 31.6346 47.0629 31.3305C46.9408 31.0102 46.7551 30.691 46.535 30.4269C46.256 30.0921 46.2696 29.6339 46.1096 29.2723C45.9851 28.9909 45.8097 28.7232 45.8238 28.4246C45.8411 28.0574 45.8961 27.6609 45.8852 27.2914C45.8727 26.8717 46.2874 26.195 46.4365 25.8094C46.6127 25.3536 46.7102 24.9652 46.7771 24.4828C46.9039 23.5686 47.1691 22.6767 47.0808 21.7481C47.0371 21.2875 46.918 20.673 46.661 20.2728C46.3962 19.8604 46.4198 19.2273 46.124 18.8222C45.665 18.1934 45.2215 17.4221 44.7527 16.7316C44.3348 16.1159 43.5124 15.8776 43.0116 15.3751C42.573 14.9351 41.8675 14.7387 41.4059 14.2809C40.8994 13.7785 40.2648 13.3681 39.6838 12.9587C39.0323 12.4996 38.4683 12.1229 37.7188 11.8332L35.8836 11.1238C35.6176 11.0209 35.4062 10.9711 35.1301 10.9294C34.8206 10.8825 34.4386 11.0263 34.1477 10.9371C33.8935 10.8591 33.5553 10.9013 33.2635 10.8859C33.0701 10.8756 32.7888 10.9059 32.6017 10.9691C32.5236 11.0491 30.028 11.4511 29.8852 11.4956C28.8259 11.826 27.2304 12.3607 26.1658 12.5978M25.248 37.5239C26.4315 37.7122 27.7616 37.2967 28.8817 36.9913C29.7565 36.7528 30.0141 35.4678 30.2956 34.7396C30.5555 34.0672 30.7097 33.5621 30.4854 32.8704C30.3517 32.4578 29.6187 32.0561 29.241 31.8996C28.6145 31.6402 28.0627 30.9788 27.5936 30.5095C27.285 30.2008 27.0586 29.8346 26.7405 29.5286C26.4184 29.2188 26.1352 28.9767 25.9175 28.5809C25.5336 27.8827 25.2193 26.9236 25.0373 26.1527C24.754 24.9526 25.1133 23.4078 25.6985 22.3401C26.2047 21.4168 27.5159 20.944 28.5069 20.8104C30.2731 20.5724 32.0269 20.1908 33.7281 20.8485M42.0085 30.2484C43.3349 29.9285 44.678 30.0758 45.9982 29.9503M41.5914 27.5688C41.9302 27.6998 41.9911 27.6028 42.3258 27.5621C42.9757 27.483 43.6485 27.427 44.303 27.417C44.8418 27.4087 45.4367 27.479 45.9507 27.3167M42.3137 26.2014C43.5546 26.1401 44.8632 26.15 46.0888 26.2077M43.1854 24.698C43.8953 24.7775 44.8372 24.6844 45.5475 24.5456C45.8445 24.4875 46.0878 24.5393 46.3707 24.4763M43.7066 23.3497C44.384 23.5882 44.9593 23.4509 45.6415 23.4949C46.0605 23.5219 46.3271 23.2971 46.7616 23.4651M43.8603 20.6969C44.5619 20.7433 45.8579 20.5816 46.5399 20.2798M42.6253 18.3792C43.4929 18.4382 44.2801 18.1646 45.1038 17.9812M43.6995 19.8599C44.2606 19.6361 45.1813 19.1861 45.7893 19.2148M41.9724 17.0613C42.5068 17.0833 42.8597 17.0232 43.3614 16.9202C43.6664 16.8576 43.9279 16.7531 44.2172 16.7667M40.988 16.0996C41.3422 16.0955 41.6968 15.9099 42.04 15.8283C42.1361 15.8054 42.2838 15.8514 42.3604 15.8068C42.5915 15.6723 42.8145 15.7184 43.0452 15.5388M39.7183 15.1245C40.1622 14.703 40.5939 14.7371 41.1205 14.5042M37.9104 14.0382C38.2954 14.1119 38.9886 13.9022 39.3441 13.726C39.527 13.6355 39.7539 13.7811 39.9025 13.6459M36.861 13.2451C37.3645 12.988 37.9252 12.3619 38.5294 12.4371M35.2598 12.6262C35.492 12.1168 36.0078 11.9902 36.3384 11.5901M33.3733 11.9938C33.6497 11.812 34.6139 10.8267 34.9384 10.9521M42.4277 31.6697C43.1385 31.2347 44.0092 30.9954 44.8449 31.0543C45.4454 31.0966 46.0799 30.91 46.6645 30.9828M43.8716 33.1964C44.1178 32.71 45.3051 32.4932 45.8109 32.4394C46.2605 32.3915 46.7061 32.3341 47.1489 32.2355M44.9267 34.4761C45.1816 34.5746 45.5519 34.3542 45.7617 34.2231C46.0189 34.0624 46.5376 33.9753 46.8368 33.9337C47.1431 33.8911 47.7048 33.9148 47.9378 33.7028M45.7616 35.5737C46.2407 35.5478 46.8116 35.2725 47.2623 35.0883C47.5573 34.9677 48.2662 35.1082 48.403 34.7544M49.6968 40.6787C50.4952 40.767 51.2397 40.7111 52.0124 40.7021M27.8037 33.6687C28.3354 33.7705 28.8766 33.5631 29.4054 33.5345C29.6633 33.5206 30.1924 33.6803 30.3856 33.5045M27.4815 36.2563C27.9304 36.1628 28.5581 35.9495 29.0315 36.0052C29.2622 36.0324 29.4644 36.0971 29.6938 36.046M28.2746 35.2068C28.5936 35.001 29.4712 35.0587 29.8835 35.0539M23.3934 29.5424C23.6422 29.0177 24.3627 28.9629 24.8764 28.8241C25.1127 28.7603 25.2574 28.8841 25.464 28.6961M22.0685 26.7055C22.5392 26.4268 23.2227 26.3586 23.7751 26.2998C24.0567 26.2698 24.6631 26.2567 24.8458 26.0356M22.2335 25.0258C22.7658 25.0885 23.4261 25.0908 23.9525 24.9638C24.1487 24.9165 24.5165 24.8428 24.6985 24.9132M22.4827 23.3786C23.3541 23.5009 24.1661 23.5438 25.0186 23.584M23.0556 22.1472C23.8375 22.3009 24.7178 22.1921 25.4881 22.1189M24.5498 20.7875C25.2952 21.0161 26.4685 21.266 27.2025 20.9412M26.2508 19.8953C26.8048 19.9861 27.2672 19.9976 27.7811 20.1962C28.1209 20.3276 28.7577 20.5948 29.1103 20.5163M28.8596 19.1602C29.2793 19.4473 29.5923 19.8309 30.0776 20.0185M46.7651 36.7365C47.2157 36.8489 47.9921 36.3902 48.42 36.2139C48.7243 36.0885 49.173 35.9799 49.4907 35.9497M47.7876 38.1004C47.9017 37.9291 48.6891 37.7326 48.9286 37.6266C49.27 37.4756 49.548 37.3539 49.9099 37.371M48.4731 39.334C48.8147 39.1828 49.1628 38.9859 49.5211 38.8781C49.7115 38.8208 49.8188 38.8755 49.9782 38.7534C50.1061 38.6556 50.6118 38.6109 50.764 38.6697M26.8385 32.9082C27.096 32.9574 27.3589 32.8007 27.6028 32.7408C27.9755 32.6493 28.3567 32.6234 28.73 32.5254C29.1109 32.4255 29.4826 32.3727 29.8687 32.336M25.0306 31.8219C25.8113 31.341 26.6788 31.0229 27.5169 30.652M23.8261 30.6782C24.3017 30.6195 24.6012 30.1568 25.0609 30.1009C25.2425 30.0788 25.3777 30.0205 25.5534 29.9684C25.8767 29.8725 26.2539 29.7916 26.5843 29.8072M22.7731 28.1402C23.1738 28.2169 23.7963 27.9664 24.2019 27.8962C24.4633 27.8509 24.8428 27.7318 25.0313 27.5603" stroke="#FDFEFF" stroke-width="0.722771" stroke-linecap="round"/>
</svg>
