<svg width="32" height="33" viewBox="0 0 32 33" fill="none" xmlns="http://www.w3.org/2000/svg">
<path d="M17.6296 15.7926L21.7037 19.8667C22.0025 20.1655 22.1519 20.5457 22.1519 21.0075C22.1519 21.4692 22.0025 21.8494 21.7037 22.1482C21.4049 22.447 21.0247 22.5963 20.563 22.5963C20.1012 22.5963 19.721 22.447 19.4222 22.1482L14.8593 17.5852C14.6963 17.4223 14.5741 17.2387 14.4926 17.0344C14.4111 16.8313 14.3704 16.621 14.3704 16.4038V9.92598C14.3704 9.46425 14.5268 9.07694 14.8397 8.76405C15.1515 8.45225 15.5383 8.29635 16 8.29635C16.4617 8.29635 16.849 8.45225 17.1619 8.76405C17.4737 9.07694 17.6296 9.46425 17.6296 9.92598V15.7926ZM16 31.1112C12.7136 31.1112 9.76668 30.1399 7.15927 28.1974C4.55186 26.256 2.80001 23.7235 1.90371 20.6001C1.76791 20.1112 1.81571 19.6494 2.04712 19.2149C2.27744 18.7803 2.63705 18.5087 3.12594 18.4001C3.58766 18.2914 4.00213 18.393 4.36934 18.7048C4.73547 19.0177 4.98643 19.405 5.12223 19.8667C5.8284 22.2568 7.19349 24.1852 9.21749 25.6519C11.2404 27.1186 13.5012 27.8519 16 27.8519C19.1778 27.8519 21.8732 26.7448 24.0862 24.5307C26.3004 22.3177 27.4074 19.6223 27.4074 16.4445C27.4074 13.2667 26.3004 10.5708 24.0862 8.35665C21.8732 6.14361 19.1778 5.03709 16 5.03709C14.1259 5.03709 12.3741 5.47166 10.7445 6.3408C9.11482 7.20993 7.74322 8.40499 6.62964 9.92598H9.48149C9.94322 9.92598 10.3305 10.0819 10.6434 10.3937C10.9552 10.7066 11.1111 11.0939 11.1111 11.5556C11.1111 12.0173 10.9552 12.4041 10.6434 12.7159C10.3305 13.0288 9.94322 13.1852 9.48149 13.1852H2.96297C2.50124 13.1852 2.11448 13.0288 1.80268 12.7159C1.48979 12.4041 1.33334 12.0173 1.33334 11.5556V5.03709C1.33334 4.57536 1.48979 4.18805 1.80268 3.87517C2.11448 3.56336 2.50124 3.40746 2.96297 3.40746C3.4247 3.40746 3.81201 3.56336 4.1249 3.87517C4.4367 4.18805 4.5926 4.57536 4.5926 5.03709V7.23709C5.97779 5.49882 7.6688 4.15438 9.66564 3.20376C11.6614 2.25314 13.7728 1.77783 16 1.77783C18.037 1.77783 19.9453 2.1646 21.7249 2.93813C23.5034 3.71275 25.0515 4.75842 26.3693 6.07517C27.6861 7.39299 28.7318 8.94114 29.5064 10.7196C30.2799 12.4992 30.6667 14.4075 30.6667 16.4445C30.6667 18.4815 30.2799 20.3893 29.5064 22.1678C28.7318 23.9473 27.6861 25.4955 26.3693 26.8122C25.0515 28.13 23.5034 29.1763 21.7249 29.9509C19.9453 30.7244 18.037 31.1112 16 31.1112Z" fill="#26262E"/>
</svg>
