<svg width="87" height="80" viewBox="0 0 87 80" fill="none" xmlns="http://www.w3.org/2000/svg">
<g clip-path="url(#clip0_4_50578)">
<rect width="87" height="80" fill="#26262E"/>
<path d="M41.5859 31.1644C43.2189 32.3626 43.3652 34.1352 43.2991 35.9607C43.2553 37.1708 43.8424 38.3569 44.9378 38.8732C45.9727 39.3608 47.055 39.6276 48.0588 38.9936C48.5154 38.7105 48.9523 38.3986 49.3671 38.0601C50.6364 37.0242 50.4786 35.1391 49.3227 33.978C47.7652 32.4137 46.2167 30.8434 44.5765 29.407C44.1223 29.0071 43.6631 28.6135 43.1996 28.2245C42.7468 27.8446 42.105 27.7797 41.578 28.0472C40.4107 28.6398 40.4818 30.4611 41.5859 31.1644Z" fill="#FF8E0A"/>
<path d="M48.7315 51.1264C48.7391 51.0809 48.74 51.0346 48.7404 50.9884C48.7405 50.971 48.7413 50.9535 48.7428 50.936C48.7778 50.4504 48.8574 49.9506 48.9332 49.4678C49.0439 48.859 49.1154 48.2441 49.1467 47.627C49.1535 47.3712 48.8652 47.2172 48.6569 47.3658C47.6688 48.0728 46.5991 48.8021 45.3861 49.598C45.2418 49.6934 45.203 49.8889 45.2985 50.0332C46.0102 51.0915 46.8519 52.0542 47.8026 52.9027C50.0814 54.4936 52.5349 55.8179 55.116 56.8499C56.8555 57.5849 58.5537 58.4146 60.203 59.3352C60.3243 59.4058 60.4779 59.3857 60.577 59.2864L60.9605 58.9021C61.41 58.4528 61.86 58.0022 62.3032 57.5524C62.4353 57.419 62.4191 57.1986 62.2681 57.0871C61.6613 56.6368 60.9536 56.1073 60.2881 55.5617C60.1935 55.4935 60.1352 55.3836 60.1332 55.2658C60.1341 55.2494 60.1358 55.2331 60.1382 55.2171C60.1761 54.9694 60.4052 54.8019 60.563 54.6074L60.8257 54.2837C63.0152 51.5702 65.2795 48.7651 66.6264 45.4676C66.683 45.3274 66.6302 45.1658 66.501 45.0871C66.1593 44.88 65.8158 44.6785 65.4694 44.4813C65.321 44.3986 65.1329 44.452 65.0488 44.5997C63.3849 47.4187 61.5594 50.1377 59.5809 52.7451C58.936 53.6283 58.2899 54.5174 57.6544 55.4115C57.5798 55.5515 57.4096 55.6097 57.2645 55.5457C57.2004 55.5213 57.1293 55.5199 57.0642 55.5414C56.9694 55.5697 56.8678 55.5583 56.7804 55.5129C56.0299 55.1771 55.2578 54.8703 54.5074 54.5726C52.4832 53.8858 50.575 52.8955 48.8479 51.6359C48.7256 51.5503 48.6688 51.4006 48.6998 51.2584C48.7095 51.2142 48.7242 51.171 48.7315 51.1264Z" fill="#FF8E0A"/>
<path d="M17.4759 31.8045C17.665 32.5693 17.2351 32.1719 18.1151 32.3542C20.1592 32.7848 22.1642 32.1619 24.1886 31.8568C24.3288 31.8368 24.4735 31.8318 24.6147 31.8418C24.8902 31.8613 25.1394 32.0337 25.2504 32.2996C25.285 32.3768 25.3199 32.4539 25.355 32.5309C25.7681 33.4364 26.8658 33.7681 27.7448 33.3012C28.1353 33.0938 28.5267 32.8877 28.9189 32.6829C29.632 32.3106 29.6757 31.2981 29.0003 30.8611C28.6691 30.6418 28.3506 30.4283 28.0402 30.2235C27.7102 30.0485 27.3861 29.882 27.0698 29.7248C26.4918 29.4479 25.9377 29.1211 25.4162 28.7486C25.0544 28.4818 24.7422 28.1552 24.4924 27.7811C24.3443 27.5143 24.2842 27.3541 24.3308 27.3148C24.3773 27.2755 24.5237 27.3718 24.7476 27.5747C25.06 27.8259 25.3914 28.0518 25.7397 28.2499C26.1928 28.4924 26.7501 28.746 27.3991 29.025C27.7263 29.1604 28.0647 29.3173 28.4216 29.4934L28.4536 29.5082L28.5168 29.5481L28.5779 29.5821L28.7007 29.6609L28.9504 29.8206C29.1135 29.9295 29.2813 30.0406 29.4571 30.1465C30.0388 30.5307 30.595 30.9079 31.107 31.2585C31.2594 31.3629 31.4554 31.3777 31.6206 31.295C31.9786 31.1156 31.9986 30.611 31.6539 30.4072C30.0377 29.4516 28.3795 28.5703 26.6831 27.7649C26.4891 27.6849 26.3501 27.5238 26.2919 27.3347C26.218 27.0942 26.2362 26.82 26.3166 26.5816C26.3365 26.5163 26.3562 26.4509 26.3756 26.3854C26.8212 24.8813 25.2834 23.6558 23.779 24.1003C22.1034 24.5839 19.8214 25.079 18.3704 26.3027C18.2008 26.4457 18.1399 26.6748 18.0466 26.876C17.9947 27.0321 17.9344 27.1849 17.8661 27.3336C17.382 28.3888 16.9032 29.534 17.1862 30.6599C17.282 31.0412 17.3796 31.422 17.4759 31.8045Z" fill="#FF8E0A"/>
<path d="M32.5342 33.062C32.2632 32.9152 31.9405 32.8943 31.666 33.0343C31.042 33.3524 30.4177 33.6709 29.7936 33.991C28.1839 34.8167 27.5982 36.8087 28.5327 38.3577C28.6708 38.5866 28.8093 38.8154 28.9479 39.0442C29.423 39.8286 30.2079 40.3783 31.1138 40.5211C32.2785 40.7047 33.4456 40.8653 34.5978 41.1166C35.411 41.294 36.2723 41.2276 36.9893 40.8049C37.0494 40.7695 37.1092 40.7339 37.169 40.698C38.0638 40.1603 38.5629 39.1734 38.619 38.1309C38.6412 37.719 38.6701 37.3074 38.7057 36.8964C38.8268 35.4966 38.1209 34.1392 36.8892 33.4632C36.0431 32.9988 35.2074 32.5152 34.3764 32.0246C34.1761 31.9063 33.9293 31.8982 33.7218 32.0034C33.4407 32.1461 33.1599 32.2884 32.8796 32.429C32.8265 32.4556 32.8191 32.5283 32.8657 32.565C33.71 33.2293 34.1988 33.6898 34.1312 33.7884C34.0637 33.887 33.4617 33.6025 32.5342 33.062Z" fill="#FF8E0A"/>
<path d="M9.02384 36.0587C10.014 35.6209 10.9995 35.1734 11.9852 34.7285C13.146 34.2045 13.7612 32.8447 13.4442 31.6113C13.1714 30.5497 12.0868 30 11.0376 30.3171C10.1764 30.5773 9.33211 30.893 8.50959 31.2627C8.24076 31.3889 7.97287 31.5135 7.70574 31.6364C5.89266 32.4708 4.77335 35.1899 6.52509 36.1464C7.15539 36.4906 7.94417 36.5357 9.02384 36.0587Z" fill="#FF8E0A"/>
<path d="M29.5894 25.9658C29.8562 25.1899 30.0573 24.3932 30.1913 23.584C30.3045 22.9228 30.4587 22.2692 30.6516 21.6263C30.7318 21.376 30.4831 21.1456 30.2399 21.2454C29.7087 21.4628 29.1813 21.6875 28.6602 21.9161C28.5639 21.9574 28.4952 22.0449 28.478 22.1484L28.4775 22.1513C28.2529 23.6426 27.9379 25.1196 27.5354 26.574C27.4929 26.7185 27.5621 26.8739 27.6988 26.9372C29.8765 27.9803 32.0026 29.2429 33.8791 30.3574C33.9681 30.4098 34.0782 30.4137 34.171 30.3685C34.4443 30.2362 34.7214 30.0992 35.0677 29.9285C35.2964 29.8154 35.2979 29.4897 35.0702 29.3745L34.0813 28.8743C32.7107 28.1796 31.2931 27.4605 29.8758 26.7896C29.7565 26.7425 29.6703 26.6404 29.6427 26.5186C29.6322 26.4726 29.627 26.4253 29.6142 26.3799C29.6042 26.3446 29.5899 26.3106 29.5779 26.2759C29.5433 26.1754 29.5471 26.0646 29.5894 25.9658Z" fill="#FF8E0A"/>
<path d="M50.5713 47.8918C50.4385 47.8569 50.3072 47.9472 50.2959 48.0841C50.2435 48.7194 50.1367 49.3502 50.0446 49.9832C49.9569 50.586 50.2161 51.1865 50.7321 51.5102C51.9569 52.2785 53.3054 52.8319 54.6597 53.3643C56.0365 53.9056 57.6297 53.4845 58.5036 52.2908C60.0342 50.2 61.4928 48.0577 62.8773 45.8674C63.5004 44.8817 63.1339 43.5808 62.0783 43.085C61.0435 42.599 59.8275 43.1128 59.1784 44.0539C57.2802 46.8066 53.9054 48.7474 50.5713 47.8918ZM58.869 48.8311C58.8695 48.83 58.8701 48.8289 58.8708 48.8279C59.6727 47.5937 60.3357 46.4708 60.5577 46.5852C60.7474 46.6837 60.4589 47.91 59.5755 49.2899C58.6945 50.6036 57.7988 51.4988 57.6147 51.3688C57.4307 51.2388 58.0148 50.1061 58.8671 48.8345C58.8678 48.8334 58.8685 48.8323 58.869 48.8311Z" fill="#FF8E0A"/>
<path d="M22.0932 35.9917C22.0198 35.9121 21.9086 35.8806 21.8037 35.9074C18.274 36.8074 14.9082 38.2262 11.4486 39.369C10.5119 39.6784 10.0805 40.7741 10.5983 41.6137C11.0481 42.3429 12.0234 42.5444 12.7264 42.0547C13.3827 41.5976 14.0449 41.1446 14.7152 40.7056C17.0797 39.1532 19.5456 37.7971 22.0136 36.4444C22.1805 36.3529 22.2223 36.1315 22.0932 35.9917Z" fill="#FF8E0A"/>
<path d="M24.5135 40.1141C23.7511 38.6475 22.0141 38.0817 20.5757 38.8958C18.3702 40.1441 16.2179 41.4861 14.1251 42.918C13.0808 43.6617 12.7955 45.1009 13.5351 46.148C14.8056 47.9466 16.1928 49.6516 17.7831 51.1142C19.2274 52.4424 21.4176 51.7448 22.1174 49.9117C22.9043 47.8503 23.6741 45.7827 24.6437 43.8044C25.21 42.6487 25.107 41.256 24.5135 40.1141ZM18.9137 49.9647C18.1798 48.9472 17.3832 47.9778 16.5288 47.0596C15.8659 46.3828 15.4618 45.9753 15.5276 45.8962C15.5802 45.8297 16.0833 46.0938 16.8524 46.6705C17.3011 47.0385 17.7299 47.4298 18.1368 47.8428C18.5977 48.3104 19.4115 48.1775 19.6517 47.5665C20.2473 45.872 21.0165 44.2443 21.9478 42.7087C22.1493 42.4278 22.3287 42.1699 22.4902 41.942C22.6644 41.7304 22.8336 41.5556 22.9651 41.4135C23.231 41.1349 23.4034 41.0005 23.4471 41.037C23.4909 41.0735 23.4119 41.2788 23.225 41.6103C23.1339 41.7719 23.0201 41.9701 22.8829 42.2068C22.7456 42.4436 22.616 42.7108 22.4617 43.007C21.7013 44.591 21.0262 46.2146 20.4375 47.8699C20.1655 48.5753 19.8808 49.2487 19.6025 49.8838L19.5988 49.8923C19.4772 50.1758 19.0919 50.2165 18.9137 49.9647Z" fill="#FF8E0A"/>
<path d="M9.35464 44.411C9.44921 44.544 9.63295 44.5783 9.77023 44.4901C9.97868 44.353 10.1889 44.2101 10.3946 44.0667C10.5295 43.9724 10.5687 43.7874 10.4811 43.6481C9.98605 42.8729 9.50356 42.0881 9.02595 41.3137L8.13232 39.8747C8.04773 39.7534 8.03538 39.5951 8.09968 39.4617C8.17583 39.3062 8.32196 39.1969 8.49172 39.1676C8.57169 39.1576 8.64519 39.1165 8.69523 39.0533C8.74845 38.9943 8.81825 38.952 8.89495 38.9332C10.8525 38.3777 12.7882 37.6757 14.6592 36.9963C17.0284 36.0853 19.449 35.311 21.9069 34.678C21.9724 34.6611 22.0418 34.6683 22.1025 34.698C22.195 34.7434 22.3048 34.7352 22.3895 34.6765L22.3977 34.6708C22.4422 34.6398 22.5271 34.6597 22.5544 34.7066C22.5788 34.7486 22.6001 34.7923 22.618 34.8379L22.657 34.9193C22.671 34.9485 22.6875 34.9765 22.7064 35.0029C22.7222 35.025 22.7395 35.0459 22.7584 35.0653C22.8251 35.1335 22.8927 35.1982 22.9593 35.2625C23.1171 35.4071 23.2619 35.566 23.3913 35.7356C23.4828 35.8641 23.6585 35.9019 23.7964 35.8252C24.136 35.6319 24.4797 35.4421 24.8758 35.2214L24.9967 35.1526C25.1411 35.0706 25.1951 34.8893 25.1193 34.7416C24.8676 34.253 24.6285 33.7548 24.3963 33.2591L24.3942 33.2546C24.3358 33.1305 24.2025 33.0598 24.067 33.0812C23.6867 33.1404 23.3064 33.2068 22.9267 33.2735C20.849 33.6361 18.8846 33.9773 16.9103 33.3127C16.6205 33.21 16.5541 32.9884 16.4541 32.5637C16.4273 32.4522 16.4001 32.3397 16.3678 32.2314C16.0621 31.2136 15.8384 30.2004 15.6421 29.2575C15.6069 29.0906 15.443 28.984 15.2761 29.0194L14.2606 29.2353C14.072 29.2754 13.965 29.4755 14.0363 29.6546C14.2628 30.2638 14.4512 30.8855 14.6027 31.5168C14.7855 32.3144 15.0391 33.0938 15.3615 33.845C15.4259 33.9912 15.4548 34.1625 15.4133 34.3168C15.3783 34.447 15.2845 34.559 15.1514 34.6123C14.1838 35.0308 13.2252 35.4665 12.2659 35.902C11.5572 36.2245 10.8476 36.5475 10.1344 36.8623C9.9646 36.9371 9.78852 37.0219 9.60495 37.1089C8.87495 37.5507 8.03923 37.786 7.18742 37.7905C5.46034 37.5557 4.61421 36.1346 3.71607 34.6285C3.49981 34.266 3.28628 33.9063 3.05948 33.5665C2.97935 33.4459 2.82596 33.3975 2.69108 33.4501C2.44012 33.5481 2.18573 33.6413 1.93135 33.7344L1.68219 33.826C1.47773 33.9012 1.41321 34.1587 1.55807 34.3213C4.33461 37.542 6.93766 40.9103 9.35464 44.411Z" fill="#FF8E0A"/>
<path d="M32.2915 20.7946C32.2518 20.8093 32.2266 20.8467 32.2194 20.8884C32.2054 20.9697 32.1783 21.048 32.1391 21.1201C31.7848 21.7959 31.5802 22.5196 31.4186 23.2576C31.0804 24.802 31.8792 26.44 33.29 27.1537C34.0294 27.5278 34.7671 27.9048 35.5074 28.2782C36.1995 28.6274 37.0162 28.6272 37.7119 28.2852C39.3372 27.4862 39.5693 25.2848 38.0814 24.2524C36.2559 22.9856 34.3526 21.8329 32.3822 20.801C32.3542 20.7863 32.3211 20.7836 32.2915 20.7946Z" fill="#FF8E0A"/>
<path d="M50.4546 93.6496C51.6523 95.0903 53.8282 95.0605 54.9615 93.5686C56.4189 91.6499 57.7778 89.6241 59.24 87.7633C60.0891 86.6806 60.016 85.1191 59.1456 84.0534C57.9965 82.6467 56.8631 81.2313 55.1622 80.5112C55.1399 80.502 55.1181 80.4919 55.0969 80.4808C54.9941 80.427 54.8886 80.3747 54.78 80.334C54.2209 80.1284 53.6591 79.9336 53.0946 79.7482C51.9507 79.3725 51.0945 80.5283 51.9698 81.3549C52.1315 81.495 52.2163 81.6958 52.2141 81.8994C52.2117 82.1247 52.1678 82.3608 52.0955 82.5742C51.27 84.8297 50.3305 87.0416 49.2811 89.2011C48.7447 90.3049 48.8323 91.6233 49.5929 92.5863C49.8757 92.9443 50.1629 93.2988 50.4546 93.6496ZM51.2209 88.1027C51.2456 88.0479 51.2708 87.9934 51.2968 87.9393C51.897 86.6858 52.3626 86.914 51.812 88.19C51.7889 88.2435 51.7654 88.2979 51.7416 88.353C51.5822 88.7265 51.4417 89.1079 51.3215 89.4963C51.2568 89.697 51.2137 89.9035 51.1939 90.1136C51.1915 90.1353 51.1898 90.1571 51.1888 90.179C51.1833 90.2924 51.1518 90.4465 51.2449 90.5115C51.2654 90.5267 51.2638 90.5422 51.2987 90.5909C51.603 90.9853 51.95 91.3451 52.331 91.6646C52.6263 91.9293 52.9042 92.212 53.1633 92.5117C53.2107 92.5666 53.2974 92.5739 53.3479 92.5218C53.7995 92.115 54.1836 91.6426 54.5745 91.2133C54.9402 90.7544 55.3094 90.3264 55.6295 89.8837C56.2919 89.024 56.8715 88.2242 57.3876 87.572C58.425 86.2577 59.2024 85.5618 59.2838 85.6322C59.3747 85.719 58.7724 86.5399 57.8721 87.9178C57.4196 88.6109 56.8941 89.4407 56.2537 90.3438C55.9504 90.8024 55.5824 91.2594 55.2123 91.7381C54.8129 92.2277 54.386 92.6931 53.9323 93.1323C53.7716 93.2835 53.6183 93.4325 53.4596 93.5847C53.2667 93.7706 52.9493 93.7188 52.8254 93.4813L52.8122 93.4558C52.5239 93.0095 52.1747 92.6056 51.7751 92.2563C51.3471 91.8793 50.9676 91.45 50.6454 90.9791C50.5968 90.8989 50.557 90.8138 50.5269 90.7252C50.5026 90.6587 50.4853 90.5898 50.4744 90.519C50.4488 90.3577 50.4501 90.1927 50.4765 90.0311C50.5146 89.7743 50.5815 89.522 50.6756 89.2806C50.8328 88.8769 51.0147 88.4828 51.2209 88.1027Z" fill="#FF8E0A"/>
<path d="M46.2032 88.2488C46.1354 88.3582 46.1417 88.4981 46.2192 88.6009L46.2214 88.6038C46.4563 88.9157 46.6876 89.2284 46.9189 89.5427C47.153 89.8581 47.6382 89.8123 47.8093 89.4588L48.1959 88.6594C49.2571 86.5923 50.1815 84.4573 50.9629 82.2694C50.9997 82.1589 50.9709 82.0368 50.889 81.9541C49.8066 80.8262 48.9485 79.5027 48.3599 78.0533C48.3133 77.9618 48.3087 77.8549 48.3484 77.7605C48.3673 77.6954 48.3737 77.6272 48.3899 77.5614C48.4007 77.5173 48.4182 77.4751 48.4415 77.4362C48.4901 77.3552 48.571 77.2922 48.6647 77.2799C48.7159 77.2731 48.7687 77.2784 48.8185 77.2964C51.0351 77.8557 53.0175 78.4525 54.8805 79.1206C55.0162 79.1694 55.1683 79.1148 55.2436 78.9918C55.7674 78.1954 56.3717 77.4541 57.0465 76.7805L57.4819 76.3109C58.2331 75.4307 58.8868 74.4729 59.4319 73.4525C59.6676 73.0454 59.9016 72.635 60.1579 72.2358C60.226 72.1278 60.2213 71.9885 60.1454 71.8858C59.4289 70.8082 58.8623 69.6393 58.4596 68.4083C58.0367 67.1112 57.4313 65.8813 56.6623 64.7559C56.5518 64.6081 56.3366 64.5908 56.2038 64.719L54.9369 65.9415C54.8603 66.0155 54.8267 66.1234 54.8479 66.2278C55.2158 67.5336 55.8382 68.7534 56.6784 69.817C57.1015 70.407 57.4879 71.0239 57.8329 71.6637C57.869 71.7154 57.9164 71.7587 57.9534 71.8098C57.9925 71.864 58.0151 71.9296 58.0168 71.9982C58.0196 72.0986 57.977 72.1958 57.9017 72.2623C57.3761 72.8322 56.8913 73.4381 56.4511 74.0768C55.229 75.7665 54.1752 77.226 51.7928 76.6961C50.1674 76.2559 48.6647 75.4479 47.3998 74.3352C47.2693 74.2322 47.0806 74.251 46.9731 74.3779L46.7336 74.6605C46.447 74.9993 46.1578 75.3386 45.8732 75.6906C45.6598 75.9554 45.4492 76.2142 45.2367 76.477L45.1191 76.6212C45.0322 76.7276 45.0264 76.8788 45.1049 76.9916C46.237 78.6232 47.3873 80.4143 48.6236 82.4685C48.67 82.5428 48.6935 82.63 48.6897 82.7184L48.6897 82.7199C48.6878 82.7724 48.699 82.8245 48.7223 82.8716C48.7743 82.981 48.7717 83.1088 48.7152 83.2166C48.5712 83.5274 48.4343 83.8399 48.2955 84.1515C47.7094 85.571 47.0101 86.9413 46.2032 88.2488Z" fill="#FF8E0A"/>
<path d="M47.0556 84.0948C47.3726 83.383 47.3044 82.562 46.8952 81.8988C46.6713 81.5359 46.4454 81.1744 46.2173 80.8144C45.3116 79.385 43.2889 79.2876 42.0913 80.4831C41.2703 81.3027 41.0266 82.5697 41.7839 83.4484C42.169 83.8951 42.5958 84.3276 43.0354 84.7534C44.2544 85.9345 46.365 85.6454 47.0556 84.0948Z" fill="#FF8E0A"/>
<path d="M72.9123 65.5786C73.9808 67.0631 76.1774 67.2361 77.4244 65.8982C78.2856 64.9743 79.1031 64.0174 79.7909 62.971C80.4101 62.0288 80.0769 60.8106 79.2225 60.075C77.7595 58.8156 75.0733 59.2997 73.9436 60.865C73.6673 61.2479 73.3773 61.6225 73.0796 61.9899C72.2376 63.0291 72.131 64.4931 72.9123 65.5786Z" fill="#FF8E0A"/>
<path d="M9.71237 48.5251C9.51838 48.6476 9.4639 48.9103 9.60243 49.0932C11.5099 51.6116 13.3536 54.1865 15.2037 56.7346C15.5436 57.2031 15.8693 57.6873 16.1882 58.18C16.807 59.1357 18.1652 58.994 18.4857 57.9015C18.63 57.4096 18.503 56.8749 18.1327 56.5205C15.4586 53.962 12.1428 51.8725 10.2774 48.6624C10.163 48.4655 9.9049 48.4036 9.71237 48.5251Z" fill="#FF8E0A"/>
<path d="M22.2898 58.5561C23.5464 59.7639 24.9508 60.8064 26.4701 61.6586C26.5836 61.7244 26.7262 61.7115 26.8261 61.6263L27.1657 61.3366C27.6278 60.9426 27.5678 60.2116 27.0476 59.8982C26.1278 59.3742 25.2407 58.794 24.3913 58.1615L24.2986 58.0893C24.059 57.9449 23.8518 57.755 23.6884 57.5311C23.5441 57.3333 23.4609 57.0957 23.4504 56.8511C23.4157 56.0361 23.8346 55.1635 24.2429 54.3178C24.4304 53.9273 24.6087 53.5585 24.7421 53.1957C25.0885 52.2601 25.4316 51.3247 25.7718 50.3887C26.511 48.3547 27.2748 46.2519 28.0925 44.2107C28.1197 44.1431 28.1218 44.0675 28.0987 43.9984C28.059 43.8956 28.0617 43.7815 28.1082 43.6813C28.1585 43.6007 28.2411 43.5464 28.3347 43.5313C29.9655 43.0979 31.6805 43.7096 33.3397 44.3003C33.9299 44.5107 34.5401 44.727 35.1148 44.8871C35.2069 44.9061 35.3027 44.9061 35.3945 44.9268C35.4881 44.9479 35.5744 44.9962 35.6421 45.0674C35.7116 45.1565 35.7356 45.274 35.7058 45.3836C35.5313 46.7147 35.6949 48.0685 36.1813 49.318C36.2777 49.6355 36.3712 49.9573 36.4595 50.2816C36.6213 50.9884 36.709 51.7103 36.7208 52.4351C36.7334 52.6854 36.7468 52.9376 36.7659 53.1966C36.7723 53.2612 36.7812 53.3206 36.7891 53.3803L36.8024 53.4844C36.8311 53.7092 37.0843 53.8271 37.2748 53.7045C37.8077 53.3581 38.3433 53.0177 38.884 52.6806C39.1271 52.5262 39.374 52.3743 39.6583 52.2008C39.794 52.1172 39.844 51.944 39.7742 51.8007C37.6365 47.3993 37.5218 44.1494 39.4398 42.144C40.6052 40.9184 42.6532 41.1486 44.2988 41.3343C44.5171 41.3592 44.7297 41.3823 44.9324 41.4024C48.6491 41.7686 51.682 40.5576 53.4823 37.977C53.5007 37.9506 53.5154 37.9216 53.5262 37.8913C53.5756 37.7521 53.5369 37.5968 53.4278 37.4971L53.406 37.4771C53.1592 37.2555 52.9114 37.0343 52.6661 36.8077C52.5329 36.6852 52.3221 36.7032 52.2131 36.8477C51.0625 38.4967 49.445 39.7653 47.572 40.4891C46.1686 40.9296 44.6534 40.0842 43.3115 39.3378C42.9446 39.1327 42.5913 38.9365 42.2528 38.7714C42.1117 38.711 42.0225 38.5773 42.0146 38.4313C42.0101 38.3488 42.0273 38.2661 42.0269 38.1835C42.0333 37.7789 42.0678 37.3694 42.0992 36.9561C42.2011 36.0679 42.2022 35.1704 42.1006 34.283C41.8168 32.4519 40.6102 31.955 39.335 31.4262C39.0649 31.314 38.7894 31.2033 38.5052 31.0659C37.9353 30.7959 37.3741 30.5195 36.8131 30.2423C36.7267 30.2023 36.6263 30.2035 36.5407 30.2451C36.3066 30.3591 36.0713 30.4757 35.8413 30.5931L35.5071 30.7593C35.285 30.8697 35.2747 31.1827 35.489 31.3075C36.7402 32.0346 38.2294 32.8802 39.7859 33.6312C39.8179 33.646 39.847 33.6652 39.873 33.6878C39.9067 33.7162 39.9462 33.7371 39.9887 33.7489L39.9894 33.7491C40.0862 33.7671 40.1723 33.8257 40.2246 33.9101C40.277 33.9944 40.291 34.0968 40.2645 34.1924C39.9416 35.9078 39.7686 37.6473 39.748 39.3915L39.7193 40.1076C39.7135 40.2528 39.744 40.4179 39.6509 40.5295C39.6032 40.587 39.5345 40.6217 39.4613 40.6259L39.4338 40.6292C39.3695 40.6368 39.3113 40.6709 39.2732 40.7233C39.261 40.7401 39.2466 40.7552 39.2303 40.7681C38.7279 41.1667 38.1831 41.5085 37.6059 41.7866C37.1227 42.0294 36.6565 42.3053 36.211 42.6119C36.1281 42.686 36.0191 42.715 35.9158 42.6978C35.8002 42.6786 35.6994 42.607 35.5892 42.5672C34.2667 42.1911 32.9149 41.9248 31.5487 41.7688C30.7423 41.6547 29.9091 41.5372 29.1041 41.3726C28.9437 41.3469 28.8138 41.2274 28.7765 41.0688C28.7519 40.9773 28.7136 40.8899 28.6628 40.8099L28.0588 39.8576C27.3171 38.6319 26.551 37.3646 25.8455 36.091C25.8325 36.0676 25.8169 36.0458 25.799 36.0259C25.6921 35.9078 25.5188 35.877 25.3778 35.9512L25.3509 35.9654C24.9883 36.1611 24.6306 36.346 24.2693 36.539C24.1192 36.6203 24.0632 36.8077 24.1437 36.9582C24.346 37.3402 24.5338 37.7293 24.7212 38.1191C25.2141 39.2863 25.8829 40.3694 26.7033 41.3328C26.7541 41.3855 26.7911 41.4506 26.8105 41.5221C26.8263 41.5803 26.859 41.6328 26.9041 41.6727C26.9617 41.7197 26.9964 41.7878 27.0031 41.8623C27.0157 42.0083 26.9003 42.1304 26.8287 42.2581C25.452 44.7107 24.2969 47.2821 23.3765 49.9406C22.8152 51.4147 22.2365 52.9384 21.5843 54.3922C21.5619 54.4387 21.5332 54.4814 21.4991 54.52C21.4754 54.5448 21.4571 54.5744 21.4456 54.6068L21.4445 54.6099C21.4074 54.7283 21.3217 54.8258 21.2085 54.8764C21.1104 54.9081 21.0026 54.8947 20.9165 54.8377C16.6139 52.4668 13.6392 48.49 11.297 44.9121C11.2024 44.768 11.0065 44.7298 10.863 44.8254C9.72366 45.5987 8.76603 46.2086 7.85076 46.7464C7.6894 46.8411 7.64818 47.0561 7.7631 47.2038L7.94376 47.4358C8.02331 47.5417 8.1042 47.6483 8.18903 47.755C8.28207 47.8717 8.44577 47.9049 8.57674 47.8333C8.9826 47.6106 9.37015 47.3559 9.73481 47.0703C9.79986 47.0225 9.87873 46.999 9.95905 47.0037C10.0177 47.0049 10.0754 46.9892 10.1253 46.9584L10.127 46.9574C10.2572 46.8773 10.414 46.855 10.5607 46.8962C10.6837 46.9329 10.7819 47.0248 10.8264 47.1452C11.9861 49.808 14.2784 51.7031 16.4942 53.5366C17.693 54.4814 18.8265 55.5063 19.8854 56.6062C20.0421 56.7795 20.0573 57.0399 19.9217 57.2312L19.9213 57.2318C19.9075 57.2546 19.8963 57.2788 19.8879 57.304C19.7577 57.7122 19.6371 58.1223 19.5162 58.5332C19.2388 59.5973 18.867 60.6348 18.4047 61.6336C18.3896 61.6663 18.3697 61.6969 18.3458 61.724C18.2599 61.8301 18.2527 61.9813 18.3296 62.094C18.5843 62.4696 18.8471 62.8366 19.1229 63.1894C19.2605 63.3682 19.538 63.3421 19.6418 63.1417C20.1729 62.1148 20.6598 61.0439 21.128 60.0114L21.5704 59.0573C21.5863 59.0229 21.5991 58.9871 21.6084 58.9504C21.6162 58.92 21.621 58.8888 21.6267 58.8579C21.6596 58.6813 21.7784 58.5306 21.9444 58.4582C22.0691 58.4145 22.2068 58.4542 22.2898 58.5561Z" fill="#FF8E0A"/>
<path d="M44.0512 71.4876C43.8739 71.3412 43.6045 71.4328 43.5531 71.657L43.552 71.6621C43.4032 72.3896 43.1939 73.1045 42.9251 73.7976C42.8832 73.9008 42.8993 74.0192 42.9677 74.1072C43.3903 74.6425 43.8055 75.185 44.2074 75.7335C44.3259 75.8958 44.5657 75.9024 44.6932 75.747L45.3763 74.9138C45.6775 74.5452 45.98 74.1755 46.2836 73.8088C46.3915 73.6785 46.3753 73.4853 46.2467 73.3752C45.9481 73.1206 45.6533 72.8646 45.3622 72.6111C44.9181 72.22 44.4842 71.8418 44.0512 71.4876Z" fill="#FF8E0A"/>
<path d="M-0.293887 37.65C-0.656729 37.4274 -1.07266 37.1517 -1.5406 36.8852C-1.65445 36.8219 -1.77414 36.7607 -1.89355 36.6988C-1.93245 36.6787 -1.97248 36.6601 -2.01196 36.6428C-2.15978 36.5783 -2.3151 36.5324 -2.47064 36.4898C-2.54116 36.4705 -2.61121 36.452 -2.67747 36.4385C-2.80923 36.4277 -2.93284 36.4029 -3.07312 36.3931C-3.6168 36.3641 -3.87032 37.0439 -3.46413 37.4065C-0.327463 40.2061 3.03724 42.7377 6.20514 45.5061C6.54527 45.8033 7.03669 45.8576 7.42489 45.6266C7.9375 45.3217 8.07475 44.6464 7.7328 44.1577C5.43179 40.8689 2.95246 37.7076 0.308143 34.6885C0.305053 34.6849 0.30243 34.6811 0.30014 34.677C0.28821 34.6556 0.262126 34.6486 0.238945 34.6563C-0.651291 34.9532 -1.54664 35.2251 -2.46115 35.4704C-2.54651 35.4933 -2.54072 35.6202 -2.4535 35.6345C-2.28944 35.6716 -2.14805 35.7209 -2.00384 35.7658C-1.69614 35.8858 -1.4026 36.0397 -1.12952 36.2256C-0.713167 36.5161 -0.314808 36.8332 0.0615659 37.1749C0.692761 37.7542 1.04483 38.1432 0.983425 38.239C0.922695 38.335 0.424092 38.1015 -0.293887 37.65Z" fill="#FF8E0A"/>
<path d="M42.4533 61.9086C42.516 61.8284 42.5627 61.7344 42.6361 61.6638C42.6774 61.6241 42.7268 61.593 42.7816 61.5732C42.8857 61.5354 42.9995 61.5411 43.0981 61.5884C45.2031 62.4564 47.3644 63.1808 49.5678 63.7567C51.1037 64.1961 52.6899 64.6457 54.216 65.2007C54.3245 65.24 54.4458 65.2154 54.5304 65.137C54.6525 65.0238 54.7708 64.9082 54.9263 64.7578C55.1076 64.5885 55.2862 64.418 55.4651 64.2468L55.8282 63.9005C55.8606 63.8696 55.8893 63.835 55.9136 63.7974L55.9306 63.7712C55.9518 63.7383 55.9678 63.7023 55.9779 63.6645L55.9898 63.6198C56.0307 63.4662 55.9527 63.3059 55.8066 63.2432C55.3336 63.0434 54.85 62.8736 54.3557 62.7337C48.4051 61.057 43.8484 58.9353 40.9759 54.0404C40.8057 53.7495 40.63 53.4391 40.4492 53.1084C40.3644 52.9532 40.1661 52.9016 40.0161 52.9953C39.1186 53.556 38.23 54.1216 37.3502 54.6928C37.2221 54.7759 37.173 54.9405 37.2355 55.0797C37.9915 56.7562 39.5214 57.6694 41.1408 58.6354C41.4203 58.8023 41.703 58.9708 41.9904 59.1486C42.1152 59.2249 42.1952 59.3491 42.2192 59.4845C42.2547 59.6842 42.1749 59.9236 41.9908 60.0087C41.9402 60.0321 41.8834 60.0434 41.8248 60.0397C41.7126 60.017 41.5965 60.0589 41.5252 60.1484C40.5834 61.3925 39.7731 62.7317 39.1069 64.1424C38.707 64.9192 38.2932 65.7228 37.833 66.4831C37.8099 66.5268 37.7811 66.5665 37.7476 66.6016C37.6255 66.7295 37.4304 66.7744 37.2624 66.719C37.2062 66.7005 37.1529 66.6732 37.1045 66.6373C35.5015 65.5993 33.905 64.4945 32.3595 63.4264C31.2652 62.6697 30.1712 61.9124 29.0674 61.1724C28.9523 61.0955 28.8002 61.1046 28.695 61.1945L27.8277 61.9363C27.662 62.0782 27.6902 62.3422 27.8823 62.4458C28.4502 62.7513 29.0232 63.0495 29.5959 63.3467C31.9518 64.4504 34.1621 65.8382 36.1786 67.482C36.2036 67.505 36.2261 67.53 36.2461 67.557C36.2633 67.5801 36.28 67.6037 36.2989 67.6255C36.3249 67.6553 36.3551 67.6813 36.3835 67.7088C36.4539 67.777 36.4999 67.8672 36.5133 67.966C36.5288 68.0845 36.496 68.204 36.4217 68.2979C35.475 69.5998 34.6734 71.0022 34.0304 72.4782C33.4967 73.6606 32.876 74.8019 32.1735 75.8929C32.0825 76.0265 32.1098 76.2082 32.2365 76.3086C32.7572 76.7214 33.2894 77.1232 33.8324 77.5139L33.8563 77.5314C34.0002 77.6372 34.205 77.5846 34.2801 77.4225C34.2879 77.4057 34.2974 77.3897 34.3083 77.3747C36.1191 74.8917 37.5779 72.1705 38.6447 69.2886C39.6309 66.6922 40.9084 64.2161 42.4533 61.9086Z" fill="#FF8E0A"/>
<path d="M74.7789 55.4223C74.7817 55.3978 74.7803 55.3712 74.7638 55.3529C74.4838 55.0415 74.2063 54.7331 73.9312 54.4341C73.9211 54.4214 73.9018 54.4218 73.8928 54.4353C72.4176 56.6648 71.2226 60.8818 68.3964 61.4848C67.373 61.7045 66.7014 60.858 65.9781 60.2644C65.3352 59.7381 64.674 59.2381 64.0083 58.7452C63.5801 58.4281 62.9839 58.4754 62.6088 58.8538C62.1141 59.353 62.215 60.1864 62.7928 60.5865C64.5747 61.8206 66.1695 63.3091 67.5264 65.0072C68.79 66.6729 69.5589 68.6372 70.5963 70.43C71.1261 71.3455 72.374 71.3562 73.0626 70.5535C73.5675 69.9648 73.6151 69.1096 73.1599 68.4817C72.1049 67.0265 71.0346 65.5816 70.0379 64.0859C69.8447 63.8063 69.8634 63.4309 70.0835 63.1708C72.0754 60.9342 74.3442 58.5011 74.7789 55.4223Z" fill="#FF8E0A"/>
<path d="M51.4576 46.5255C53.0425 46.5905 54.6079 46.1496 55.9293 45.2667C56.8907 44.6242 57.6869 43.7718 58.2615 42.7804C58.6257 42.1521 58.2895 41.3839 57.6261 41.0885C57.0771 40.8441 56.4363 40.9816 56.0251 41.4198C54.5496 42.9924 52.9595 44.4537 51.2683 45.7908C50.968 46.0282 51.0758 46.4976 51.4576 46.5255Z" fill="#FF8E0A"/>
<path d="M43.7202 27.0884C44.2649 27.5488 44.8088 28.0162 45.3426 28.4935C46.784 29.7805 48.1952 31.1957 49.5585 32.5643C51.679 34.7938 53.9537 36.8716 56.366 38.7802C56.4974 38.8797 56.6854 38.8558 56.7898 38.7283C56.8965 38.5959 56.9986 38.4613 57.1 38.3264L57.2816 38.0891C57.3911 37.946 57.3568 37.7402 57.2069 37.6404C57.1556 37.606 57.1107 37.5633 57.0761 37.5123C55.5351 35.4118 53.6593 33.5799 51.5242 32.0906C49.1891 30.265 46.9841 28.541 45.6239 25.9617C45.5436 25.811 45.3553 25.7544 45.2046 25.8346C44.9027 25.9935 44.5985 26.1504 44.2956 26.3064L43.7747 26.579C43.5802 26.6808 43.5516 26.9477 43.7202 27.0884Z" fill="#FF8E0A"/>
<path d="M59.4077 40.5793C63.5749 42.4255 67.883 44.3361 71.1743 47.5446C71.3011 47.6685 71.5061 47.6599 71.6221 47.5258L72.5107 46.4986C72.6401 46.3489 72.5974 46.1179 72.4229 46.0245C70.7453 45.0843 69.1232 44.0488 67.5649 42.9227C64.8016 41.0049 61.9444 39.0175 58.5613 38.1642C58.4409 38.134 58.3136 38.1795 58.2388 38.2786C57.981 38.6235 57.7275 38.9607 57.4644 39.2925C57.3388 39.4506 57.3942 39.6847 57.5774 39.7696C58.1857 40.037 58.7929 40.3105 59.4077 40.5793Z" fill="#FF8E0A"/>
<path d="M69.7978 74.5814C70.3827 73.837 70.371 72.7877 69.8739 71.9821C68.6317 69.9692 67.8337 67.7047 66.3006 65.8637C64.9111 64.2157 63.3033 62.7697 61.5229 61.5635C60.946 61.1726 60.1783 61.2663 59.6816 61.7551C58.9721 62.4534 59.117 63.6359 59.8599 64.2986C60.119 64.5298 60.3668 64.7739 60.6021 65.0304C62.2873 66.8056 63.7494 68.7795 64.9577 70.91C65.5396 71.9793 66.0373 73.0896 66.5335 74.2009C67.1324 75.5422 68.8904 75.7365 69.7978 74.5814Z" fill="#FF8E0A"/>
<path d="M64.9087 56.5323C64.6078 56.8416 64.6519 57.3489 64.999 57.6053C65.6755 58.1009 67.748 60.4543 68.6889 59.6678C70.3547 58.2832 71.1362 56.1305 72.2416 54.2653C72.6088 53.6457 72.5864 52.8573 72.1893 52.2563C71.5438 51.2793 70.0949 51.0281 69.3025 51.8902C67.8609 53.4585 66.3943 55.0047 64.9087 56.5323Z" fill="#FF8E0A"/>
<path d="M20.5241 66.0186C18.9569 64.4897 17.6153 62.7447 16.5385 60.8367C15.9681 59.9291 15.3781 58.9906 14.7366 58.1069C14.1917 57.359 13.6478 56.609 13.1048 55.8571C11.1466 53.1539 9.12207 50.3583 7.03209 47.6914C6.98383 47.63 6.91381 47.589 6.83662 47.5772C6.79801 47.5715 6.76085 47.5591 6.72648 47.5408C6.63571 47.4926 6.52661 47.4921 6.43561 47.5399C6.12858 47.7012 5.81444 47.8551 5.50165 48.0097L5.42822 48.0455C5.27988 48.1176 5.21442 48.2936 5.27956 48.4451C8.417 55.7566 13.7762 61.6841 19.0017 67.1308C19.1004 67.2333 19.2565 67.255 19.3795 67.1833C19.7517 66.9669 20.126 66.7459 20.488 66.5151C20.6611 66.4039 20.6776 66.1557 20.5241 66.0186Z" fill="#FF8E0A"/>
<path d="M20.9744 64.8111C21.3439 65.1583 21.9069 65.1759 22.3155 64.8758C22.856 64.4787 23.3877 64.0697 23.9128 63.652C24.6636 63.0547 24.5639 61.892 23.7818 61.3364C23.034 60.8051 21.9649 61.0461 21.577 61.8773C21.3208 62.4264 21.058 62.9729 20.7806 63.5133C20.5583 63.9462 20.6198 64.4779 20.9744 64.8111Z" fill="#FF8E0A"/>
<path d="M5.56654 46.5263C4.02938 45.177 2.41991 43.8648 0.863222 42.5973C-1.78575 40.5133 -4.32623 38.2944 -6.74911 35.9515C-6.88335 35.8291 -6.93665 35.6404 -6.88603 35.465C-6.82698 35.2975 -6.67749 35.1792 -6.50156 35.1593C-1.89568 34.3703 2.56928 32.8987 6.74728 30.7938C8.51349 29.8955 10.366 29.1808 12.2753 28.6597C12.7111 28.5524 13.1524 28.468 13.5969 28.4061C14.4762 28.3526 15.3263 28.0688 16.0629 27.5829C16.1328 27.5276 16.1756 27.4447 16.1804 27.3557C16.1827 27.3072 16.1941 27.2597 16.2146 27.2156C17.19 24.9933 19.8016 24.0516 22.1753 23.3407C24.0985 22.7652 25.957 22.0078 27.7548 21.2751C29.0965 20.73 30.4868 20.1614 31.8897 19.6764C31.9256 19.664 31.9601 19.6478 31.9927 19.6281C32.0437 19.5972 32.0869 19.5546 32.136 19.5206C32.2455 19.4451 32.3937 19.4417 32.5084 19.5201C36.0607 21.3295 39.4052 23.5209 42.4839 26.0551C42.5775 26.1307 42.7078 26.1441 42.8155 26.0903C43.1817 25.9061 43.5497 25.7179 43.9138 25.5261C44.1387 25.4087 44.1343 25.0847 43.9058 24.9744C39.889 23.1509 36.1754 20.721 32.8941 17.7704C32.7995 17.6813 32.658 17.6619 32.5423 17.721C31.6679 18.169 29.6613 18.9542 27.3397 19.8655C18.2187 23.4418 14.2155 25.2518 14.5978 26.5284C14.6664 26.7365 14.5732 26.9636 14.3789 27.0635C14.2241 27.1687 14.0194 27.1583 13.8773 27.0388L13.8091 26.9921C13.7671 26.9633 13.7192 26.9442 13.6689 26.9363C13.649 26.9331 13.6291 26.9281 13.61 26.9216C11.3646 26.1581 9.42154 27.0752 7.53912 27.9691L6.88289 28.2762C6.02858 28.6685 5.17041 29.0517 4.31219 29.435C3.37284 29.8536 2.43484 30.2729 1.50082 30.7029C-1.97552 32.3194 -5.40642 33.8133 -9.15231 34.3411C-9.3897 34.3745 -9.49741 34.6571 -9.34622 34.8431C-5.75887 39.2922 -1.6933 44.3335 4.38499 47.2671C4.42469 47.288 4.46088 47.3129 4.4949 47.3424L4.49851 47.3453C4.5792 47.4089 4.68631 47.4279 4.78398 47.3961L4.87614 47.3544C5.00334 47.2964 5.12743 47.233 5.25285 47.1702L5.49382 47.0522C5.69779 46.9523 5.73576 46.6777 5.56654 46.5263Z" fill="#FF8E0A"/>
<path d="M22.0623 67.3117C22.0287 67.2759 22.0032 67.2332 21.9871 67.1859C21.9632 67.0991 21.9023 67.0273 21.8206 66.9894L21.733 66.9487C21.631 66.8881 21.5033 66.891 21.4042 66.9563C21.0528 67.1888 20.6912 67.419 20.3244 67.6378C20.1288 67.7533 20.1187 68.0326 20.3056 68.1617C22.0784 69.4969 23.6686 71.0584 25.0389 72.806C25.9204 73.8367 26.834 74.9026 27.8203 75.8487C30.6506 78.5731 33.849 80.8858 37.323 82.7175C37.4238 82.7708 37.546 82.7639 37.6403 82.6998C37.9831 82.4666 38.3141 82.2239 38.6329 81.9779C38.8117 81.84 38.7884 81.5612 38.5874 81.4582C32.7107 78.4159 27.6087 74.0569 22.0623 67.3117Z" fill="#FF8E0A"/>
<path d="M66.5886 78.622C66.7451 78.4333 66.7676 78.1648 66.6524 77.9484C66.0281 76.7747 65.4414 75.556 64.8461 74.3368C64.4207 73.4655 63.4326 73.0569 62.4646 73.1132C61.604 73.1632 60.779 73.5863 60.3461 74.3318C60.0028 74.923 59.6329 75.4988 59.2374 76.0573C59.146 76.1863 59.0435 76.3069 58.9339 76.4207C58.8914 76.4649 58.8489 76.5092 58.8067 76.5536C57.439 77.9891 57.9053 80.3805 59.2026 81.88C59.2429 81.9266 59.2831 81.9733 59.3231 82.0202C60.5612 83.4691 62.6986 83.4059 63.8977 81.9247C64.7914 80.8209 65.6883 79.7201 66.5886 78.622Z" fill="#FF8E0A"/>
<path d="M59.0123 67.6697C59.4982 69.1433 60.2242 70.5246 61.1612 71.7592C61.1692 71.7697 61.1756 71.7813 61.1804 71.7935C61.1935 71.8274 61.2193 71.8548 61.2522 71.8701L61.3169 71.9001C61.3437 71.9126 61.3723 71.9209 61.4016 71.9248C62.0867 71.9932 62.7791 71.9415 63.447 71.7713C63.6499 71.7308 63.7568 71.5045 63.6573 71.3232C62.3885 68.7261 60.558 66.4458 58.2986 64.6488C58.0306 64.4541 57.6863 64.7617 57.8475 65.0511C58.2933 65.8976 58.6828 66.7715 59.0123 67.6697Z" fill="#FF8E0A"/>
<path d="M47.5724 47.0688C47.7862 46.9179 47.7278 46.5856 47.475 46.5178C46.8461 46.3244 46.1837 46.2682 45.5303 46.3509C45.1815 46.379 44.8592 46.5363 44.6236 46.7868C44.5014 46.9168 44.4191 47.0797 44.3735 47.2523C44.2474 47.7294 44.3078 48.2402 44.549 48.6769C44.6228 48.8559 44.8416 48.9234 45.0035 48.817C45.8669 48.2445 46.7281 47.6663 47.5724 47.0688Z" fill="#FF8E0A"/>
<path d="M41.8267 78.5992C42.8307 77.5307 42.8796 75.8947 41.971 74.744C41.8942 74.6467 41.817 74.5496 41.7394 74.4528C41.5587 74.2511 41.5306 73.9607 41.6567 73.7313C41.7015 73.6499 41.7467 73.5676 41.7791 73.4807C42.1659 72.4632 42.4508 71.409 42.6283 70.3351C42.6874 70.0873 42.8637 69.8832 43.0997 69.788C43.2424 69.7304 43.3963 69.7169 43.5429 69.7458C43.7356 69.7837 43.9214 69.8714 44.0785 69.9893C44.2528 70.1207 44.4258 70.2551 44.5978 70.3918C45.9771 71.4881 47.9537 71.3591 49.1583 70.0733C49.2447 69.981 49.3313 69.889 49.4181 69.7971C51.0696 68.0489 50.3996 65.2183 48.0901 64.5474C47.2591 64.3059 46.4302 64.0583 45.6085 63.7885C44.1832 63.3204 42.572 63.7694 41.8496 65.0843C40.0121 68.429 38.8865 72.1437 37.0018 75.4612C36.1568 76.9486 36.4565 78.9239 37.9516 79.7549C39.0009 80.3381 40.3056 80.1546 41.1498 79.3013C41.3785 79.0702 41.6041 78.8362 41.8267 78.5992Z" fill="#FF8E0A"/>
<path d="M62.4598 55.7421C62.8527 56.0384 63.4035 55.9902 63.7459 55.6366C65.6517 53.6683 67.5238 51.6702 69.3529 49.6311C69.9437 48.9726 69.9088 47.9602 69.2298 47.3932C68.4254 46.7215 67.2322 47.075 66.7345 47.9972C65.5095 50.2671 63.9149 52.3341 62.2956 54.3485C61.9497 54.7788 62.0189 55.4097 62.4598 55.7421Z" fill="#FF8E0A"/>
<path d="M83.7031 60.72C82.5886 59.5724 81.4093 58.4913 80.169 57.4819C77.0161 54.7987 73.4431 51.7585 73.0713 47.9673C73.0448 47.6974 72.7078 47.5909 72.5311 47.7965L72.4618 47.8771C72.2822 48.0845 72.1031 48.2929 71.9237 48.4948C71.8543 48.5726 71.8291 48.6811 71.8562 48.7818C72.5269 51.2932 74.3773 53.283 76.0585 54.9501C76.6666 55.5511 77.2551 56.2121 77.8242 56.8519C78.968 58.2592 80.2963 59.5043 81.7728 60.5568C81.8186 60.5835 81.857 60.6212 81.8855 60.666C81.9039 60.6949 81.9195 60.7256 81.9386 60.7541C81.9551 60.7789 81.9741 60.802 81.9917 60.8261C82.0804 60.9476 82.1001 61.1084 82.0391 61.2494C80.9962 63.8441 79.1504 65.7693 77.1957 67.8071C76.8065 68.2121 76.4163 68.619 76.0332 69.0317C74.1408 71.0643 72.3868 73.2765 70.6899 75.4199C69.8339 76.5 68.9792 77.579 68.1098 78.639C65.9361 81.2817 64.1424 83.4925 62.463 85.5995C62.4053 85.672 62.3829 85.7664 62.4019 85.857C62.4203 85.9744 62.3874 86.0923 62.3111 86.1836C62.2283 86.2994 62.1 86.3755 61.9584 86.3911C61.8723 86.3977 61.7928 86.4401 61.7393 86.5079L61.2355 87.1456C60.8674 87.6115 60.4986 88.077 60.1338 88.5445C59.3309 89.5728 58.5436 90.6686 57.7828 91.7285C56.408 93.7388 54.8975 95.6529 53.2608 97.4568C53.2129 97.5114 53.152 97.5521 53.084 97.5758C53.0446 97.5895 53.0042 97.6006 52.9662 97.6177C52.9153 97.6407 52.8701 97.6748 52.8206 97.7006C52.7692 97.7275 52.7112 97.74 52.6525 97.7358C52.5652 97.7302 52.4845 97.6879 52.429 97.6208C50.3516 95.4437 48.4326 93.1184 46.6879 90.6652C45.9756 89.713 45.2619 88.7585 44.5256 87.8179C43.8788 87.0349 43.1743 86.3014 42.4191 85.6232C41.4055 84.7553 40.5146 83.7536 39.7699 82.6443C39.675 82.485 39.4614 82.4449 39.3156 82.5595C39.1574 82.6842 38.9912 82.802 38.8268 82.9191L38.688 83.0189C38.5582 83.1123 38.5189 83.2881 38.5966 83.4278C38.622 83.4716 38.6395 83.5197 38.6494 83.5692C38.6541 83.5929 38.6599 83.6165 38.6692 83.6388L38.7074 83.7307C38.7085 83.7334 38.7106 83.7356 38.7132 83.7368C38.7153 83.7378 38.7171 83.7393 38.7183 83.7413C39.9663 85.775 41.3476 87.7236 42.8525 89.5747C43.8514 90.8563 44.884 92.1827 45.8127 93.5496C46.1544 94.0516 46.4913 94.5658 46.8318 95.081C48.6016 97.7683 50.4313 100.548 53.1293 102.386C53.2816 102.49 53.4905 102.438 53.5768 102.275C54.9184 99.8594 56.4152 97.5335 58.0577 95.3121C58.5204 94.6562 58.9809 94.0034 59.4315 93.3491C61.9903 89.6508 64.5133 86.052 67.2607 82.6764C68.756 80.8388 70.3222 79.0228 71.8368 77.2657C76.1307 72.2876 80.569 67.1408 83.7439 61.0753L83.745 61.0732C83.8056 60.9581 83.7889 60.8177 83.7031 60.72Z" fill="#FF8E0A"/>
<path d="M45.2241 52.1244C44.6404 51.4111 43.6067 51.1157 42.8273 51.6077C42.1378 52.0431 41.8819 52.942 42.3103 53.6358C43.1094 54.9297 44.0539 56.1291 45.1268 57.2099C47.9543 59.6439 51.0193 60.4974 54.516 61.5577C54.996 61.6985 55.4704 61.8571 55.9384 62.0328C56.5415 62.2592 57.2279 62.1403 57.6902 61.6917C58.4599 60.9448 58.28 59.6629 57.3039 59.2185C57.2173 59.1791 57.1305 59.1401 57.0433 59.1016C52.9904 57.3109 48.1874 55.59 45.2241 52.1244Z" fill="#FF8E0A"/>
<path d="M54.9855 39.2185C54.6602 38.9618 54.1848 39.0311 53.9224 39.3518C51.2324 42.6395 47.3505 42.6965 43.321 42.4261C38.7992 42.12 38.7449 45.5634 40.1302 49.2534C40.4981 50.2335 41.6833 50.5714 42.5685 50.0127C43.2448 49.5859 43.5059 48.7577 43.4096 47.9638C43.2154 46.3619 43.7767 45.0101 46.0101 45.1669C46.3535 45.2048 46.6945 45.26 47.0317 45.3321C48.1181 45.5643 49.2885 45.4641 50.16 44.7751C51.9087 43.3925 53.5507 41.8786 55.0715 40.2465C55.3512 39.9463 55.3076 39.4727 54.9855 39.2185Z" fill="#FF8E0A"/>
<path d="M50.5656 74.8968C52.1797 75.7158 53.7355 75.9866 54.9225 74.296C55.1734 73.9383 55.415 73.5754 55.6618 73.217C56.2218 72.4039 56.3481 71.349 55.8052 70.5243C54.8484 69.071 52.5655 68.6941 51.3608 69.9496C50.9316 70.3968 50.5065 70.8477 50.0858 71.3026C49.0529 72.4196 49.2156 74.1953 50.5656 74.8968Z" fill="#FF8E0A"/>
<path d="M23.0517 66.6522C24.7729 68.7904 26.629 70.8142 28.6082 72.7116C29.9939 74.0401 32.1736 73.7082 33.0078 71.9793C33.2205 71.5385 33.4309 71.0965 33.6479 70.658C34.3842 69.1706 34.1288 67.2905 32.7234 66.4077C31.452 65.6091 30.1156 64.9141 28.7787 64.2205C27.5988 63.6083 26.1653 63.7663 25.1291 64.5989C24.3691 65.2095 23.5964 65.8024 22.8001 66.3698C22.7841 66.3812 22.7779 66.4017 22.782 66.4209C22.7851 66.4355 22.7943 66.4484 22.8077 66.4551C22.902 66.5026 22.9855 66.5694 23.0517 66.6522Z" fill="#FF8E0A"/>
<path d="M29.1432 51.1244C28.6962 52.7639 28.1461 54.3742 27.4961 55.9439C27.4461 56.0648 27.4829 56.2073 27.5922 56.279C27.8678 56.4755 28.1387 56.6685 28.4045 56.8574C29.5685 57.685 31.1336 57.6262 32.2788 56.7727C32.879 56.3253 33.4856 55.8876 34.0976 55.4583C35.0722 54.7747 35.6276 53.6241 35.4622 52.4451C35.2897 51.2153 35.0707 49.9924 34.8056 48.779C34.7584 48.6232 34.7156 48.4662 34.6773 48.3083C34.3396 46.9143 33.5259 45.5394 32.172 45.066C31.8303 44.9465 31.4861 44.8367 31.1438 44.7481C29.99 44.4493 28.9473 45.2418 28.523 46.3556C27.7085 48.4935 26.9496 50.6512 26.1548 52.7982C25.7733 53.8165 24.024 56.4951 25.1718 57.2637C26.237 57.9769 27.2988 58.689 28.3646 59.4068C28.5608 59.5389 28.8222 59.5259 28.9989 59.3686C29.3671 59.0662 29.334 58.4927 28.9371 58.2291C28.3477 57.8378 27.7354 57.4182 27.1131 56.9751C26.9558 56.864 26.8039 56.7554 26.6516 56.6458C26.4854 56.5306 26.4247 56.3134 26.5071 56.1288L26.5098 56.1229C27.4096 54.1351 28.0751 52.274 28.6014 50.9381C28.7935 50.2655 29.398 50.473 29.1432 51.1244Z" fill="#FF8E0A"/>
<path d="M38.9421 61.9599C39.7085 60.6635 39.2819 59.0201 38.0771 58.1164C37.9528 58.0231 37.8308 57.9276 37.712 57.8296C36.6796 56.9789 35.1053 56.5607 34.0198 57.3424C33.4923 57.7223 32.9692 58.109 32.4508 58.5036C32.0484 58.81 32.068 59.4175 32.4876 59.6998C33.7371 60.4772 33.4378 60.9824 32.1857 60.2094C31.9664 60.0939 31.7387 59.9678 31.5014 59.8308C31.2433 59.6818 30.9197 59.7034 30.6902 59.8936C30.3294 60.1927 30.3612 60.754 30.7505 61.0148C31.9528 61.8203 33.1569 62.6247 34.3638 63.4241C35.8486 64.4075 37.8491 63.8434 38.7417 62.3023C38.808 62.1879 38.8748 62.0738 38.9421 61.9599Z" fill="#FF8E0A"/>
<path d="M74.3641 21.1005C78.0366 22.6889 80.6847 19.5367 82.8461 16.6879C85.8027 12.7908 87.2132 5.70955 85.0295 1.17011M65.5468 20.6683C61.6887 21.9248 58.9886 25.1941 56.5787 27.934M53.3076 32.5389C52.8298 33.5314 51.0018 34.995 50.409 35.9035M53.0479 0.56547C55.1412 -3.13559 57.2724 -7.73846 62.0176 -7.88998M38.679 51.2093C39.0454 51.7547 40.4085 53.0837 41.2154 52.9547C42.0737 52.8175 43.5503 50.7687 43.7193 50.0966M83.2751 4.59685C83.7438 7.34459 83.3084 9.85229 81.9347 12.2932M68.4516 20.3574C69.2557 20.5354 70.0591 20.6129 70.8653 20.8157" stroke="#FDFEFF" stroke-width="1.08787" stroke-linecap="round"/>
<path d="M88.1269 14.189C89.4114 10.1048 90.186 7.41339 89.3453 3.29373C88.5029 -0.833038 87.3265 -4.45596 84.5 -7.58892C81.8786 -10.4947 79.3178 -12.5796 75.5812 -13.7486C74.1235 -14.2044 72.3465 -14.8314 70.8363 -15.0702C66.3763 -15.7749 64.756 -14.9555 62.4423 -14.2818C61.0533 -13.8774 58.782 -12.7201 57.5514 -11.9657C56.1501 -11.1078 54.8451 -10.1386 53.8314 -8.76481C51.9143 -6.16953 51.7411 -5.91236 50.3559 -3.03846C49.8198 -1.92541 49.1814 -0.560281 48.9928 0.669552C48.6969 2.60898 48.9378 3.4118 49.7915 4.05291C51.9321 5.17011 51.6196 5.90089 54.0485 5.89914C55.8147 5.89684 56.3698 5.3907 56.7848 3.58822C57.3683 1.05367 59.4513 -1.94182 61.9128 -4.08497C62.6242 -4.70385 63.5503 -5.08032 64.3916 -5.54321C66.3399 -6.61478 71.3631 -6.71863 73.562 -4.70831C75.2617 -3.15443 77.0681 -0.161077 76.8985 1.8928C76.8592 2.37013 76.9257 2.85208 76.9335 3.3331C76.9617 4.84832 77.2955 7.86544 76.3014 8.96213C75.0081 10.389 74.2317 11.7752 72.5132 12.7554C69.9907 14.1952 64.4342 14.943 61.5709 14.8357C60.7239 14.8032 59.1688 15.1649 58.4767 15.5398C57.0455 16.314 56.2896 16.1917 55.4504 17.6992C53.7071 20.8299 53.5218 20.8715 51.8115 24.0209C51.4414 24.7024 51.2168 25.4765 50.7682 26.097C49.2332 29.3639 48.9514 29.5352 47.2756 32.9035C46.7708 33.9182 44.7576 36.7423 45.5481 37.1594C46.5596 37.6933 46.4141 38.0295 47.4297 38.5539C49.5518 39.6498 49.6732 41.3501 51.5666 39.7363C51.9364 39.4216 52.278 39.0766 52.6209 38.7312C55.6246 35.7035 57.251 33.5484 60.2374 30.5043C61.2572 29.4662 62.2297 28.3787 63.199 27.2927C64.781 25.5175 67.3252 22.8224 69.5646 23.2978C70.4084 23.4769 70.5019 23.2813 71.303 23.5801C73.4566 24.3824 74.789 25.4339 76.994 25.0554C78.6647 24.7691 81.1583 23.7098 82.3647 22.5243C85.3706 19.5661 86.8247 18.3227 88.1269 14.189ZM80.8656 22.2808C79.0416 23.8725 76.7558 23.8265 74.5387 23.4761C73.313 23.2836 72.1332 22.841 70.9222 22.5515C69.6035 22.2372 68.2808 22.2013 66.9173 22.4815C65.5394 22.7635 64.411 23.3545 63.4031 24.3655C59.6939 28.086 56.1427 31.9406 52.8275 36.0148C51.9224 37.1282 51.195 38.4865 49.3353 38.8634C48.8128 38.5542 48.3164 38.2748 47.8346 37.9756C46.5623 37.1894 46.2659 36.4844 46.9125 35.1392C47.5831 33.7454 48.3479 32.3792 49.2166 31.0983C50.2575 29.5647 51.2517 28.0314 51.8794 26.2775C52.1388 25.5538 52.5544 24.8837 52.9156 24.1969C53.6348 22.8265 54.4998 21.5112 55.0632 20.0832C56.1352 17.372 58.3287 16.3816 60.9011 15.9485C63.6551 15.4846 66.4189 15.0612 69.191 14.759C70.5928 14.6064 71.7971 14.0817 72.9611 13.3704C73.4577 13.0678 73.9183 12.7045 74.3784 12.3479C77.5324 9.90742 78.0217 8.97279 78.2011 5.02147C78.2408 4.15678 78.2815 3.28847 78.2459 2.42696C78.1732 0.667261 77.753 -0.98231 76.6269 -2.37719C76.2676 -2.82207 75.85 -3.2356 75.5702 -3.72771C73.2235 -7.85414 69.6947 -7.74688 65.4858 -7.03031C61.2364 -6.30634 58.2763 -3.46109 56.5313 0.510788C55.9408 1.85332 55.2661 3.11217 54.2992 4.35526C53.9116 4.26971 53.5315 4.25538 53.2155 4.10654C50.0108 2.61046 49.8192 2.05725 50.8383 -1.57447C51.7776 -4.92144 54.0414 -7.52241 56.8266 -9.59696C58.143 -10.5775 59.6003 -11.3662 60.9626 -12.2879C62.6301 -13.4166 64.5409 -13.8302 66.4386 -14.0455C70.2683 -14.4822 73.8759 -13.7073 77.2526 -11.8765C80.8796 -9.9104 83.8129 -7.15875 85.7312 -3.58394C88.5925 1.74756 89.3974 7.45693 87.1215 13.3744C86.5326 14.9047 85.9508 16.5059 85.0073 17.8187C83.8292 19.4542 82.3899 20.9518 80.8656 22.2808Z" fill="#FDFEFF"/>
<path d="M47.0509 49.9499C48.0898 48.3209 48.4693 49.3733 46.5267 47.6605C46.2425 47.4101 45.1089 46.84 44.56 46.6255C43.2646 46.119 43.218 45.9832 41.2185 45.1452C39.8872 44.5867 39.856 44.4724 38.4055 45.5005C36.2468 47.0318 36.263 46.9008 35.0647 49.1054C34.3893 50.3472 32.7795 50.5974 33.7816 51.6523C34.4215 52.2095 34.8895 52.5595 35.5797 53.0464C36.7431 53.8658 38.3104 54.6702 39.5618 55.3464C43.6515 57.558 41.742 57.0874 44.3777 53.7516C45.3365 52.5405 46.2173 51.257 47.0509 49.9499ZM41.2839 54.9892C39.4699 53.6727 37.7391 52.4163 35.8989 51.0808C36.9009 49.052 38.1227 47.3943 39.7561 45.8453C41.7527 46.7958 44.2722 46.6384 45.8592 49.1262C44.3002 51.1042 43.2141 53.2662 41.2839 54.9892Z" fill="#FDFEFF"/>
<path d="M34.1791 51.166C34.1199 51.5303 34.2369 56.1046 34.2891 56.4266C34.4232 57.2539 35.3257 57.1384 36.0151 57.2503C36.8345 57.3834 37.3494 57.7524 38.0572 58.2019C38.9017 58.7383 39.8644 59.0156 40.7193 59.5298C40.878 59.6252 41.9137 60.3756 41.9563 60.1133C42.1799 58.7364 41.6882 57.5228 41.9125 56.1416M47.3378 49.0323C48.0764 50.0573 47.9206 51.2602 48.091 52.4534C48.2619 53.6498 48.4341 55.0064 48.2395 56.2048C48.1182 56.9514 47.2854 57.2282 46.6574 57.4633C45.9584 57.7249 45.4216 58.4211 44.7926 58.8136C43.9694 59.3273 42.9082 59.7907 42.0857 60.165M35.4158 52.8822C35.4939 54.4402 36.1051 55.79 36.3507 57.3048M38.0819 54.2796C37.9069 55.3573 38.289 56.7793 38.6107 57.8097M40.0551 55.7022C40.2808 56.7988 40.4749 58.2069 40.2937 59.3229M43.2043 54.9738C43.1498 56.4594 43.6136 58.0356 43.849 59.487M44.3148 53.2254C44.1879 54.1842 44.8651 55.1332 45.0272 56.0964C45.1116 56.5977 45.324 57.0313 45.4058 57.5356M45.4908 51.0744C45.79 52.2664 46.1507 53.392 46.5162 54.5626C46.762 55.3496 46.8245 56.1003 47.1691 56.8576M45.6321 36.6319C45.6253 36.8171 45.9057 37.4314 45.963 37.6576C46.1799 38.5147 46.6254 39.312 46.8466 40.1814C46.9606 40.6295 47.3751 41.9369 47.7567 42.212M50.3621 39.7421C50.4811 40.4952 50.9769 41.894 50.8439 42.7134M67.9103 23.3048C67.6023 25.2013 68.5067 26.9827 68.8051 28.823M77.4622 24.7183C77.9226 26.1329 78.161 27.5685 78.5749 28.8943M47.3758 42.0124C47.6255 43.2583 50.0516 43.2736 51.0704 43.439C51.4625 43.5027 52.1534 43.7578 52.5016 43.5337C53.2777 43.0342 53.8158 42.3368 54.5012 41.7307C55.0113 41.2796 55.5127 40.8167 56.0381 40.3731C56.3392 40.1188 56.5255 39.694 56.829 39.4147C57.1679 39.1029 57.7237 38.8567 57.9777 38.4685C58.3073 37.9646 59.3598 37.6574 59.5893 37.1689C59.8919 36.525 60.7608 35.9677 61.2491 35.4791C62.0735 34.6542 63.0103 33.9339 63.9274 33.22C64.3401 32.8987 64.6629 32.5464 65.0748 32.2813C65.5087 32.0021 65.9211 31.6295 66.2416 31.2232C66.648 30.7084 67.3271 30.586 67.8099 30.238C68.1857 29.9673 68.5255 29.6259 68.9696 29.5539C69.5157 29.4653 70.1168 29.4232 70.6576 29.2922C71.2719 29.1435 72.3972 29.5442 73.0114 29.6439C73.7374 29.7618 74.3398 29.7848 75.071 29.7335C76.4567 29.6362 77.8526 29.7498 79.1928 29.3314C79.8576 29.1238 80.7255 28.7576 81.2351 28.2548C81.7602 27.7367 82.6999 27.5748 83.2047 27.0133C83.9882 26.142 84.9864 25.2493 85.8577 24.3445C86.6346 23.5377 86.7302 22.2525 87.3146 21.3589C87.8265 20.5763 87.8966 19.4761 88.4274 18.6542C89.01 17.7521 89.4173 16.6901 89.8398 15.7073C90.3135 14.6052 90.6931 13.6576 90.887 12.4638L91.3617 9.54067C91.4306 9.11688 91.4382 8.79009 91.414 8.3705C91.3868 7.90007 91.0565 7.38215 91.0975 6.92613C91.1334 6.52752 90.9662 6.0425 90.8983 5.60796C90.8533 5.31992 90.7214 4.915 90.5702 4.65919C90.4281 4.5689 89.0608 1.01846 88.9509 0.821938C88.1354 -0.635469 86.8522 -2.8191 86.1724 -4.31336M49.1775 2.07734C49.2678 3.87881 50.2929 5.70867 51.0906 7.26342C51.7135 8.47761 53.686 8.45796 54.8459 8.64634C55.9169 8.82028 56.7087 8.89036 57.6578 8.34529C58.2239 8.02015 58.5878 6.81579 58.7009 6.21095C58.8884 5.20768 59.6911 4.18969 60.2365 3.35296C60.5953 2.8026 61.0643 2.35546 61.4162 1.79185C61.7723 1.22138 62.0409 0.729072 62.5563 0.285555C63.4653 -0.496715 64.7801 -1.25751 65.8589 -1.76501C67.5383 -2.55503 69.9251 -2.50572 71.6793 -1.97544C73.1964 -1.51685 74.2999 0.26747 74.8044 1.68542C75.7036 4.21258 76.8103 6.67703 76.3702 9.38674M65.0985 24.5013C65.9817 26.3555 66.1819 28.3793 66.7768 30.2845M68.9153 23.0547C68.8277 23.5944 68.9894 23.654 69.1533 24.1343C69.4716 25.0669 69.7631 26.0403 69.9812 27.0011C70.1607 27.7921 70.242 28.69 70.6407 29.3966M71.1536 23.6938C71.6293 25.5023 72.0212 27.4325 72.3168 29.2556M73.6385 24.5106C73.7419 25.5808 74.1715 26.9391 74.5966 27.942C74.7744 28.3615 74.7736 28.7359 74.9543 29.1328M75.7861 24.8594C75.6452 25.9311 76.026 26.7358 76.1732 27.7541C76.2635 28.3796 76.6774 28.7024 76.565 29.3944M79.7406 24.2618C79.8902 25.3095 80.531 27.168 81.1872 28.0786M82.7705 21.723C82.953 23.0191 83.6004 24.0936 84.1264 25.2496M80.9234 23.765C81.4273 24.5219 82.3759 25.738 82.5226 26.6423M84.5085 20.3521C84.6421 21.146 84.8402 21.647 85.1478 22.354C85.3347 22.7837 85.5699 23.1364 85.6397 23.5666M85.6191 18.6037C85.7352 19.1241 86.1187 19.5886 86.3455 20.0687C86.409 20.2031 86.3871 20.435 86.4766 20.5339C86.7465 20.8324 86.7478 21.1752 87.084 21.4592M86.6608 16.4309C87.4195 16.9537 87.5033 17.6 88.0099 18.3032M87.6991 13.4309C87.7102 14.0207 88.2343 14.9765 88.6041 15.4454C88.7944 15.6865 88.6504 16.066 88.8956 16.2428M88.5412 11.6389C89.0762 12.3006 90.1725 12.9319 90.2494 13.8451M88.9554 9.08863C89.7776 9.27229 90.1243 9.99257 90.8161 10.3552M89.3007 6.11386C89.6542 6.46445 91.4049 7.57833 91.321 8.09516M63.1355 25.5602C63.9969 26.472 64.6198 27.68 64.7927 28.9291C64.9168 29.8265 65.3888 30.7031 65.4632 31.5866M61.3355 28.1609C62.1284 28.3725 62.8164 30.0538 63.0529 30.7819C63.2631 31.4292 63.4859 32.0676 63.7687 32.6891M59.7787 30.1124C59.7127 30.5184 60.1524 30.9952 60.4107 31.2636C60.7271 31.5923 61.0165 32.3292 61.1707 32.757C61.3286 33.1948 61.4682 34.0294 61.8528 34.3067M58.4215 31.6829C58.6084 32.3804 59.1912 33.1357 59.6025 33.7422C59.8717 34.1392 59.885 35.227 60.4486 35.3185M52.1254 39.0641C52.2434 40.2674 52.5569 41.3464 52.8102 42.4817M55.649 4.64378C55.6644 5.45843 56.1379 6.19104 56.3442 6.96094C56.4448 7.33648 56.3739 8.16526 56.6929 8.39524M51.7381 4.97298C52.0153 5.605 52.5243 6.46321 52.5893 7.17771C52.621 7.52595 52.5885 7.84385 52.735 8.16574M53.5301 5.81507C53.9323 6.2209 54.1199 7.53121 54.2551 8.13708M60.3562 -3.13323C61.2062 -2.92979 61.5107 -1.8856 61.8746 -1.17221C62.042 -0.84402 61.9046 -0.592446 62.2457 -0.346581M64.1226 -5.96569C64.6794 -5.35895 64.9921 -4.37352 65.2503 -3.57829C65.382 -3.17284 65.5895 -2.28384 65.9719 -2.08343M66.6477 -6.24443C66.7207 -5.44099 66.9224 -4.46778 67.2729 -3.73199C67.4035 -3.45766 67.6263 -2.93891 67.5792 -2.649M69.1509 -6.38895C69.2416 -5.06765 69.4306 -3.85841 69.6362 -2.59046M71.1425 -5.92773C71.1589 -4.7285 71.5927 -3.46575 71.9398 -2.3541M73.609 -4.14949C73.5039 -2.98074 73.5004 -1.17517 74.2067 -0.194975M75.4515 -1.92154C75.4897 -1.07742 75.6165 -0.392892 75.4835 0.425695C75.3956 0.967002 75.1999 1.98786 75.425 2.48268M77.3443 1.69226C77.0519 2.39951 76.5842 2.97969 76.4586 3.75268M57.0207 33.5219C56.9951 34.2205 57.9118 35.2214 58.3044 35.7969C58.5836 36.2061 58.8828 36.8332 59.026 37.2917M55.3296 35.4515C55.6174 35.5663 56.1513 36.6649 56.3818 36.9847C56.7102 37.4406 56.9758 37.8123 57.0631 38.3506M53.7258 36.8442C54.0544 37.3003 54.4527 37.7518 54.7227 38.246C54.8662 38.5087 54.8189 38.6837 55.0483 38.8806C55.2321 39.0384 55.455 39.7694 55.4156 40.0118M56.4693 2.98604C56.4767 3.38053 56.7892 3.71898 56.9532 4.0596C57.2037 4.58006 57.3603 5.13346 57.6205 5.6528C57.886 6.18275 58.0792 6.71383 58.2532 7.27097M57.5076 -0.0139514C58.4583 0.986488 59.1963 2.16517 60.0028 3.28437M58.8178 -2.14319C59.0521 -1.46092 59.8264 -1.16362 60.0516 -0.50391C60.1406 -0.24334 60.2684 -0.0624055 60.3998 0.180227C60.6413 0.62658 60.8776 1.15696 60.9573 1.64844M62.2285 -4.48235C62.2401 -3.8683 62.8023 -3.02931 63.0318 -2.45378C63.1797 -2.08287 63.4729 -1.56097 63.7841 -1.33662" stroke="#FDFEFF" stroke-width="1.08787" stroke-linecap="round"/>
</g>
<defs>
<clipPath id="clip0_4_50578">
<rect width="87" height="80" fill="white"/>
</clipPath>
</defs>
</svg>
