<svg width="87" height="80" viewBox="0 0 87 80" fill="none" xmlns="http://www.w3.org/2000/svg">
<g clip-path="url(#clip0_4_50554)">
<rect width="87" height="80" fill="#26262E"/>
<path d="M27.416 49.1381C28.3816 49.1125 28.9546 49.7378 29.4631 50.4451C29.8002 50.9139 30.3681 51.1894 30.9317 51.0638C31.4642 50.9452 31.95 50.7295 32.1431 50.1973C32.2324 49.9572 32.306 49.712 32.3634 49.4632C32.539 48.7019 31.9288 48.0376 31.1539 47.9378C30.1098 47.8033 29.0674 47.664 28.0295 47.6019C27.7415 47.584 27.4535 47.5698 27.1651 47.5587C26.8835 47.5478 26.6226 47.7108 26.5022 47.9657C26.2355 48.5301 26.7944 49.1957 27.416 49.1381Z" fill="#FF8E0A"/>
<path d="M35.9418 54.5731C35.9314 54.5538 35.9182 54.536 35.9049 54.5185C35.8998 54.5119 35.895 54.5051 35.8904 54.4981C35.7617 54.3049 35.6457 54.0932 35.5332 53.8891C35.397 53.6273 35.2443 53.3747 35.0758 53.133C35.0036 53.0346 34.8499 53.0609 34.8148 53.1777C34.6491 53.7329 34.4591 54.3203 34.2345 54.9747C34.208 55.0528 34.2505 55.1378 34.3286 55.1643C34.9061 55.3552 35.5046 55.472 36.1108 55.514C37.4344 55.4476 38.7461 55.2298 40.0203 54.8645C40.8907 54.6333 41.7731 54.4497 42.6636 54.3148C42.73 54.3059 42.782 54.2535 42.7903 54.1871L42.8226 53.9302C42.8607 53.6295 42.8986 53.3282 42.9342 53.0292C42.945 52.9403 42.8745 52.862 42.785 52.8641C42.4247 52.8717 42.0033 52.879 41.5931 52.8678C41.5375 52.8697 41.4834 52.8454 41.4483 52.8015C41.4438 52.7951 41.4397 52.7885 41.4359 52.7817C41.3778 52.6773 41.4152 52.5473 41.4178 52.4278L41.4222 52.2291C41.4545 50.5667 41.4882 48.8479 41.0323 47.2116C41.0126 47.1422 40.9455 47.0968 40.8738 47.1049C40.6845 47.1267 40.4962 47.1511 40.3081 47.178C40.2279 47.1902 40.1727 47.2653 40.1841 47.3455C40.3808 48.8941 40.4873 50.4522 40.5036 52.013C40.5186 52.5342 40.5349 53.0581 40.5567 53.5808C40.5694 53.6553 40.5223 53.727 40.4489 53.7453C40.4177 53.7548 40.3904 53.775 40.3722 53.8022C40.3447 53.8405 40.3031 53.8659 40.2569 53.8744C39.8759 53.9671 39.4953 54.0771 39.1255 54.1842C38.162 54.5168 37.1535 54.7012 36.1346 54.7311C36.0635 54.7346 35.9983 54.6948 35.9685 54.6321C35.9592 54.6126 35.9521 54.5921 35.9418 54.5731Z" fill="#FF8E0A"/>
<path d="M18.5168 56.4243C18.8116 56.6573 18.5335 56.6331 18.9184 56.4447C19.8145 56.0096 20.3882 55.1891 21.0619 54.4825C21.1089 54.4341 21.162 54.3899 21.2181 54.3524C21.3276 54.2792 21.4719 54.2714 21.5915 54.3391C21.6271 54.3581 21.6627 54.377 21.6984 54.3958C22.1187 54.6163 22.6293 54.4205 22.8242 53.9878C22.9107 53.7955 22.998 53.6035 23.086 53.4117C23.2459 53.063 22.9666 52.6686 22.5843 52.7013C22.3954 52.7154 22.213 52.7281 22.0362 52.7416C21.8607 52.7721 21.6899 52.804 21.5248 52.8372C21.226 52.9017 20.9217 52.9405 20.6163 52.9525C20.402 52.9576 20.1889 52.9258 19.9855 52.8578C19.8517 52.8005 19.7823 52.7577 19.7883 52.7293C19.7944 52.7009 19.8777 52.6944 20.0213 52.7054C20.2125 52.7088 20.4034 52.6971 20.5925 52.67C20.8342 52.629 21.1183 52.5617 21.4444 52.4772C21.6073 52.4327 21.7806 52.3929 21.9666 52.355L21.983 52.3512L22.0184 52.3478L22.0514 52.3427L22.1207 52.3366L22.2615 52.3238C22.3548 52.3171 22.4505 52.31 22.5477 52.2985C22.8792 52.2733 23.199 52.253 23.4944 52.2355C23.5823 52.2303 23.6605 52.1786 23.6986 52.0992C23.7811 51.927 23.6412 51.731 23.4517 51.7549C22.5634 51.867 21.681 52.0194 20.8063 52.2116C20.7099 52.2381 20.6104 52.218 20.5332 52.1637C20.4351 52.0947 20.3618 51.9861 20.3225 51.8727C20.3109 51.8423 20.2992 51.8119 20.2874 51.7815C20.0158 51.0845 19.0782 51.072 18.6411 51.6791C18.151 52.3509 17.4356 53.2043 17.2463 54.0895C17.2242 54.1929 17.2682 54.297 17.2918 54.4001C17.3179 54.4742 17.3398 54.5493 17.3575 54.6254C17.4834 55.1645 17.6376 55.736 18.0732 56.0776C18.2207 56.1933 18.3688 56.3083 18.5168 56.4243Z" fill="#FF8E0A"/>
<path d="M24.5592 52.4981C24.4142 52.522 24.2865 52.6084 24.2239 52.7414C24.0817 53.0436 23.9395 53.3461 23.7978 53.6491C23.4325 54.4306 23.7938 55.3525 24.5986 55.6632C24.7175 55.7091 24.8366 55.7548 24.9557 55.8006C25.3639 55.9574 25.8204 55.9351 26.2035 55.7243C26.6961 55.4532 27.1828 55.1726 27.6905 54.9307C28.0488 54.7599 28.354 54.4832 28.5007 54.1144C28.513 54.0835 28.5251 54.0526 28.5371 54.0216C28.7173 53.5575 28.617 53.0397 28.3335 52.6304C28.2215 52.4687 28.1121 52.3052 28.0055 52.1399C27.6421 51.577 26.9794 51.2717 26.3177 51.3768C25.8631 51.4491 25.4069 51.511 24.9504 51.5689C24.8403 51.5829 24.7449 51.6519 24.6975 51.7522C24.6332 51.8881 24.569 52.0238 24.5044 52.1587C24.4922 52.1842 24.5107 52.2138 24.539 52.214C25.0512 52.2177 25.37 52.2484 25.3734 52.3053C25.3767 52.3622 25.0667 52.4308 24.5592 52.4981Z" fill="#FF8E0A"/>
<path d="M16.5747 60.4972C16.8199 60.0429 17.0605 59.5863 17.302 59.1306C17.5863 58.594 17.4209 57.9018 16.941 57.5295C16.528 57.2092 15.9586 57.3189 15.6558 57.745C15.4074 58.0947 15.1814 58.4604 14.9795 58.84C14.915 58.9662 14.8505 59.0914 14.7857 59.2158C14.3463 60.06 14.7189 61.4118 15.6586 61.2604C15.9967 61.2059 16.3071 60.9925 16.5747 60.4972Z" fill="#FF8E0A"/>
<path d="M21.376 50.6843C21.2497 50.3139 21.0927 49.9549 20.9068 49.6108C20.7563 49.3286 20.6234 49.0372 20.5082 48.7386C20.4653 48.6208 20.3043 48.6066 20.2418 48.7153C20.1051 48.9524 19.972 49.1912 19.8424 49.4296C19.8182 49.4734 19.8179 49.5264 19.8416 49.5704L19.8423 49.5716C20.1934 50.1993 20.5063 50.848 20.7796 51.5137C20.8058 51.5806 20.8773 51.6189 20.9473 51.6029C22.0728 51.3596 23.2429 51.2142 24.2758 51.0859C24.3246 51.0797 24.3673 51.0489 24.389 51.0048C24.4534 50.8751 24.5178 50.7425 24.5984 50.577C24.6516 50.4675 24.557 50.3443 24.4375 50.3674L23.9186 50.4679C23.1991 50.6066 22.4548 50.7498 21.7246 50.9111C21.6659 50.9282 21.6035 50.9149 21.5575 50.8771C21.5402 50.8628 21.5244 50.8465 21.5063 50.8331C21.4922 50.8227 21.4769 50.8141 21.4622 50.8046C21.4198 50.7768 21.3889 50.7339 21.376 50.6843Z" fill="#FF8E0A"/>
<path d="M35.69 52.8165C35.6298 52.8422 35.6067 52.9146 35.6425 52.9695C35.8083 53.2242 35.9524 53.4932 36.1026 53.7586C36.2457 54.0114 36.5189 54.162 36.8079 54.1332C37.494 54.0648 38.1639 53.8794 38.8299 53.6843C39.5069 53.486 39.9843 52.8617 39.9648 52.1565C39.9307 50.9214 39.8544 49.6878 39.7362 48.4578C39.683 47.9042 39.1647 47.5211 38.6221 47.6427C38.0901 47.7619 37.7819 48.3108 37.8123 48.8552C37.9013 50.4472 37.1966 52.1648 35.69 52.8165ZM39.0916 50.7459C39.0915 50.7454 39.0914 50.7448 39.0913 50.7442C39.0329 50.0448 38.9547 49.4279 39.0717 49.4061C39.1721 49.3878 39.4216 49.9342 39.4919 50.7124C39.5438 51.4649 39.4678 52.064 39.3604 52.0688C39.2531 52.0736 39.1422 51.476 39.0919 50.7478C39.0918 50.7472 39.0917 50.7465 39.0916 50.7459Z" fill="#FF8E0A"/>
<path d="M21.4804 56.6531C21.4295 56.6446 21.3784 56.6652 21.3467 56.7059C20.2795 58.0765 19.4256 59.5947 18.4557 61.0362C18.1931 61.4265 18.3507 61.9655 18.7912 62.1306C19.1738 62.274 19.6002 62.065 19.7221 61.675C19.8358 61.311 19.953 60.9468 20.0774 60.5854C20.5148 59.3095 21.0479 58.0779 21.5827 56.847C21.6189 56.7637 21.5699 56.6681 21.4804 56.6531Z" fill="#FF8E0A"/>
<path d="M23.5971 57.4995C22.8813 57.1696 22.0613 57.4639 21.7571 58.191C21.2907 59.3059 20.8717 60.4405 20.5014 61.5917C20.3252 62.1771 20.6382 62.8028 21.2229 62.9813C22.2273 63.2879 23.2482 63.5251 24.2749 63.6116C25.2073 63.6902 25.8289 62.7873 25.557 61.892C25.2512 60.8852 24.9372 59.8811 24.7245 58.8522C24.6003 58.2512 24.1545 57.7564 23.5971 57.4995ZM24.3651 62.8481C23.7912 62.6791 23.2078 62.5465 22.6174 62.4501C22.1699 62.3887 21.8985 62.3533 21.9002 62.3042C21.9006 62.2638 22.1674 62.2163 22.6257 62.2089C22.9023 62.2165 23.1783 62.2387 23.4523 62.2754C23.7626 62.317 24.0305 62.0291 23.9425 61.7286C23.6718 60.916 23.4861 60.0778 23.3884 59.227C23.3822 59.0623 23.3745 58.9127 23.3687 58.7795C23.3726 58.6489 23.3853 58.5336 23.3933 58.4416C23.4121 58.2589 23.4378 58.1579 23.4649 58.1589C23.4921 58.1599 23.5223 58.2603 23.5487 58.4399C23.5616 58.5274 23.5767 58.6353 23.5941 58.7646C23.6115 58.894 23.6408 59.0325 23.6692 59.1893C23.8455 60.0084 24.0655 60.8175 24.3273 61.6134C24.4309 61.9587 24.5204 62.2957 24.6011 62.6163L24.6022 62.6206C24.6392 62.763 24.5059 62.8909 24.3651 62.8481Z" fill="#FF8E0A"/>
<path d="M19.1399 63.5483C19.2144 63.5707 19.2936 63.53 19.3196 63.4566C19.3581 63.344 19.3956 63.2288 19.4312 63.1146C19.4545 63.0397 19.4152 62.9585 19.3415 62.9316C18.9284 62.7841 18.5172 62.6293 18.111 62.477L17.3537 62.1958C17.2864 62.1749 17.2355 62.1188 17.2207 62.0497C17.204 61.9689 17.2271 61.885 17.2825 61.8244C17.3098 61.7972 17.3254 61.7602 17.3258 61.7218C17.3287 61.684 17.3426 61.6477 17.366 61.6182C17.9414 60.8368 18.4658 60.0067 18.9724 59.2039C19.599 58.1683 20.2851 57.1692 21.0264 56.2125C21.0461 56.187 21.0744 56.1694 21.106 56.1629C21.1541 56.1529 21.193 56.1177 21.2078 56.0709L21.2093 56.0663C21.217 56.0417 21.2548 56.0243 21.2787 56.034C21.3002 56.0427 21.3211 56.053 21.3411 56.065L21.3796 56.0842C21.3934 56.0911 21.4078 56.0968 21.4226 56.1013C21.435 56.105 21.4476 56.1078 21.4605 56.1096C21.5055 56.1158 21.5499 56.1205 21.5938 56.1252C21.6955 56.1336 21.7965 56.1512 21.8948 56.1773C21.9668 56.199 22.0441 56.1619 22.0737 56.0927C22.1452 55.9206 22.2193 55.7487 22.304 55.5498L22.3295 55.4885C22.3599 55.4154 22.3273 55.3313 22.2556 55.2978C22.018 55.1872 21.7823 55.0693 21.5499 54.9503L21.5479 54.9493C21.4896 54.9195 21.4187 54.9319 21.3738 54.9795C21.2478 55.1129 21.1239 55.2491 21.0003 55.3852C20.3232 56.1289 19.6826 56.8315 18.7444 57.158C18.6052 57.2039 18.5154 57.1398 18.3536 57.009C18.3109 56.9748 18.2678 56.9403 18.224 56.9089C17.8114 56.6147 17.431 56.2982 17.0815 56.0003C17.0195 55.9476 16.9266 55.9553 16.874 56.0175L16.5544 56.3956C16.4951 56.4658 16.5132 56.5725 16.5924 56.6191C16.8558 56.7825 17.1084 56.9618 17.35 57.1554C17.6519 57.4026 17.9752 57.6222 18.3163 57.8111C18.3832 57.8474 18.4442 57.9035 18.4736 57.9738C18.4985 58.0331 18.4959 58.1027 18.4613 58.1616C18.2189 58.6021 17.985 59.0464 17.7507 59.4908C17.5779 59.8195 17.4048 60.1485 17.228 60.4756C17.1859 60.5534 17.1443 60.6368 17.1005 60.7232C16.9545 61.103 16.7083 61.4359 16.3886 61.6865C15.6691 62.1027 14.935 61.8143 14.1564 61.5092C13.969 61.4357 13.7835 61.3626 13.5987 61.3008C13.5333 61.2788 13.4613 61.3053 13.4258 61.3646C13.3599 61.4748 13.2912 61.5843 13.2226 61.6937L13.1555 61.801C13.1004 61.8891 13.1513 62.005 13.2534 62.024C15.2409 62.4264 17.2061 62.9352 19.1399 63.5483Z" fill="#FF8E0A"/>
<path d="M20.8832 47.9459C20.8726 47.9631 20.874 47.9845 20.8835 48.0024C20.9019 48.0371 20.9146 48.0745 20.9209 48.1131C20.9848 48.4713 21.1192 48.8039 21.2739 49.1292C21.5978 49.81 22.3775 50.1939 23.1177 50.0507C23.5056 49.9756 23.8938 49.9021 24.2819 49.8266C24.6448 49.7559 24.9525 49.5172 25.1147 49.185C25.4938 48.409 24.938 47.5116 24.0756 47.5572C23.0175 47.6132 21.9634 47.735 20.9193 47.9218C20.9044 47.9245 20.8912 47.9331 20.8832 47.9459Z" fill="#FF8E0A"/>
<path d="M49.0164 70.0951C49.8888 70.2881 50.7001 69.6411 50.6913 68.7477C50.6799 67.5987 50.6001 66.4382 50.6074 65.3097C50.611 64.6535 50.1272 64.0864 49.4878 63.9392C48.6437 63.7448 47.803 63.5425 46.9516 63.7682C46.9405 63.7712 46.9293 63.7738 46.9181 63.7758C46.8636 63.7855 46.8086 63.7967 46.7557 63.8131C46.485 63.899 46.2163 63.9897 45.9494 64.0847C45.4085 64.2774 45.4236 64.9632 45.995 65.0189C46.0969 65.0245 46.1875 65.0754 46.2462 65.1528C46.3111 65.2384 46.3635 65.3402 46.3986 65.4417C46.7466 66.5329 47.0388 67.6411 47.2744 68.7615C47.3947 69.3342 47.813 69.8055 48.3811 69.9462C48.5922 69.9985 48.8041 70.0481 49.0164 70.0951ZM47.6845 67.7807C47.6777 67.7529 47.6713 67.725 47.6653 67.697C47.5253 67.0492 47.7674 66.9992 47.9327 67.641C47.9397 67.6679 47.9467 67.6952 47.9538 67.7229C48.0029 67.9103 48.0614 68.0951 48.1296 68.2766C48.1639 68.3711 48.2079 68.4615 48.2619 68.5465C48.2673 68.5553 48.273 68.5641 48.2791 68.5726C48.3101 68.617 48.3433 68.6842 48.3974 68.6815C48.4095 68.6813 48.4135 68.6876 48.4408 68.6957C48.6707 68.7555 48.9066 68.7897 49.1436 68.7988C49.3323 68.8122 49.5196 68.8376 49.7048 68.8748C49.7387 68.8816 49.7735 68.8591 49.7773 68.8247C49.8286 68.5394 49.8354 68.2491 49.8572 67.9731C49.861 67.6933 49.875 67.4241 49.8663 67.1638C49.8647 66.6462 49.8495 66.1755 49.8534 65.7789C49.8603 64.9804 49.9499 64.491 50.0012 64.4937C50.0608 64.4999 50.0737 64.9853 50.137 65.7676C50.1691 66.161 50.2135 66.6273 50.236 67.1548C50.2557 67.4162 50.2505 67.696 50.251 67.9845C50.2435 68.2857 50.2186 68.5859 50.1759 68.884C50.1596 68.9879 50.1453 69.0889 50.13 69.1926C50.1116 69.319 49.9769 69.3923 49.8608 69.3389L49.8483 69.3332C49.6093 69.2492 49.3597 69.1991 49.107 69.1842C48.8355 69.1672 48.5671 69.1163 48.3081 69.0329C48.2663 69.0169 48.2264 68.9965 48.1892 68.9719C48.1607 68.9539 48.134 68.933 48.1092 68.9095C48.0524 68.8562 48.0047 68.7936 47.9674 68.725C47.9067 68.6171 47.8582 68.5025 47.8231 68.384C47.7644 68.1859 47.7178 67.9843 47.6845 67.7807Z" fill="#FF8E0A"/>
<path d="M45.8362 69.302C45.8426 69.3631 45.8858 69.4139 45.9451 69.43L45.9468 69.4305C46.1264 69.4794 46.3049 69.5296 46.484 69.5805C46.6643 69.6309 46.8339 69.4719 46.795 69.2887L46.7071 68.8745C46.503 67.7854 46.2276 66.7107 45.8827 65.6578C45.8644 65.6054 45.8178 65.5678 45.7628 65.5606C45.0253 65.4518 44.3152 65.2037 43.6698 64.8295C43.6255 64.8086 43.5925 64.7697 43.5799 64.7225C43.568 64.6925 43.5505 64.6649 43.5374 64.6354C43.5286 64.6156 43.5228 64.5946 43.5203 64.5731C43.5149 64.5284 43.527 64.481 43.5587 64.449C43.576 64.4314 43.5975 64.418 43.6215 64.4103C44.6203 63.9733 45.5418 63.619 46.4391 63.3264C46.5045 63.3051 46.5459 63.2401 46.5383 63.1718C46.503 62.7186 46.5141 62.2626 46.5716 61.8116L46.5985 61.5074C46.6244 60.9562 46.5909 60.4042 46.4981 59.8604C46.468 59.6381 46.4363 59.4151 46.4162 59.1897C46.4103 59.1291 46.3678 59.078 46.3092 59.0614C45.7243 58.8647 45.1692 58.5898 44.6578 58.2435C44.1194 57.8782 43.5318 57.5916 42.9132 57.3922C42.8284 57.3688 42.7422 57.4252 42.7296 57.5123L42.6094 58.3432C42.6021 58.3934 42.621 58.444 42.6595 58.4771C43.1797 58.8617 43.7707 59.1396 44.3981 59.2949C44.73 59.3936 45.0558 59.5131 45.3728 59.6535C45.4015 59.6624 45.432 59.6649 45.4609 59.6733C45.4915 59.6823 45.5192 59.7004 45.5399 59.7258C45.5703 59.7628 45.5826 59.8119 45.5736 59.859C45.5421 60.2273 45.5364 60.5973 45.5572 60.9667C45.5904 61.9605 45.6197 62.8185 44.567 63.3149C43.8258 63.6239 43.0234 63.7585 42.2216 63.7088C42.1423 63.7081 42.0767 63.7703 42.0732 63.8496L42.0655 64.0261C42.0565 64.2375 42.0467 64.4499 42.0423 64.6657C42.0392 64.8278 42.0355 64.9869 42.0322 65.148L42.03 65.2367C42.0284 65.3022 42.0704 65.3609 42.1329 65.3805C43.0363 65.6646 43.9932 66.0034 45.0593 66.4164C45.0985 66.4308 45.1329 66.4568 45.1573 66.4912L45.1577 66.4918C45.1723 66.5121 45.1918 66.5285 45.2143 66.5394C45.2659 66.5654 45.3022 66.6144 45.3125 66.6715C45.349 66.8307 45.3887 66.9885 45.4275 67.1465C45.6213 67.8527 45.7582 68.5735 45.8362 69.302Z" fill="#FF8E0A"/>
<path d="M44.9436 67.4875C44.8551 67.1266 44.5895 66.8371 44.2415 66.7067C44.0511 66.6354 43.8603 66.5651 43.6692 66.4961C42.9101 66.2221 42.1194 66.7764 42.0174 67.5769C41.9475 68.1256 42.2259 68.6744 42.768 68.7842C43.0437 68.84 43.3309 68.8783 43.621 68.9103C44.4255 68.9993 45.1364 68.2736 44.9436 67.4875Z" fill="#FF8E0A"/>
<path d="M49.2777 52.954C50.1141 53.2012 50.9925 52.6246 51.0715 51.756C51.1261 51.1562 51.1546 50.5567 51.108 49.9614C51.066 49.4254 50.5845 49.0636 50.0476 49.0361C49.1282 48.9889 48.2573 49.9563 48.289 50.8763C48.2967 51.1013 48.2969 51.3272 48.2921 51.5527C48.2784 52.1903 48.666 52.7732 49.2777 52.954Z" fill="#FF8E0A"/>
<path d="M20.4768 64.9942C20.4395 65.097 20.4957 65.212 20.6014 65.2404C22.0561 65.6321 23.5033 66.0638 24.9451 66.4835C25.2101 66.5607 25.4744 66.648 25.7385 66.7405C26.251 66.9199 26.7214 66.4696 26.5229 65.9642C26.4336 65.7367 26.2295 65.5723 25.9864 65.547C24.231 65.3641 22.3709 65.5455 20.7299 64.8808C20.6292 64.8401 20.5139 64.8921 20.4768 64.9942Z" fill="#FF8E0A"/>
<path d="M28.1479 65.0994C28.9743 65.1874 29.8082 65.1699 30.6298 65.0471C30.6918 65.0388 30.7418 64.9922 30.7545 64.9309L30.7979 64.7225C30.8569 64.439 30.6207 64.1811 30.3331 64.2149C29.8333 64.2862 29.3295 64.3268 28.8245 64.3366L28.7685 64.3365C28.636 64.3521 28.5024 64.3411 28.3754 64.3044C28.2633 64.272 28.1625 64.2068 28.087 64.1177C27.8358 63.8207 27.7387 63.3694 27.6455 62.9314C27.602 62.7294 27.5615 62.5384 27.5057 62.3627C27.3629 61.9089 27.2189 61.4561 27.0736 61.0039C26.7578 60.0214 26.4312 59.0058 26.143 57.9976C26.1335 57.9641 26.1122 57.9351 26.0833 57.9157C26.0383 57.8886 26.006 57.8448 25.9942 57.7935C25.9896 57.7484 26.0049 57.7038 26.0357 57.6708C26.5237 57.0309 27.3487 56.7603 28.1466 56.4981C28.4305 56.4049 28.7237 56.3082 28.987 56.2006C29.0273 56.1808 29.0634 56.1528 29.104 56.1338C29.1455 56.1144 29.1922 56.1074 29.2385 56.1145C29.2907 56.1277 29.3341 56.165 29.3549 56.215C29.678 56.7676 30.1353 57.23 30.6837 57.5588C30.8128 57.6503 30.9421 57.7442 31.0701 57.8406C31.3376 58.0597 31.5816 58.3061 31.7979 58.5759C31.8757 58.6665 31.9545 58.7576 32.0373 58.8496C32.0586 58.8721 32.0793 58.8919 32.0998 58.9121L32.1352 58.9475C32.2117 59.0238 32.3416 58.9943 32.3775 58.8924C32.4771 58.6061 32.5795 58.3213 32.6848 58.0363C32.7313 57.907 32.7799 57.7777 32.8364 57.6292C32.8631 57.5581 32.8314 57.4782 32.7632 57.4446C30.6715 56.4105 29.6786 55.2192 29.8155 53.903C29.8965 53.1006 30.7356 52.5889 31.4101 52.1781C31.4996 52.1237 31.5865 52.0702 31.6687 52.0186C33.1764 51.0706 33.9656 49.728 33.89 48.2294C33.8892 48.2141 33.8863 48.1989 33.8815 48.1843C33.8594 48.1174 33.7994 48.0702 33.7292 48.0645L33.7152 48.0633C33.5574 48.0519 33.3994 48.0409 33.2407 48.0272C33.1547 48.02 33.0805 48.0884 33.0817 48.1747C33.1299 49.1323 32.891 50.083 32.3967 50.9031C31.9965 51.4792 31.1784 51.6033 30.4546 51.7141C30.2564 51.7441 30.0659 51.7733 29.8901 51.81C29.8193 51.8285 29.7466 51.8042 29.701 51.7515C29.6752 51.7217 29.6575 51.6855 29.6332 51.6545C29.5174 51.5001 29.4107 51.3357 29.3018 51.1708C29.0807 50.8063 28.8188 50.4677 28.5213 50.163C27.8793 49.5559 27.2793 49.7212 26.6442 49.8945C26.5097 49.9311 26.3735 49.9699 26.2262 50.0012C25.9325 50.066 25.6403 50.1258 25.3479 50.1852C25.3036 50.1954 25.2662 50.2251 25.2461 50.2659C25.1911 50.3772 25.1365 50.4899 25.0841 50.6014L25.0067 50.7617C24.9553 50.8682 25.0429 50.9892 25.1601 50.9736C25.8441 50.882 26.6524 50.7655 27.4585 50.5937C27.4748 50.5899 27.4914 50.5887 27.5078 50.5896C27.5288 50.5905 27.5498 50.5868 27.5693 50.5788L27.5696 50.5787C27.6114 50.5572 27.6609 50.5541 27.7053 50.5706C27.7497 50.5871 27.7849 50.6216 27.8028 50.6654C28.1824 51.4062 28.6255 52.1123 29.1274 52.7756L29.3258 53.0539C29.366 53.1103 29.4257 53.1636 29.4233 53.2329C29.4221 53.2685 29.4063 53.3016 29.38 53.3246L29.3706 53.3339C29.3486 53.3555 29.3366 53.3854 29.3375 53.4163C29.3378 53.4262 29.3368 53.4361 29.3345 53.4457C29.2616 53.7427 29.1562 54.0307 29.0199 54.3042C28.9087 54.5369 28.8137 54.7771 28.7353 55.0228C28.7258 55.075 28.6931 55.1177 28.6492 55.1414C28.6 55.168 28.5411 55.1704 28.488 55.1877C27.8796 55.4323 27.2924 55.727 26.7319 56.0674C26.3947 56.26 26.0464 56.4592 25.6949 56.6324C25.627 56.6696 25.5431 56.6625 25.4827 56.6137C25.4467 56.5863 25.4067 56.5646 25.3642 56.5493L24.8583 56.3669C24.2206 56.1217 23.5616 55.8679 22.9236 55.5941C22.9119 55.5891 22.8996 55.5854 22.887 55.5832C22.8122 55.5699 22.7379 55.6089 22.7065 55.6781L22.7005 55.6913C22.621 55.871 22.5403 56.0452 22.4605 56.2235C22.4277 56.298 22.4613 56.385 22.5356 56.4182C22.7235 56.5031 22.908 56.5948 23.0925 56.687C23.6193 56.9828 24.1878 57.1956 24.7785 57.3189C24.8131 57.3239 24.846 57.3377 24.8742 57.3589C24.8972 57.3762 24.9248 57.3865 24.9535 57.3883C24.9889 57.3892 25.0219 57.4047 25.0462 57.4309C25.0936 57.4822 25.0858 57.5619 25.0961 57.631C25.2939 58.9576 25.61 60.2641 26.0399 61.535C26.2591 62.2545 26.4863 62.9978 26.6653 63.7363C26.6704 63.7603 26.6721 63.7848 26.6705 63.8093C26.6688 63.8256 26.6706 63.8421 26.6757 63.8577L26.6762 63.8592C26.6968 63.9147 26.693 63.9764 26.6651 64.0286C26.6375 64.0692 26.5929 64.0956 26.5438 64.0993C24.2295 64.463 21.9465 63.8335 20.0183 63.1695C19.9405 63.1429 19.8555 63.1857 19.8294 63.2637C19.626 63.888 19.4433 64.3977 19.2555 64.8678C19.2224 64.9506 19.2697 65.0437 19.3561 65.0658L19.492 65.1005C19.5529 65.1171 19.6145 65.1336 19.6777 65.1491C19.7469 65.1659 19.8183 65.1305 19.8467 65.0653C19.9346 64.8628 20.0062 64.6535 20.0602 64.4393C20.0707 64.4023 20.0936 64.3704 20.1252 64.3487C20.1477 64.3321 20.1648 64.3093 20.1746 64.2831L20.175 64.2822C20.2006 64.214 20.2532 64.1598 20.3206 64.1324C20.3776 64.1103 20.4415 64.1162 20.4935 64.1486C21.7086 64.8133 23.1262 64.8577 24.497 64.9012C25.2249 64.9069 25.9515 64.962 26.6719 65.0671C26.7817 65.0866 26.8635 65.1803 26.8683 65.292L26.8683 65.2924C26.8698 65.305 26.8726 65.3174 26.8768 65.3294C26.947 65.5212 27.0214 65.711 27.0959 65.9012C27.3023 66.3833 27.4653 66.8829 27.583 67.3944C27.5868 67.4112 27.5883 67.4285 27.5872 67.4457C27.5858 67.5108 27.6273 67.5698 27.6892 67.5899C27.8949 67.657 28.1012 67.7185 28.3082 67.7709C28.4123 67.798 28.5093 67.7071 28.4898 67.6013C28.39 67.0591 28.2605 66.5132 28.1353 65.9873L28.0232 65.4985C28.0191 65.4808 28.0135 65.4636 28.0063 65.4471C28.0003 65.4333 27.993 65.4202 27.9862 65.4069C27.9469 65.3307 27.9477 65.2392 27.9891 65.1634C28.0233 65.1105 28.0868 65.0852 28.1479 65.0994Z" fill="#FF8E0A"/>
<path d="M40.1275 63.6141C40.0179 63.6108 39.9432 63.724 39.9893 63.8235L39.9904 63.8257C40.1469 64.1434 40.2769 64.474 40.3781 64.8137C40.3925 64.8649 40.4332 64.9048 40.4846 64.918C40.8003 64.9962 41.1153 65.0793 41.427 65.1686C41.5191 65.1951 41.6115 65.1276 41.6141 65.0318L41.6281 64.5181C41.6339 64.2912 41.6399 64.0635 41.6471 63.8366C41.6497 63.7559 41.5871 63.6879 41.5065 63.684C41.3196 63.6753 41.1337 63.6649 40.9499 63.6544C40.6682 63.6368 40.3942 63.6211 40.1275 63.6141Z" fill="#FF8E0A"/>
<path d="M13.5281 63.8196C13.3263 63.8417 13.089 63.8593 12.8348 63.8956C12.7734 63.905 12.7104 63.917 12.6473 63.9285C12.6268 63.9323 12.6063 63.937 12.5863 63.942C12.5118 63.9609 12.4398 63.989 12.3688 64.0184C12.3365 64.0317 12.3047 64.0452 12.2758 64.0595C12.223 64.0939 12.1692 64.1207 12.1134 64.158C11.9001 64.3059 12.0032 64.6362 12.2622 64.6541C14.2624 64.7927 16.2701 64.7636 18.2729 64.8812C18.488 64.8939 18.689 64.7707 18.7678 64.5703C18.8719 64.3055 18.7263 64.0109 18.4546 63.9267C16.6265 63.3596 14.7684 62.8927 12.8896 62.5276C12.8874 62.5271 12.8853 62.5264 12.8833 62.5256C12.8725 62.521 12.8606 62.526 12.8542 62.5357C12.6054 62.9077 12.3475 63.2718 12.0745 63.6314C12.049 63.665 12.0883 63.7111 12.1253 63.691C12.198 63.6571 12.2657 63.6343 12.3331 63.6091C12.4841 63.5644 12.6398 63.5367 12.797 63.5269C13.0388 63.5148 13.2816 63.5179 13.5233 63.5367C13.9304 63.5706 14.1767 63.6143 14.1816 63.6683C14.1868 63.7223 13.9306 63.7799 13.5281 63.8196Z" fill="#FF8E0A"/>
<path d="M36.7264 60.471C36.7266 60.4225 36.7167 60.3734 36.7237 60.3254C36.7277 60.2983 36.7372 60.2722 36.7521 60.2487C36.7802 60.204 36.8248 60.1729 36.8758 60.162C37.9228 59.874 38.9489 59.5155 39.9476 59.0887C40.6548 58.8055 41.3839 58.5114 42.1213 58.2746C42.1736 58.2578 42.2122 58.213 42.2211 58.1588C42.2341 58.0805 42.2449 58.0023 42.2595 57.9002C42.2784 57.7834 42.2958 57.667 42.3132 57.5502L42.3489 57.3136C42.3521 57.2925 42.3528 57.2711 42.351 57.2498L42.3497 57.2349C42.3481 57.2163 42.3436 57.1981 42.3364 57.1809L42.3278 57.1606C42.2983 57.0907 42.2221 57.0531 42.1487 57.0722C41.9121 57.1351 41.6802 57.2124 41.4531 57.3041C38.7206 58.411 36.3833 58.9428 33.8705 57.9375C33.7214 57.8776 33.5644 57.812 33.3997 57.7402C33.3224 57.7065 33.2326 57.745 33.2034 57.8241C33.029 58.2976 32.8594 58.7704 32.6947 59.2428C32.6707 59.3115 32.7003 59.3879 32.7646 59.4221C33.5393 59.833 34.3827 59.7301 35.2753 59.621C35.4294 59.6022 35.5852 59.5831 35.7454 59.5662C35.8148 59.5584 35.8812 59.5819 35.9298 59.6259C36.0016 59.6908 36.0414 59.8043 35.9969 59.8902C35.9847 59.9138 35.9666 59.9346 35.9434 59.9504C35.8945 59.9746 35.863 60.0243 35.8623 60.0789C35.8709 60.8229 35.9568 61.5644 36.1179 62.2907C36.1942 62.7003 36.2731 63.1241 36.3218 63.545C36.3259 63.5682 36.3266 63.5917 36.3243 63.6147C36.3156 63.6985 36.2552 63.7725 36.1757 63.8007C36.1491 63.8101 36.121 63.8154 36.0923 63.8161C35.1849 63.8933 34.2604 63.9434 33.3659 63.9924C32.7324 64.027 32.0988 64.0613 31.4666 64.105C31.4008 64.1096 31.346 64.1575 31.3327 64.2221L31.2226 64.7551C31.2016 64.857 31.2894 64.9482 31.392 64.9311C31.6953 64.8803 31.9984 64.8253 32.301 64.7699C33.5114 64.4975 34.75 64.3746 35.9902 64.4049C36.0063 64.4063 36.0221 64.4091 36.0376 64.4134C36.0508 64.4172 36.064 64.4212 36.0775 64.4238C36.096 64.4275 36.1149 64.4285 36.1337 64.4305C36.1801 64.4356 36.2238 64.4562 36.2578 64.4895C36.2982 64.5296 36.3208 64.5843 36.3202 64.6414C36.3439 65.4086 36.4516 66.1714 36.6405 66.9155C36.7849 67.5171 36.8845 68.1285 36.9385 68.745C36.9432 68.8219 37.0066 68.8824 37.0837 68.8832C37.4005 68.8867 37.7185 68.8826 38.0373 68.8711L38.0514 68.8708C38.1366 68.8686 38.1984 68.7889 38.1793 68.7059C38.1774 68.6973 38.1763 68.6885 38.176 68.6796C38.1329 67.2147 37.8875 65.763 37.4475 64.3652C37.0604 63.0985 36.8184 61.7921 36.7264 60.471Z" fill="#FF8E0A"/>
<path d="M47.0134 48.5811C47.0073 48.571 46.999 48.5614 46.9875 48.5593C46.7909 48.5238 46.5962 48.4886 46.4052 48.4563C46.3977 48.4545 46.3905 48.4603 46.3911 48.468C46.4866 49.7393 47.2684 51.6777 46.3796 52.7307C46.058 53.1126 45.5576 52.9898 45.1116 52.9775C44.7155 52.9669 44.3202 52.9717 43.9253 52.9805C43.6713 52.9861 43.4604 53.1782 43.4296 53.4304C43.3891 53.763 43.6706 54.0476 44.0053 54.0296C45.0374 53.974 46.0734 54.0689 47.0809 54.3125C48.0438 54.571 48.9076 55.0866 49.8224 55.4591C50.2895 55.6493 50.763 55.2887 50.7879 54.7849C50.8062 54.4156 50.5743 54.0794 50.2192 53.9757C49.3964 53.7356 48.5709 53.5038 47.7582 53.2313C47.6037 53.1824 47.5011 53.0355 47.508 52.8732C47.6051 51.4483 47.7492 49.8683 47.0134 48.5811Z" fill="#FF8E0A"/>
<path d="M35.6248 52.0427C36.2411 51.604 36.7022 50.9804 36.9422 50.2616C37.1168 49.7385 37.1678 49.1847 37.0947 48.6431C37.0483 48.3 36.6971 48.1087 36.3608 48.1912C36.0825 48.2595 35.8812 48.4986 35.8543 48.7839C35.7577 49.8077 35.5855 50.823 35.3388 51.8211C35.295 51.9983 35.4728 52.1437 35.6248 52.0427Z" fill="#FF8E0A"/>
<path d="M27.0294 46.9784C27.3692 46.9927 27.7107 47.0099 28.0513 47.0338C28.9706 47.0977 29.916 47.2186 30.8297 47.3361C32.2802 47.5567 33.7446 47.6751 35.2114 47.6895C35.29 47.6886 35.3539 47.6247 35.356 47.5461C35.3575 47.465 35.3567 47.3845 35.3554 47.304L35.3545 47.1615C35.354 47.0756 35.281 47.008 35.1953 47.0142C35.1659 47.0163 35.1365 47.0133 35.1086 47.0042C33.9141 46.6628 32.6718 46.5206 31.432 46.5832C30.0186 46.5775 28.6838 46.5721 27.4175 45.9975C27.3432 45.9642 27.2558 45.9979 27.2224 46.0721C27.1551 46.2202 27.0863 46.3682 27.0177 46.5155L26.9011 46.7705C26.8575 46.8657 26.9247 46.9746 27.0294 46.9784Z" fill="#FF8E0A"/>
<path d="M36.8834 47.4787C38.9934 46.9568 41.1752 46.418 43.3531 46.6655C43.4371 46.6751 43.5119 46.612 43.5164 46.5276L43.5511 45.8808C43.5562 45.7866 43.4725 45.712 43.3795 45.7278C42.4725 45.8636 41.5586 45.9474 40.6424 45.9783C39.0406 46.063 37.3831 46.1489 35.8588 46.8159C35.8046 46.8397 35.7699 46.894 35.7707 46.9532C35.7743 47.1585 35.7773 47.3597 35.7751 47.5616C35.7739 47.6579 35.8632 47.7299 35.9571 47.7084C36.2645 47.6314 36.5732 47.5571 36.8834 47.4787Z" fill="#FF8E0A"/>
<path d="M50.7345 57.2569C50.7374 56.8055 50.4264 56.4134 50.0037 56.2551C48.9474 55.8595 47.9849 55.2392 46.8692 54.9934C45.864 54.7784 44.8356 54.7032 43.8121 54.7688C43.4805 54.7901 43.2186 55.0498 43.1743 55.3791C43.1109 55.8496 43.511 56.2529 43.9846 56.2855C44.1498 56.2969 44.3146 56.3166 44.4782 56.3445C45.632 56.5211 46.7598 56.8377 47.8377 57.2875C48.3694 57.5205 48.8814 57.7935 49.3931 58.0673C50.0108 58.3978 50.7301 57.9574 50.7345 57.2569Z" fill="#FF8E0A"/>
<path d="M43.618 51.8834C43.595 52.0879 43.7599 52.2662 43.9656 52.2615C44.3653 52.2505 45.8341 52.5319 45.9589 51.9605C46.182 50.952 45.8476 49.9123 45.7191 48.8864C45.6765 48.5456 45.4376 48.255 45.1124 48.1446C44.5837 47.965 43.9642 48.2937 43.9175 48.8501C43.8324 49.8624 43.7315 50.8737 43.618 51.8834Z" fill="#FF8E0A"/>
<path d="M29.663 68.4277C28.6256 68.3094 27.6101 68.0438 26.6468 67.6394C26.1666 67.464 25.67 67.2827 25.1701 67.1371C24.7462 67.0145 24.3221 66.8908 23.8977 66.7661C22.3698 66.3195 20.79 65.8575 19.2231 65.4632C19.187 65.4541 19.1486 65.4591 19.1161 65.4773C19.0999 65.4864 19.0822 65.4926 19.0639 65.4957C19.0156 65.5041 18.9744 65.5358 18.954 65.5804C18.8855 65.7309 18.8121 65.8807 18.7394 66.0303L18.7221 66.0652C18.6873 66.1358 18.7141 66.2212 18.7829 66.2593C22.1017 68.098 25.8534 68.7659 29.4142 69.2916C29.4814 69.3014 29.5465 69.264 29.5719 69.2011C29.649 69.0108 29.7255 68.8181 29.7944 68.6253C29.8272 68.5329 29.7609 68.4345 29.663 68.4277Z" fill="#FF8E0A"/>
<path d="M29.4799 67.841C29.7206 67.8639 29.9379 67.706 30.0041 67.4735C30.0918 67.1659 30.1727 66.8565 30.2485 66.5456C30.357 66.1011 29.9797 65.6921 29.5225 65.7112C29.0855 65.7295 28.753 66.1327 28.8497 66.5593C28.9136 66.8411 28.9742 67.1238 29.0276 67.4086C29.0703 67.6367 29.2488 67.8191 29.4799 67.841Z" fill="#FF8E0A"/>
<path d="M18.3304 65.4523C17.3568 65.393 16.3668 65.3687 15.4098 65.3459C13.8025 65.3346 12.1968 65.2407 10.5991 65.0657C10.5127 65.0588 10.4375 65.0033 10.4053 64.9223C10.3786 64.842 10.4004 64.7537 10.4609 64.6948C11.9661 63.0516 13.2188 61.1924 14.1783 59.1783C14.5814 58.3237 15.0707 57.513 15.638 56.7587C15.7709 56.591 15.9125 56.4302 16.062 56.277C16.3777 55.9999 16.6152 55.6445 16.7508 55.2462C16.761 55.2049 16.7529 55.1612 16.7287 55.1262C16.7154 55.1073 16.7058 55.0861 16.7006 55.0635C16.4189 53.9409 17.1279 52.8229 17.8148 51.8614C18.3714 51.0826 18.8505 50.2541 19.3139 49.4526C19.6603 48.8552 20.0181 48.2346 20.4051 47.6419C20.415 47.6268 20.4233 47.6106 20.4298 47.5936C20.44 47.5671 20.4438 47.5384 20.4524 47.5113C20.4715 47.4508 20.5264 47.4062 20.5926 47.4022C22.46 47.0462 24.3608 46.8948 26.2615 46.9502C26.3189 46.9513 26.3719 46.9183 26.3968 46.8666C26.4809 46.6902 26.5646 46.5117 26.6458 46.3331C26.6963 46.2231 26.5999 46.1022 26.4816 46.1274C24.435 46.6139 22.3254 46.7833 20.2267 46.6302C20.165 46.6242 20.106 46.6582 20.0797 46.7143C19.881 47.1386 19.3542 48.0209 18.7456 49.0427C16.3532 53.0557 15.3735 54.9075 15.8905 55.2769C15.9772 55.3352 16.0084 55.4481 15.9644 55.5425C15.9368 55.6274 15.8566 55.6833 15.7681 55.6798L15.7288 55.6821C15.7045 55.6835 15.6809 55.6903 15.6596 55.702C15.6512 55.7067 15.6423 55.7106 15.6332 55.7137C14.5639 56.0821 14.0995 56.9955 13.6513 57.8824L13.4938 58.1899C13.2864 58.5874 13.075 58.9825 12.8636 59.3777C12.6319 59.81 12.4009 60.2421 12.1745 60.6771C11.3368 62.302 10.4803 63.8675 9.22284 65.161C9.14313 65.2429 9.1851 65.3809 9.29644 65.4068C11.9484 66.0353 14.9536 66.7472 18.1015 66.0768C18.1226 66.073 18.1435 66.0718 18.165 66.073L18.1672 66.073C18.2161 66.0734 18.2621 66.0493 18.2896 66.0088L18.3121 65.9661C18.3431 65.9071 18.3714 65.847 18.4003 65.7866L18.4566 65.6718C18.5043 65.5745 18.4384 65.4599 18.3304 65.4523Z" fill="#FF8E0A"/>
<path d="M30.6205 68.4655C30.5974 68.4618 30.5753 68.4532 30.5554 68.4401C30.521 68.4144 30.4771 68.4051 30.4353 68.4147L30.3903 68.425C30.3342 68.4319 30.2869 68.4703 30.2686 68.5239C30.2042 68.7142 30.1351 68.9066 30.0608 69.0962C30.0209 69.1969 30.0987 69.3051 30.2068 69.2992C31.2651 69.2843 32.3206 69.4081 33.3477 69.6664C33.9811 69.7973 34.6369 69.932 35.285 70.0003C37.1477 70.2 39.0288 70.1371 40.8733 69.8123C40.9268 69.8029 40.9709 69.7646 40.9877 69.7129C41.0487 69.5248 41.1026 69.3366 41.1508 69.1508C41.1779 69.0465 41.0877 68.9483 40.9818 68.9682C37.8782 69.5388 34.6817 69.3869 30.6205 68.4655Z" fill="#FF8E0A"/>
<path d="M50.7057 59.7174C50.7096 59.6005 50.6396 59.4928 50.533 59.4449C49.9547 59.185 49.3775 58.8971 48.7969 58.6116C48.382 58.4075 47.8902 58.5423 47.5419 58.8464C47.2322 59.1167 47.0449 59.5172 47.0996 59.9246C47.1429 60.2478 47.1718 60.5728 47.1859 60.8989C47.1892 60.9742 47.1858 61.0496 47.1777 61.1245C47.1746 61.1536 47.1716 61.1827 47.1686 61.2118C47.0726 62.1524 47.9472 62.9174 48.8742 63.1034C48.903 63.1092 48.9318 63.115 48.9606 63.121C49.8505 63.3053 50.6376 62.6569 50.6567 61.7483C50.6709 61.0712 50.6873 60.3943 50.7057 59.7174Z" fill="#FF8E0A"/>
<path d="M44.6503 57.8036C45.264 58.217 45.9412 58.5254 46.6551 58.7169C46.6611 58.7186 46.6669 58.721 46.6723 58.7243C46.6871 58.7332 46.7049 58.736 46.7218 58.7321L46.7549 58.7245C46.7686 58.7214 46.7818 58.7162 46.794 58.7091C47.0722 58.5347 47.318 58.3129 47.52 58.0536C47.5846 57.979 47.5588 57.8625 47.4683 57.8233C46.2313 57.2152 44.8752 56.8908 43.4986 56.8738C43.3407 56.8787 43.3008 57.0952 43.4461 57.1572C43.8615 57.3459 44.2636 57.5614 44.6503 57.8036Z" fill="#FF8E0A"/>
<path d="M34.3193 53.3826C34.3558 53.2633 34.2367 53.1552 34.1217 53.2034C33.8282 53.3143 33.5621 53.4867 33.34 53.7088C33.2168 53.8213 33.1413 53.9748 33.1257 54.138C33.1176 54.2227 33.1342 54.3082 33.1674 54.3865C33.2593 54.6032 33.4313 54.778 33.6498 54.8721C33.73 54.918 33.8322 54.8795 33.8621 54.7921C34.0202 54.3241 34.1758 53.8546 34.3193 53.3826Z" fill="#FF8E0A"/>
<path d="M41.3672 66.9442C41.4334 66.2482 40.9738 65.6173 40.2951 65.4492C40.2377 65.4349 40.1803 65.4209 40.1227 65.4071C39.9957 65.3839 39.9002 65.2827 39.8807 65.1593C39.8738 65.1156 39.8669 65.0714 39.8536 65.0291C39.7021 64.5326 39.5014 64.0521 39.2545 63.5956C39.2044 63.4849 39.2112 63.3565 39.2723 63.2516C39.3093 63.1882 39.3633 63.1382 39.427 63.1062C39.5107 63.0642 39.6064 63.043 39.7 63.0415C39.8041 63.0401 39.9086 63.0402 40.0133 63.0415C40.8535 63.0516 41.5607 62.4254 41.6389 61.5888C41.6446 61.5288 41.6503 61.4688 41.6562 61.4088C41.7677 60.2674 40.6881 59.3964 39.6217 59.8184C39.238 59.9703 38.8533 60.1191 38.4648 60.2576C37.7908 60.4976 37.3148 61.1376 37.4268 61.8442C37.7116 63.6416 38.3729 65.3705 38.632 67.1715C38.7481 67.9789 39.4382 68.6358 40.2445 68.5121C40.8104 68.4252 41.2484 67.9749 41.3173 67.4066C41.3359 67.2527 41.3526 67.0986 41.3672 66.9442Z" fill="#FF8E0A"/>
<path d="M42.4642 52.3012C42.6989 52.2981 42.8924 52.1189 42.9181 51.8857C43.0612 50.587 43.1828 49.287 43.2764 47.984C43.3066 47.5632 42.9977 47.1919 42.5761 47.1766C42.0766 47.1585 41.7302 47.6404 41.8122 48.1334C42.0138 49.3468 42.0168 50.5917 41.9952 51.824C41.9905 52.0873 42.201 52.3048 42.4642 52.3012Z" fill="#FF8E0A"/>
<path d="M51.9246 47.9699C51.1693 47.8631 50.4089 47.8003 49.6466 47.7822C47.6743 47.6924 45.4394 47.5906 44.1915 46.2705C44.1027 46.1765 43.9446 46.2348 43.938 46.364L43.9355 46.4146C43.9284 46.5452 43.9218 46.6761 43.9132 46.8046C43.9098 46.8542 43.932 46.9025 43.9716 46.9325C44.9582 47.683 46.2369 47.8922 47.3577 48.0292C47.7625 48.078 48.1774 48.1551 48.5788 48.23C49.4211 48.4261 50.2855 48.5072 51.1495 48.4724C51.1745 48.4691 51.2 48.4721 51.2239 48.4807C51.2392 48.4862 51.2541 48.4932 51.2696 48.4983C51.2831 48.5028 51.297 48.506 51.3107 48.5099C51.3796 48.5298 51.434 48.5847 51.4522 48.6556C51.8174 49.9382 51.6843 51.2031 51.5431 52.5422C51.5147 52.8086 51.4866 53.076 51.4628 53.3434C51.3435 54.6624 51.3289 56.0086 51.3157 57.3122C51.3087 57.9694 51.3019 58.6258 51.284 59.2793C51.237 60.9104 51.207 62.2677 51.1898 63.5525C51.1892 63.5966 51.2084 63.6388 51.242 63.6674C51.2832 63.7062 51.3053 63.7603 51.3032 63.817C51.3058 63.8848 51.2797 63.951 51.2309 63.9982C51.2004 64.0259 51.1828 64.0651 51.1825 64.1063L51.179 64.4938C51.1763 64.7769 51.1734 65.0602 51.1725 65.3429C51.1704 65.9651 51.1939 66.6081 51.2169 67.2298C51.2862 68.3891 51.2762 69.5519 51.1865 70.7099C51.1844 70.7445 51.1733 70.7777 51.1546 70.8064C51.1438 70.8231 51.1318 70.8391 51.1225 70.8567C51.11 70.8802 51.103 70.9063 51.0919 70.9305C51.0803 70.9556 51.0621 70.9772 51.0388 70.9928C51.0043 71.0162 50.9615 71.0239 50.921 71.0148C49.5019 70.8013 48.0993 70.4857 46.7249 70.071C46.1782 69.9203 45.6304 69.7691 45.078 69.6298C44.6055 69.5237 44.1257 69.4531 43.6429 69.4182C43.0073 69.3873 42.3788 69.2701 41.774 69.0697C41.6917 69.0374 41.5995 69.0847 41.5781 69.1704C41.5549 69.2637 41.5267 69.3566 41.4989 69.4488L41.4758 69.527C41.4541 69.6001 41.4907 69.6778 41.5608 69.7078C41.5832 69.7169 41.6038 69.7299 41.622 69.7456C41.6307 69.7532 41.6398 69.7604 41.6498 69.7661L41.6911 69.7896C41.6923 69.7903 41.6937 69.7905 41.6951 69.7902C41.6961 69.7899 41.6973 69.79 41.6983 69.7904C42.7629 70.1921 43.8528 70.5229 44.9608 70.7807C45.7118 70.9719 46.4885 71.17 47.2379 71.4138C47.5134 71.5031 47.7906 71.5985 48.0694 71.6931C49.5216 72.1887 51.0233 72.7015 52.5774 72.6062C52.6651 72.6007 52.7285 72.5199 52.7134 72.4333C52.5132 71.131 52.3977 69.8171 52.3676 68.5C52.3503 68.1176 52.3331 67.737 52.3118 67.3588C52.1954 65.2174 52.0947 63.1239 52.1437 61.049C52.1703 59.9195 52.2299 58.7775 52.2873 57.6727C52.4509 54.542 52.6197 51.3054 52.0438 48.0919L52.0436 48.0908C52.0328 48.0297 51.9855 47.9816 51.9246 47.9699Z" fill="#FF8E0A"/>
<path d="M34.9116 55.9741C34.4832 55.8759 34.0073 56.0666 33.8574 56.4797C33.7248 56.8453 33.891 57.2588 34.2552 57.3951C34.9344 57.6492 35.6408 57.8252 36.361 57.9191C38.1377 58.0102 39.5422 57.4363 41.1698 56.8141C41.3919 56.7269 41.617 56.648 41.8447 56.5775C42.1382 56.4866 42.3621 56.2412 42.4052 55.9371C42.477 55.4307 42.0347 55.0001 41.5369 55.1179C41.4928 55.1283 41.4487 55.139 41.4046 55.15C39.354 55.6594 37.041 56.4143 34.9116 55.9741Z" fill="#FF8E0A"/>
<path d="M34.8192 48.2581C34.6216 48.2564 34.4627 48.4214 34.4576 48.6189C34.4045 50.6439 32.9582 51.7997 31.3606 52.8752C29.567 54.0812 30.5527 55.3947 32.153 56.3806C32.578 56.6424 33.1234 56.4235 33.2938 55.9542C33.424 55.5958 33.2804 55.2074 33.0121 54.9363C32.4708 54.3894 32.2874 53.7159 33.1749 53.1224C33.3154 53.0364 33.46 52.9575 33.6081 52.8862C34.0854 52.6562 34.4972 52.2765 34.6243 51.7621C34.8794 50.7301 35.0558 49.6798 35.152 48.6203C35.1697 48.4255 35.0149 48.2597 34.8192 48.2581Z" fill="#FF8E0A"/>
<path d="M43.5788 62.9954C44.4263 62.8324 45.0918 62.4799 45.0451 61.4959C45.0352 61.2878 45.0202 61.0804 45.0085 60.8732C44.9819 60.4032 44.7213 59.9687 44.2757 59.8166C43.4905 59.5484 42.52 60.0735 42.4328 60.8986C42.4018 61.1926 42.3733 61.4867 42.3477 61.7811C42.2848 62.5039 42.865 63.1255 43.5788 62.9954Z" fill="#FF8E0A"/>
<path d="M30.8007 67.9279C32.0741 68.2308 33.365 68.4511 34.6653 68.5879C35.5757 68.6836 36.3001 67.9216 36.1093 67.0263C36.0607 66.798 36.0108 66.57 35.9645 66.3413C35.8074 65.5656 35.1617 64.9317 34.3741 65.0097C33.6617 65.0802 32.955 65.2088 32.2484 65.338C31.6249 65.4521 31.1308 65.9305 30.9836 66.547C30.8756 66.9992 30.7576 67.4484 30.6233 67.895C30.6206 67.904 30.6243 67.9135 30.6314 67.9195C30.6369 67.9241 30.6441 67.9263 30.6511 67.9249C30.7005 67.9152 30.7515 67.916 30.8007 67.9279Z" fill="#FF8E0A"/>
<path d="M28.5591 60.2961C28.8697 61.0445 29.1329 61.8122 29.3467 62.5937C29.3631 62.6538 29.4186 62.6968 29.4808 62.6919C29.6421 62.6854 29.8005 62.679 29.9559 62.6725C30.6364 62.6443 31.209 62.1648 31.3912 61.5085C31.4867 61.1645 31.5874 60.8223 31.6926 60.4817C31.8602 59.9393 31.7332 59.3434 31.3264 58.9474C30.9021 58.5343 30.4622 58.1374 30.0077 57.7576C29.9444 57.7127 29.8824 57.666 29.8219 57.6177C29.2873 57.1911 28.5789 56.9107 27.9303 57.1279C27.7666 57.1827 27.6048 57.2419 27.4499 57.3085C26.9278 57.533 26.7664 58.1364 26.9319 58.6801C27.2497 59.7238 27.5942 60.7587 27.922 61.8C28.0757 62.2953 28.1992 63.816 28.8564 63.7702C29.4662 63.7277 30.0744 63.6859 30.6858 63.6449C30.7983 63.6374 30.8931 63.5561 30.9137 63.4452C30.9641 63.2236 30.784 63.0172 30.5574 63.0338C30.221 63.0585 29.8676 63.0793 29.5036 63.0942C29.4119 63.0983 29.3229 63.1017 29.2335 63.1049C29.1372 63.1101 29.0509 63.046 29.028 62.9523L29.0272 62.9493C28.7855 61.9373 28.4925 61.0414 28.3005 60.3842C28.1764 60.0746 28.4648 59.9761 28.5591 60.2961Z" fill="#FF8E0A"/>
<path d="M35.4181 61.5164C35.3281 60.8039 34.6871 60.3092 33.9691 60.3206C33.8949 60.3218 33.8211 60.3214 33.7476 60.3192C33.11 60.3003 32.3945 60.6027 32.2138 61.2145C32.1261 61.5118 32.0419 61.8103 31.9618 62.1105C31.8997 62.3436 32.0846 62.5668 32.3253 62.5506C33.0233 62.4785 33.0581 62.7563 32.3604 62.8309C32.244 62.8514 32.1213 62.8704 31.9919 62.8881C31.8511 62.9074 31.7354 63.0101 31.7045 63.1488C31.6559 63.367 31.8319 63.5692 32.0548 63.5538C32.7433 63.506 33.4321 63.4573 34.1206 63.4059C34.9675 63.3427 35.5565 62.5456 35.4426 61.704C35.4342 61.6415 35.426 61.5789 35.4181 61.5164Z" fill="#FF8E0A"/>
<path d="M61.5919 23.9597C63.5784 22.1931 62.4224 19.7142 61.3126 17.6135C59.7944 14.7399 55.9248 11.9047 52.5783 11.947M58.8591 29.1492C58.534 31.8254 59.746 34.3684 60.7205 36.5882M62.5769 39.8497C63.0407 40.4158 63.4096 41.9273 63.7906 42.539M43.2461 31.0404C41.6039 28.7417 39.4291 26.1674 40.6685 23.2668M69.7202 53.8962C70.1514 53.8284 71.3342 53.3801 71.4827 52.8579C71.6408 52.3024 70.8208 50.8385 70.4634 50.5483M54.1503 13.9646C55.9367 14.4529 57.3251 15.4182 58.41 16.9301M59.4864 27.3125C59.819 26.8781 60.091 26.4159 60.4392 25.9871" stroke="#FDFEFF" stroke-width="0.722771" stroke-linecap="round"/>
<path d="M61.2883 13.7323C59.1885 11.8134 57.7847 10.5921 55.0676 9.94326C52.3458 9.29349 49.8337 8.98612 47.1541 9.81004C44.6689 10.5741 42.695 11.5319 40.9432 13.4547C40.2599 14.2048 39.3839 15.0994 38.8166 15.942C37.1415 18.4307 37.1807 19.6364 36.9377 21.2189C36.7918 22.1689 36.8519 23.8614 36.9613 24.8142C37.085 25.8988 37.3028 26.9565 37.846 27.9524C38.8716 29.8348 38.978 30.0112 40.3205 31.6514C40.8406 32.2864 41.4838 33.0537 42.1717 33.5122C43.2568 34.2343 43.8079 34.3143 44.4335 33.9799C45.7066 33.0038 46.0592 33.397 46.7392 31.9336C47.233 30.8691 47.0839 30.3929 46.1146 29.6375C44.7516 28.5753 43.5315 26.4807 42.9309 24.3971C42.7576 23.7951 42.7906 23.1317 42.7476 22.4952C42.6486 21.0212 43.9946 17.9666 45.822 17.2059C47.2346 16.6179 49.544 16.3692 50.7335 17.0473C51.01 17.2048 51.319 17.2999 51.6109 17.4301C52.5314 17.838 54.4423 18.483 54.8241 19.3893C55.3208 20.5683 55.938 21.4247 56.0465 22.7346C56.2064 24.6577 55.0987 28.2142 54.2312 29.9087C53.9741 30.4097 53.7559 31.4478 53.7876 31.9698C53.8526 33.0489 53.5669 33.4699 54.2396 34.3981C55.6364 36.3259 55.6095 36.4493 57.0269 38.3625C57.3335 38.7765 57.7368 39.1289 57.9848 39.5731C59.5221 41.4137 59.5461 41.6315 61.105 43.5853C61.5746 44.1739 62.7111 46.1784 63.184 45.8192C63.7892 45.3597 63.9509 45.5416 64.5516 45.077C65.8067 44.1061 66.8648 44.5097 66.4237 42.9168C66.3379 42.6058 66.2259 42.3033 66.114 41.9999C65.1327 39.3418 64.2907 37.7578 63.2946 35.1055C62.9553 34.2002 62.573 33.3095 62.1907 32.4211C61.5651 30.9705 60.6552 28.6824 61.5695 27.4668C61.914 27.0088 61.8224 26.8977 62.227 26.499C63.3142 25.4268 64.3211 24.9191 64.7115 23.4849C65.0075 22.3983 65.0687 20.5993 64.6929 19.5403C63.7541 16.9003 63.4129 15.6758 61.2883 13.7323ZM64.1259 20.3749C64.5731 21.9199 63.9045 23.2837 63.0717 24.5209C62.612 25.2051 62.0147 25.7916 61.5007 26.4398C60.9416 27.146 60.5491 27.9326 60.3355 28.8324C60.119 29.7414 60.1585 30.5868 60.4849 31.4774C61.6856 34.7547 63.0115 37.9746 64.5358 41.1138C64.9527 41.9712 65.5668 42.7902 65.2723 44.016C64.9396 44.244 64.6321 44.4646 64.3168 44.6709C63.4864 45.2168 62.9787 45.1976 62.3498 44.431C61.6984 43.6362 61.0899 42.7925 60.562 41.9101C59.9302 40.853 59.2855 39.8243 58.4051 38.9544C58.0419 38.5952 57.7548 38.157 57.4425 37.7468C56.8187 36.9294 56.2691 36.0396 55.567 35.2998C54.2346 33.8938 54.2531 32.295 54.7136 30.6241C55.2064 28.8353 55.7265 27.0519 56.3217 25.2974C56.6229 24.4103 56.6446 23.5378 56.5425 22.6373C56.4995 22.2534 56.4099 21.874 56.3241 21.497C55.7386 18.9129 55.3129 18.3561 52.9833 17.14C52.4736 16.8736 51.962 16.6057 51.4331 16.3856C50.3528 15.9359 49.2414 15.7264 48.0855 16.0135C47.7168 16.1052 47.3506 16.2407 46.9758 16.2713C43.8323 16.5276 42.9074 18.6831 42.1588 21.4192C41.4032 24.1817 42.2869 26.7624 44.1899 28.9272C44.833 29.6593 45.402 30.4187 45.8796 31.3496C45.7194 31.5591 45.6042 31.784 45.4259 31.9326C43.6261 33.4434 43.2392 33.4036 41.3376 31.7714C39.585 30.2671 38.6532 28.1743 38.1847 25.915C37.9632 24.8472 37.8969 23.7482 37.7237 22.6692C37.5114 21.3484 37.7982 20.0815 38.2006 18.8781C39.0115 16.449 40.4899 14.4934 42.5394 12.9729C44.7407 11.3397 47.2206 10.3445 49.9116 10.1915C53.9252 9.96313 57.5897 11.0793 60.5157 14.1095C61.2723 14.8933 62.0736 15.6927 62.5997 16.6291C63.2545 17.7973 63.7529 19.0842 64.1259 20.3749Z" fill="#FDFEFF"/>
<path d="M71.3093 48.5007C70.6195 47.4182 71.3597 47.4847 69.7834 48.1744C69.5528 48.2754 68.8916 48.7984 68.6085 49.0688C67.9402 49.707 67.8453 49.697 66.7799 50.6663C66.0701 51.3116 65.9926 51.2983 66.2051 52.4603C66.5221 54.1899 66.4477 54.1434 67.4395 55.4833C67.9981 56.2383 67.6974 57.2781 68.6138 56.9703C69.1288 56.7412 69.4709 56.5574 69.9577 56.2783C70.7774 55.8073 71.7014 55.0888 72.4596 54.5247C74.9385 52.6816 74.1196 53.6998 72.8495 51.1768C72.3889 50.2597 71.8628 49.3693 71.3093 48.5007ZM72.7273 53.3873C71.4258 54.1108 70.1837 54.8009 68.8633 55.5348C67.9223 54.3624 67.2664 53.1616 66.7914 51.7435C67.9239 50.8074 68.5355 49.2457 70.479 48.9875C71.2332 50.4812 72.2309 51.7416 72.7273 53.3873Z" fill="#FDFEFF"/>
<path d="M68.4322 56.5945C68.6351 56.7323 71.423 57.9445 71.6316 58.0034C72.1675 58.1546 72.351 57.5785 72.6117 57.1947C72.9216 56.7385 73.2883 56.5318 73.7575 56.2316C74.3174 55.8734 74.7544 55.3712 75.3038 55.0005C75.4058 54.9317 76.1482 54.5183 76.0021 54.4191C75.2355 53.8983 74.3667 53.8542 73.5976 53.3318M70.837 48.0705C71.6614 47.913 72.3422 48.3442 73.1087 48.5761C73.8773 48.8087 74.7426 49.0854 75.4099 49.5387C75.8255 49.821 75.7588 50.4003 75.7242 50.8445C75.6858 51.3389 75.9546 51.8574 76.0146 52.3463C76.0932 52.9862 76.0747 53.7553 76.0695 54.3557M69.8127 56.3309C70.773 56.7207 71.7574 56.7311 72.7387 57.0079M71.402 55.1168C72.002 55.5245 72.9656 55.693 73.6765 55.7882M72.8122 54.3273C73.5359 54.4988 74.4385 54.7768 75.0598 55.1988M73.2565 52.2262C74.136 52.6756 75.2154 52.8382 76.1556 53.1035M72.5148 51.0671C73.0567 51.4124 73.8182 51.2706 74.4438 51.4431C74.7694 51.5328 75.0901 51.5264 75.4168 51.6186M71.549 49.7556C72.3509 49.9096 73.13 50.008 73.9375 50.1161C74.4805 50.1888 74.9501 50.3616 75.5029 50.3664M62.8897 45.6206C62.9994 45.6767 63.448 45.68 63.6003 45.709C64.1773 45.8186 64.7825 45.7739 65.3682 45.8845C65.6701 45.9415 66.5738 46.0584 66.8465 45.9057M66.0894 43.6438C66.5764 43.7833 67.5579 43.8769 68.0141 44.1868M61.1098 28.4651C62.1657 29.1824 63.4922 29.1372 64.6843 29.4735M64.6396 23.1083C65.6207 23.2276 66.5522 23.4866 67.4668 23.609M66.6194 46.0791C67.4399 46.2781 68.1294 44.8211 68.5147 44.2539C68.663 44.0356 69.0104 43.6909 68.9731 43.4184C68.8899 42.8109 68.6207 42.2912 68.4478 41.7084C68.3192 41.2747 68.1809 40.8429 68.0611 40.402C67.9924 40.1494 67.7887 39.918 67.7056 39.6569C67.6128 39.3654 67.6204 38.9616 67.4578 38.6997C67.2467 38.3599 67.3568 37.6398 67.127 37.3646C66.824 37.0018 66.732 36.3222 66.5746 35.8911C66.3089 35.1632 66.1377 34.397 65.9649 33.6444C65.8872 33.3057 65.7654 33.0125 65.7213 32.6901C65.6748 32.3505 65.566 31.9976 65.4112 31.6906C65.215 31.3015 65.3317 30.8581 65.2576 30.4697C65.1999 30.1675 65.0895 29.8671 65.1707 29.5794C65.2705 29.2256 65.4136 28.8518 65.4864 28.4893C65.5691 28.0776 66.126 27.5122 66.3583 27.1702C66.6329 26.766 66.8157 26.4096 66.9898 25.9548C67.3197 25.0929 67.7796 24.284 67.9034 23.3595C67.9648 22.9008 67.9876 22.2754 67.8276 21.8274C67.6628 21.3659 67.8288 20.7545 67.6322 20.293C67.3271 19.5768 67.0693 18.7253 66.7686 17.9467C66.5006 17.2525 65.7533 16.8346 65.3789 16.232C65.0511 15.7042 64.4081 15.3535 64.0619 14.8033C63.6819 14.1995 63.1564 13.6563 62.683 13.1263C62.152 12.5319 61.6877 12.0375 61.023 11.586L59.3955 10.4804C59.1596 10.3201 58.9649 10.2238 58.7054 10.1208C58.4144 10.0052 58.0098 10.0589 57.7467 9.90637C57.5166 9.773 57.1776 9.73769 56.8968 9.65673C56.7107 9.60306 56.4299 9.56898 56.2334 9.5883C56.1392 9.64859 53.6173 9.4765 53.4681 9.48762C52.3616 9.57012 50.6866 9.73066 49.5959 9.72115M43.0713 33.7956C44.1816 34.2464 45.5712 34.1421 46.7314 34.0976C47.6374 34.0629 48.1786 32.8693 48.6173 32.2235C49.0224 31.6272 49.2867 31.17 49.2245 30.4455C49.1874 30.0133 48.5641 29.4564 48.2315 29.2187C47.6798 28.8244 47.2917 28.0555 46.9407 27.4923C46.7098 27.1219 46.572 26.7141 46.3312 26.3441C46.0875 25.9696 45.8663 25.6698 45.7436 25.235C45.5274 24.4681 45.4378 23.4629 45.4347 22.6708C45.4297 21.4377 46.1287 20.014 46.94 19.1061C47.6416 18.3209 49.0258 18.1566 50.0213 18.2503C51.7956 18.4174 53.5903 18.4419 55.099 19.4668M61.042 30.4942C62.4064 30.4822 63.6815 30.9291 64.9959 31.105M61.2409 27.7896C61.5414 27.9938 61.6227 27.9131 61.9579 27.949C62.6089 28.0188 63.2769 28.1162 63.9168 28.2543C64.4435 28.368 65.0072 28.5708 65.5446 28.5288M62.2535 26.6207C63.4762 26.8413 64.7487 27.1465 65.9296 27.4797M63.4423 25.3531C64.1159 25.5909 65.0544 25.713 65.7777 25.7382C66.0802 25.7487 66.3055 25.8542 66.5953 25.8567M64.2546 24.1574C64.8606 24.5427 65.452 24.539 66.1066 24.7359C66.5087 24.8569 66.8192 24.6981 67.2045 24.9599M65.0035 21.6079C65.6765 21.8116 66.9756 21.9468 67.7081 21.8069M64.324 19.0711C65.1558 19.3246 65.9845 19.2359 66.8283 19.2433M65.036 20.7562C65.6331 20.665 66.6316 20.4346 67.2174 20.5998M63.9856 17.6398C64.5013 17.782 64.8586 17.8032 65.3707 17.8162C65.6819 17.8241 65.9603 17.7813 66.239 17.8599M63.244 16.4806C63.5899 16.5566 63.9773 16.4559 64.3301 16.4539C64.4288 16.4534 64.5623 16.5316 64.647 16.5054C64.9025 16.4266 65.1093 16.5218 65.3747 16.399M62.2274 15.2439C62.755 14.9336 63.1678 15.0643 63.7334 14.9563M60.7116 13.7773C61.0699 13.936 61.7926 13.8883 62.1787 13.7971C62.3773 13.7501 62.5655 13.9432 62.7407 13.8451M59.8684 12.7676C60.417 12.6309 61.1046 12.1476 61.6762 12.3574M58.4485 11.803C58.7897 11.3593 59.3207 11.3524 59.7331 11.0374M56.7536 10.7608C57.0639 10.6462 58.2257 9.90412 58.5134 10.0996M61.1293 31.9734C61.92 31.7103 62.8223 31.6738 63.6231 31.92C64.1984 32.0969 64.8588 32.0584 65.4118 32.2614M62.191 33.7869C62.5407 33.3686 63.7463 33.4257 64.2512 33.4875C64.7 33.5424 65.147 33.5872 65.6007 33.5911M62.9298 35.2718C63.1559 35.4254 63.5663 35.2943 63.8004 35.214C64.0872 35.1156 64.6122 35.1479 64.9131 35.1749C65.221 35.2026 65.7628 35.3526 66.0377 35.1987M63.4952 36.5297C63.9677 36.6126 64.5861 36.4734 65.0667 36.3958C65.3813 36.345 66.0402 36.642 66.2534 36.3282M66.1755 42.3917C66.9333 42.658 67.6712 42.7717 68.426 42.9375M46.4318 30.6174C46.9267 30.8366 47.5008 30.7569 48.0224 30.8485C48.2768 30.8932 48.7561 31.1683 48.984 31.0406M45.5334 33.0653C45.9918 33.0756 46.6514 33.0097 47.1 33.1709C47.3186 33.2495 47.501 33.3581 47.736 33.3602M46.5431 32.2222C46.9003 32.0937 47.7421 32.3481 48.1449 32.4366M43.0675 25.6015C43.4284 25.1466 44.1427 25.256 44.6745 25.2368C44.9191 25.228 45.0321 25.3813 45.2758 25.2448M42.4177 22.5387C42.9392 22.3734 43.6204 22.4614 44.1718 22.5289C44.453 22.5633 45.0466 22.6876 45.2745 22.5134M42.9578 20.9396C43.4622 21.1209 44.105 21.2724 44.6464 21.2676C44.8483 21.2658 45.2232 21.2771 45.3846 21.3868M43.5727 19.3914C44.394 19.7072 45.1753 19.9325 45.9967 20.1642M44.409 18.3211C45.1359 18.6475 46.0181 18.7404 46.785 18.843M46.1717 17.3342C46.8462 17.7252 47.9327 18.2336 48.7211 18.0831M48.0302 16.8492C48.5494 17.0628 48.9972 17.1784 49.453 17.4881C49.7544 17.6928 50.3144 18.097 50.6755 18.1001M50.7377 16.7224C51.0816 17.0969 51.2999 17.5413 51.7303 17.8337M64.21 37.8891C64.6236 38.1004 65.4836 37.8289 65.9403 37.7538C66.265 37.7004 66.7266 37.696 67.043 37.7383M64.8981 39.4487C65.0479 39.3076 65.8593 39.294 66.1166 39.2449C66.4833 39.1749 66.7816 39.1192 67.1303 39.2176M65.2872 40.8052C65.6541 40.7352 66.0376 40.6219 66.4111 40.5979C66.6095 40.5851 66.7016 40.6626 66.8845 40.5797C67.0312 40.5133 67.5339 40.584 67.6689 40.6756M45.6633 29.6585C45.903 29.7647 46.1945 29.6714 46.4456 29.6681C46.8293 29.6632 47.2066 29.724 47.5923 29.7129C47.986 29.7016 48.36 29.7342 48.7444 29.7856M44.1475 28.1919C45.0167 27.8998 45.9336 27.7858 46.8338 27.6139M43.2324 26.8057C43.7091 26.8559 44.1053 26.4728 44.5658 26.5222C44.7477 26.5417 44.8925 26.5154 45.0755 26.5044C45.4121 26.484 45.7978 26.4904 46.1161 26.5803M42.78 24.0954C43.1531 24.2607 43.816 24.1573 44.227 24.1804C44.4919 24.1954 44.8885 24.1651 45.1109 24.0406" stroke="#FDFEFF" stroke-width="0.722771" stroke-linecap="round"/>
</g>
<defs>
<clipPath id="clip0_4_50554">
<rect width="87" height="80" fill="white"/>
</clipPath>
</defs>
</svg>
