<?xml version="1.0" standalone="no"?>
<!DOCTYPE svg PUBLIC "-//W3C//DTD SVG 20010904//EN"
 "http://www.w3.org/TR/2001/REC-SVG-20010904/DTD/svg10.dtd">
<svg version="1.0" xmlns="http://www.w3.org/2000/svg"
 width="512.000000pt" height="512.000000pt" viewBox="0 0 512.000000 512.000000"
 preserveAspectRatio="xMidYMid meet">

<g transform="translate(0.000000,512.000000) scale(0.100000,-0.100000)"
fill="#000000" stroke="none">
<path d="M2405 4754 c-11 -2 -45 -9 -75 -15 -84 -16 -207 -58 -285 -97 -617
-308 -835 -1076 -473 -1660 65 -104 197 -246 299 -322 l77 -57 -92 -31 c-679
-225 -1212 -782 -1412 -1475 -57 -200 -44 -347 44 -483 50 -76 143 -162 214
-196 125 -61 15 -58 1858 -58 1844 0 1737 -3 1860 58 29 15 81 52 114 82 167
154 214 341 147 581 -195 694 -720 1252 -1397 1485 l-110 38 75 56 c102 76
235 219 299 322 211 340 233 767 58 1123 -167 341 -478 576 -844 640 -76 14
-305 19 -357 9z m367 -273 c251 -64 443 -207 571 -422 213 -360 148 -827 -155
-1115 -133 -126 -272 -200 -441 -235 -485 -100 -952 199 -1074 687 -12 50 -17
109 -17 209 1 166 20 251 89 390 140 285 387 460 720 509 61 9 232 -4 307 -23z
m133 -2080 c672 -126 1217 -573 1465 -1200 44 -111 90 -270 90 -312 0 -95 -77
-207 -172 -250 l-53 -24 -1675 0 -1675 0 -57 28 c-112 55 -178 169 -164 280 4
27 25 104 47 170 232 707 843 1216 1586 1322 144 21 464 13 608 -14z"/>
</g>
</svg>
