<?xml version="1.0" standalone="no"?>
<!DOCTYPE svg PUBLIC "-//W3C//DTD SVG 20010904//EN"
 "http://www.w3.org/TR/2001/REC-SVG-20010904/DTD/svg10.dtd">
<svg version="1.0" xmlns="http://www.w3.org/2000/svg"
 width="512.000000pt" height="512.000000pt" viewBox="0 0 512.000000 512.000000"
 preserveAspectRatio="xMidYMid meet">

<g transform="translate(0.000000,512.000000) scale(0.100000,-0.100000)"
fill="#000000" stroke="none">
<path d="M2444 4774 c-34 -8 -89 -32 -122 -52 -34 -20 -472 -395 -974 -832
-1156 -1007 -1087 -944 -1111 -999 -40 -90 -20 -195 49 -265 60 -59 67 -61
344 -66 l255 -5 5 -1000 c6 -1101 1 -1025 67 -1086 65 -61 57 -60 482 -57
l388 3 39 27 c21 15 50 44 64 65 l25 36 6 416 c5 361 8 423 23 471 61 188 199
334 382 403 50 19 79 22 194 22 115 0 144 -3 194 -22 180 -68 318 -211 378
-393 20 -61 22 -90 27 -481 l6 -416 25 -36 c14 -21 43 -50 64 -65 l39 -27 388
-3 c425 -3 417 -4 482 57 66 61 61 -15 67 1086 l5 1000 255 5 c223 4 259 7
289 23 75 41 123 121 124 206 0 74 -28 134 -89 192 -52 49 -1865 1626 -1949
1696 -121 99 -268 133 -421 97z m610 -1586 c57 -17 119 -82 135 -141 27 -95
-13 -195 -97 -244 l-47 -28 -485 0 -485 0 -47 28 c-84 49 -124 150 -98 245 14
53 83 127 132 141 52 15 941 14 992 -1z"/>
</g>
</svg>
