<svg width="48" height="48" viewBox="0 0 48 48" fill="none" xmlns="http://www.w3.org/2000/svg">
<path d="M19.2 0C21.1096 0 22.9409 0.758569 24.2912 2.10883C25.6414 3.45909 26.4 5.29044 26.4 7.2C26.4 9.10956 25.6414 10.9409 24.2912 12.2912C22.9409 13.6414 21.1096 14.4 19.2 14.4C17.2904 14.4 15.4591 13.6414 14.1088 12.2912C12.7586 10.9409 12 9.10956 12 7.2C12 5.29044 12.7586 3.45909 14.1088 2.10883C15.4591 0.758569 17.2904 0 19.2 0Z" fill="#26262E"/>
<path d="M6 14.4C7.5913 14.4 9.11742 15.0321 10.2426 16.1574C11.3679 17.2826 12 18.8087 12 20.4C12 21.9913 11.3679 23.5174 10.2426 24.6426C9.11742 25.7679 7.5913 26.4 6 26.4C4.4087 26.4 2.88258 25.7679 1.75736 24.6426C0.632141 23.5174 0 21.9913 0 20.4C0 18.8087 0.632141 17.2826 1.75736 16.1574C2.88258 15.0321 4.4087 14.4 6 14.4Z" fill="#26262E" fill-opacity="0.9"/>
<path d="M11.3784 31.2C12.9697 31.2 14.4958 31.8321 15.621 32.9574C16.7463 34.0826 17.3784 35.6087 17.3784 37.2C17.3784 38.7913 16.7463 40.3174 15.621 41.4426C14.4958 42.5679 12.9697 43.2 11.3784 43.2C9.7871 43.2 8.26098 42.5679 7.13576 41.4426C6.01054 40.3174 5.3784 38.7913 5.3784 37.2C5.3784 35.6087 6.01054 34.0826 7.13576 32.9574C8.26098 31.8321 9.7871 31.2 11.3784 31.2Z" fill="#26262E" fill-opacity="0.8"/>
<path d="M26.4 38.4C27.673 38.4 28.8939 38.9057 29.7941 39.8059C30.6943 40.7061 31.2 41.927 31.2 43.2C31.2 44.473 30.6943 45.6939 29.7941 46.5941C28.8939 47.4943 27.673 48 26.4 48C25.127 48 23.9061 47.4943 23.0059 46.5941C22.1057 45.6939 21.6 44.473 21.6 43.2C21.6 41.927 22.1057 40.7061 23.0059 39.8059C23.9061 38.9057 25.127 38.4 26.4 38.4Z" fill="#26262E" fill-opacity="0.7"/>
<path d="M39.1656 32.4C40.4386 32.4 41.6595 32.9057 42.5597 33.8059C43.4599 34.7061 43.9656 35.927 43.9656 37.2C43.9656 38.473 43.4599 39.6939 42.5597 40.5941C41.6595 41.4943 40.4386 42 39.1656 42C37.8926 42 36.6717 41.4943 35.7715 40.5941C34.8713 39.6939 34.3656 38.473 34.3656 37.2C34.3656 35.927 34.8713 34.7061 35.7715 33.8059C36.6717 32.9057 37.8926 32.4 39.1656 32.4Z" fill="#26262E" fill-opacity="0.6"/>
<path d="M44.4 22.3656C45.3548 22.3656 46.2705 22.7449 46.9456 23.42C47.6207 24.0951 48 25.0108 48 25.9656C48 26.9204 47.6207 27.8361 46.9456 28.5112C46.2705 29.1863 45.3548 29.5656 44.4 29.5656C43.4452 29.5656 42.5296 29.1863 41.8544 28.5112C41.1793 27.8361 40.8 26.9204 40.8 25.9656C40.8 25.0108 41.1793 24.0951 41.8544 23.42C42.5296 22.7449 43.4452 22.3656 44.4 22.3656Z" fill="#26262E" fill-opacity="0.5"/>
<path d="M42.6864 12.4968C43.3229 12.4968 43.9334 12.7497 44.3835 13.1997C44.8335 13.6498 45.0864 14.2603 45.0864 14.8968C45.0864 15.5333 44.8335 16.1438 44.3835 16.5939C43.9334 17.0439 43.3229 17.2968 42.6864 17.2968C42.0499 17.2968 41.4394 17.0439 40.9893 16.5939C40.5393 16.1438 40.2864 15.5333 40.2864 14.8968C40.2864 14.2603 40.5393 13.6498 40.9893 13.1997C41.4394 12.7497 42.0499 12.4968 42.6864 12.4968Z" fill="#26262E" fill-opacity="0.4"/>
<path d="M37.2 7.2C37.5183 7.2 37.8235 7.32643 38.0485 7.55147C38.2736 7.77652 38.4 8.08174 38.4 8.4C38.4 8.71826 38.2736 9.02349 38.0485 9.24853C37.8235 9.47357 37.5183 9.6 37.2 9.6C36.8817 9.6 36.5765 9.47357 36.3515 9.24853C36.1264 9.02349 36 8.71826 36 8.4C36 8.08174 36.1264 7.77652 36.3515 7.55147C36.5765 7.32643 36.8817 7.2 37.2 7.2Z" fill="#26262E" fill-opacity="0.3"/>
</svg>
