<svg width="24" height="24" viewBox="0 0 24 24" fill="none" xmlns="http://www.w3.org/2000/svg">
<path d="M12.7138 5.90495H13.7138H12.7138ZM8.80886 2V1V2ZM1 20.6063L0.000133336 20.59C-0.0063448 20.9867 0.22227 21.3496 0.582811 21.5151L1 20.6063ZM8.80886 12.9239V13.9239V12.9239ZM16.6177 20.6063L17.0345 21.5153C17.3953 21.3499 17.6241 20.9868 17.6176 20.59L16.6177 20.6063ZM8.80886 22.3058L8.81022 21.3058H8.80886V22.3058ZM20 7C20 6.44772 19.5523 6 19 6C18.4477 6 18 6.44772 18 7H20ZM18 13C18 13.5523 18.4477 14 19 14C19.5523 14 20 13.5523 20 13H18ZM22 11C22.5523 11 23 10.5523 23 10C23 9.44772 22.5523 9 22 9V11ZM16 9C15.4477 9 15 9.44771 15 10C15 10.5523 15.4477 11 16 11V9ZM11.7138 5.90495C11.7138 6.67539 11.4078 7.41428 10.863 7.95907L12.2772 9.37328C13.197 8.45342 13.7138 7.20583 13.7138 5.90495H11.7138ZM10.863 7.95907C10.3182 8.50385 9.57931 8.80991 8.80886 8.80991V10.8099C10.1097 10.8099 11.3573 10.2931 12.2772 9.37328L10.863 7.95907ZM8.80886 8.80991C8.03842 8.80991 7.29954 8.50385 6.75475 7.95907L5.34054 9.37328C6.2604 10.2931 7.50799 10.8099 8.80886 10.8099V8.80991ZM6.75475 7.95907C6.20997 7.41428 5.90391 6.6754 5.90391 5.90495H3.90391C3.90391 7.20583 4.42068 8.45342 5.34054 9.37328L6.75475 7.95907ZM5.90391 5.90495C5.90391 5.13451 6.20997 4.39563 6.75475 3.85084L5.34054 2.43663C4.42068 3.35648 3.90391 4.60408 3.90391 5.90495H5.90391ZM6.75475 3.85084C7.29954 3.30606 8.03842 3 8.80886 3V1C7.50799 1 6.2604 1.51677 5.34054 2.43663L6.75475 3.85084ZM8.80886 3C9.57931 3 10.3182 3.30606 10.863 3.85084L12.2772 2.43663C11.3573 1.51677 10.1097 1 8.80886 1V3ZM10.863 3.85084C11.4078 4.39563 11.7138 5.13451 11.7138 5.90495H13.7138C13.7138 4.60408 13.197 3.35648 12.2772 2.43663L10.863 3.85084ZM1.99987 20.6227C2.02904 18.8361 2.75925 17.1325 4.03301 15.8794L2.63039 14.4537C0.982541 16.0748 0.0378806 18.2787 0.000133336 20.59L1.99987 20.6227ZM4.03301 15.8794C5.30677 14.6262 7.02203 13.9239 8.80886 13.9239V11.9239C6.49725 11.9239 4.27824 12.8325 2.63039 14.4537L4.03301 15.8794ZM8.80886 13.9239C10.5957 13.9239 12.311 14.6262 13.5847 15.8794L14.9873 14.4537C13.3395 12.8325 11.1205 11.9239 8.80886 11.9239V13.9239ZM13.5847 15.8794C14.8585 17.1325 15.5887 18.8361 15.6179 20.6227L17.6176 20.59C17.5798 18.2787 16.6352 16.0748 14.9873 14.4537L13.5847 15.8794ZM16.2009 19.6973C13.8823 20.7605 11.361 21.3092 8.81022 21.3058L8.80751 23.3058C11.6469 23.3096 14.4535 22.6988 17.0345 21.5153L16.2009 19.6973ZM8.80886 21.3058C6.16912 21.3058 3.66624 20.7299 1.41719 19.6975L0.582811 21.5151C3.08843 22.6653 5.87546 23.3058 8.80886 23.3058V21.3058ZM18 7V10H20V7H18ZM18 10V13H20V10H18ZM22 9L19 9V11L22 11V9ZM19 9L16 9V11H19V9Z" fill="#26262E"/>
</svg>
