<svg fill="none" xmlns="http://www.w3.org/2000/svg">
<path d="M8.81514 7.6744L10.8522 9.71144C11.0016 9.86082 11.0763 10.0509 11.0763 10.2818C11.0763 10.5127 11.0016 10.7028 10.8522 10.8522C10.7028 11.0016 10.5127 11.0763 10.2818 11.0763C10.0509 11.0763 9.86082 11.0016 9.71144 10.8522L7.42996 8.5707C7.34847 8.48921 7.28736 8.39741 7.24662 8.29529C7.20588 8.19371 7.18551 8.0886 7.18551 7.97996V4.74107C7.18551 4.5102 7.26373 4.31655 7.42018 4.1601C7.57608 4.0042 7.76946 3.92625 8.00033 3.92625C8.23119 3.92625 8.42484 4.0042 8.58129 4.1601C8.73719 4.31655 8.81514 4.5102 8.81514 4.74107V7.6744ZM8.00033 15.3337C6.35712 15.3337 4.88366 14.848 3.57995 13.8768C2.27625 12.9061 1.40033 11.6398 0.952177 10.0781C0.884276 9.83366 0.908177 9.60279 1.02388 9.38551C1.13904 9.16823 1.31884 9.03242 1.56329 8.9781C1.79415 8.92378 2.00139 8.97457 2.18499 9.13047C2.36805 9.28692 2.49354 9.48057 2.56144 9.71144C2.91452 10.9065 3.59707 11.8707 4.60907 12.604C5.62052 13.3374 6.75094 13.704 8.00033 13.704C9.58921 13.704 10.9369 13.1505 12.0434 12.0434C13.1505 10.9369 13.704 9.58921 13.704 8.00033C13.704 6.41144 13.1505 5.06346 12.0434 3.9564C10.9369 2.84988 9.58921 2.29662 8.00033 2.29662C7.06329 2.29662 6.18736 2.51391 5.37255 2.94847C4.55773 3.38304 3.87193 3.98057 3.31514 4.74107H4.74107C4.97193 4.74107 5.16559 4.81902 5.32203 4.97492C5.47793 5.13136 5.55588 5.32502 5.55588 5.55588C5.55588 5.78675 5.47793 5.98013 5.32203 6.13603C5.16559 6.29247 4.97193 6.3707 4.74107 6.3707H1.48181C1.25094 6.3707 1.05756 6.29247 0.901659 6.13603C0.745214 5.98013 0.666992 5.78675 0.666992 5.55588V2.29662C0.666992 2.06576 0.745214 1.8721 0.901659 1.71566C1.05756 1.55976 1.25094 1.48181 1.48181 1.48181C1.71267 1.48181 1.90633 1.55976 2.06277 1.71566C2.21867 1.8721 2.29662 2.06576 2.29662 2.29662V3.39662C2.98921 2.52749 3.83472 1.85526 4.83314 1.37996C5.83102 0.904647 6.88674 0.666992 8.00033 0.666992C9.01884 0.666992 9.97299 0.860375 10.8628 1.24714C11.752 1.63445 12.5261 2.15729 13.185 2.81566C13.8434 3.47457 14.3662 4.24865 14.7535 5.13788C15.1403 6.02766 15.3337 6.98181 15.3337 8.00033C15.3337 9.01884 15.1403 9.97272 14.7535 10.862C14.3662 11.7517 13.8434 12.5258 13.185 13.1842C12.5261 13.8431 11.752 14.3662 10.8628 14.7535C9.97299 15.1403 9.01884 15.3337 8.00033 15.3337Z" fill="#26262E"/>
</svg>
